<svg id="Layer_1" data-name="Layer 1" xmlns="http://www.w3.org/2000/svg" xmlns:xlink="http://www.w3.org/1999/xlink" viewBox="0 0 1126 624"><defs><style>.cls-1{fill:none;}.cls-2{fill:#60c7ef;}.cls-3{fill:#77bc77;}.cls-4{fill:#5aad60;}.cls-5{fill:#1f7f2c;}.cls-6{fill:url(#New_Pattern);}</style><pattern id="New_Pattern" data-name="New Pattern" y="-1812" width="133.29" height="129.38" patternUnits="userSpaceOnUse" viewBox="0 0 133.29 129.38"><rect class="cls-1" width="133.29" height="129.38"/><path class="cls-2" d="M74.65,0s-41,97.83-7.44,82.54S74.65,0,74.65,0Z"/><path class="cls-2" d="M125.65,51.38c-11,34-19,59-2,63C144.11,119.2,125.65,51.38,125.65,51.38Z"/><path class="cls-2" d="M13.65,88.38c-17,14-19,41-1,41C21.65,129.38,13.65,88.38,13.65,88.38Z"/></pattern></defs><path class="cls-3" d="M1,1884c192.17,63,844.75,173,1125,168v384H0Z" transform="translate(0 -1812)"/><path class="cls-4" d="M1,2436V2141.54c73,19.9,1125-63.66,1125-87.54v382Z" transform="translate(0 -1812)"/><path class="cls-5" d="M257,2393c0-53-10-126-48-152,0,0,43,15,50,41,0,0-2-54-34-66,0,0,41,9,46,42s4,57,4,57,12-37,35-56c0,0-14,25-14,50,0,0,12-17,43-19,0,0-62,29-61,103Z" transform="translate(0 -1812)"/><path class="cls-5" d="M526,2393c0-53-10-126-48-152,0,0,43,15,50,41,0,0-2-54-34-66,0,0,41,9,46,42s4,57,4,57,12-37,35-56c0,0-14,25-14,50,0,0,12-17,43-19,0,0-62,29-61,103Z" transform="translate(0 -1812)"/><path class="cls-5" d="M449.62,2377c0-44.85-8.47-106.62-40.62-128.62,0,0,36.38,12.7,42.31,34.7,0,0-1.69-45.7-28.77-55.85,0,0,34.69,7.62,38.92,35.54s3.39,48.23,3.39,48.23,10.15-31.31,29.61-47.38c0,0-11.84,21.15-11.84,42.3,0,0,10.15-14.38,36.38-16.07,0,0-52.46,24.53-51.62,87.15Z" transform="translate(0 -1812)"/><path class="cls-5" d="M795,2393c0-53-10-126-48-152,0,0,43,15,50,41,0,0-2-54-34-66,0,0,41,9,46,42s4,57,4,57,12-37,35-56c0,0-14,25-14,50,0,0,12-17,43-19,0,0-62,29-61,103Z" transform="translate(0 -1812)"/><path class="cls-5" d="M699,2393c0-53,10-126,48-152,0,0-43,15-50,41,0,0,2-54,34-66,0,0-41,9-46,42s-4,57-4,57-12-37-35-56c0,0,14,25,14,50,0,0-12-17-43-19,0,0,62,29,61,103Z" transform="translate(0 -1812)"/><path class="cls-5" d="M608.79,2369c0-42.52,8-101.08,38.5-121.94,0,0-34.49,12-40.11,32.89,0,0,1.61-43.32,27.28-52.95,0,0-32.9,7.22-36.91,33.69s-3.21,45.73-3.21,45.73-9.62-29.68-28.07-44.92c0,0,11.23,20.05,11.23,40.11,0,0-9.63-13.64-34.5-15.24,0,0,49.74,23.26,48.94,82.63Z" transform="translate(0 -1812)"/><path class="cls-5" d="M421,2393c0-53,10-126,48-152,0,0-43,15-50,41,0,0,2-54,34-66,0,0-41,9-46,42s-4,57-4,57-12-37-35-56c0,0,14,25,14,50,0,0-12-17-43-19,0,0,62,29,61,103Z" transform="translate(0 -1812)"/><path class="cls-5" d="M352.08,2356c0-38,7.69-90.41,36.92-109.06,0,0-33.08,10.76-38.46,29.42,0,0,1.54-38.75,26.15-47.36,0,0-31.54,6.46-35.38,30.14s-3.08,40.89-3.08,40.89-9.23-26.54-26.92-40.18c0,0,10.77,17.94,10.77,35.88,0,0-9.23-12.2-33.08-13.63,0,0,47.69,20.8,46.92,73.9Z" transform="translate(0 -1812)"/><path class="cls-5" d="M211.72,2348c0-35.63,6.31-84.71,30.28-102.19,0,0-27.12,10.08-31.54,27.56,0,0,1.26-36.3,21.45-44.37,0,0-25.86,6.05-29,28.24a236.3,236.3,0,0,0-2.52,38.32s-7.57-24.88-22.08-37.65c0,0,8.83,16.81,8.83,33.62,0,0-7.57-11.43-27.12-12.78,0,0,39.11,19.5,38.48,69.25Z" transform="translate(0 -1812)"/><path class="cls-5" d="M153,2393c0-53,10-126,48-152,0,0-43,15-50,41,0,0,2-54,34-66,0,0-41,9-46,42s-4,57-4,57-12-37-35-56c0,0,14,25,14,50,0,0-12-17-43-19,0,0,62,29,61,103Z" transform="translate(0 -1812)"/><path class="cls-5" d="M970,2393c0-53,10-126,48-152,0,0-43,15-50,41,0,0,2-54,34-66,0,0-41,9-46,42s-4,57-4,57-12-37-35-56c0,0,14,25,14,50,0,0-12-17-43-19,0,0,62,29,61,103Z" transform="translate(0 -1812)"/><rect class="cls-6" width="1125" height="581"/></svg>