<svg id="Layer_1" data-name="Layer 1" xmlns="http://www.w3.org/2000/svg" viewBox="0 0 1125 552"><defs><style>.cls-1{fill:#77bc77;}.cls-2{fill:#5aad60;}.cls-3{fill:#474747;}.cls-4{fill:#bababa;}.cls-5{fill:none;stroke:#bababa;stroke-linecap:round;stroke-linejoin:round;stroke-width:10px;}</style></defs><path class="cls-1" d="M1,1884c192,63,844,173,1124,168v384H0Z" transform="translate(0 -1884)"/><path class="cls-2" d="M0,2436V2140c73,20,1125-64,1125-88v384Z" transform="translate(0 -1884)"/><polygon class="cls-3" points="490 235 295 248 204 552 593 552 490 235"/><rect class="cls-4" x="490.91" y="234.29" width="13.1" height="255.41" rx="5"/><rect class="cls-4" x="498.12" y="2073.76" width="13.1" height="99.54" rx="5" transform="translate(-1654.94 -76.98) rotate(-68.29)"/><rect class="cls-4" x="491.57" y="476.6" width="149.31" height="13.1" rx="5"/><path class="cls-5" d="M498.12,2367.15c0-34.05-39.3-26.2-39.3-26.2" transform="translate(0 -1884)"/><path class="cls-5" d="M634.33,2367.15c0-34.05,47.16-35.36,55-10.48" transform="translate(0 -1884)"/><circle cx="663.15" cy="484.46" r="18.34"/><circle cx="467.99" cy="484.46" r="18.34"/></svg>