<svg id="Layer_1" data-name="Layer 1" xmlns="http://www.w3.org/2000/svg" viewBox="0 0 1126 552"><defs><style>.cls-1{fill:#cbd193;}.cls-2{fill:#bbbf73;}.cls-3{fill:#d0d86a;}.cls-4{fill:#62664b;}</style></defs><path class="cls-1" d="M1,1884c192.17,63,844.75,173,1125,168v384H0Z" transform="translate(0 -1884)"/><path class="cls-2" d="M1,2436V2141.54c73,19.9,1125-63.66,1125-87.54v382Z" transform="translate(0 -1884)"/><path class="cls-3" d="M304.65,2390.6c0-26.46-5-62.89-24-75.87,0,0,21.47,7.48,25,20.46,0,0-1-27-17-32.94,0,0,20.46,4.49,23,21a164.27,164.27,0,0,1,2,28.45s6-18.46,17.47-27.95c0,0-7,12.48-7,25,0,0,6-8.49,21.46-9.48,0,0-30.95,14.47-30.45,51.41Z" transform="translate(0 -1884)"/><path class="cls-3" d="M548.93,2377.85c0-15.6-2.94-37.08-14.12-44.73,0,0,12.65,4.41,14.71,12.06,0,0-.59-15.89-10-19.42,0,0,12.06,2.65,13.53,12.36a97.36,97.36,0,0,1,1.18,16.77s3.53-10.88,10.3-16.48c0,0-4.12,7.36-4.12,14.72,0,0,3.53-5,12.65-5.59,0,0-18.24,8.53-17.95,30.31Z" transform="translate(0 -1884)"/><path class="cls-3" d="M797.28,2390.6c0-29.34-5.54-69.74-26.57-84.13,0,0,23.8,8.3,27.67,22.69,0,0-1.1-29.89-18.81-36.53,0,0,22.69,5,25.46,23.25a183,183,0,0,1,2.21,31.54s6.64-20.47,19.37-31c0,0-7.75,13.84-7.75,27.67,0,0,6.65-9.41,23.8-10.51,0,0-34.31,16-33.76,57Z" transform="translate(0 -1884)"/><path class="cls-3" d="M722,2390.6c0-29.73,5.61-70.68,26.92-85.26,0,0-24.12,8.41-28,23,0,0,1.12-30.29,19.07-37,0,0-23,5-25.8,23.56a184.7,184.7,0,0,0-2.25,32s-6.73-20.76-19.63-31.41c0,0,7.85,14,7.85,28,0,0-6.73-9.53-24.11-10.65,0,0,34.77,16.26,34.21,57.77Z" transform="translate(0 -1884)"/><path class="cls-4" d="M644.82,2368.74c0-38.73,7.31-92.07,35.08-111.07,0,0-31.42,11-36.54,30,0,0,1.46-39.46,24.84-48.23,0,0-30,6.58-33.61,30.69a241.16,241.16,0,0,0-2.92,41.65s-8.77-27-25.58-40.92c0,0,10.23,18.27,10.23,36.54,0,0-8.76-12.42-31.42-13.89,0,0,45.31,21.2,44.58,75.27Z" transform="translate(0 -1884)"/><path class="cls-4" d="M894.39,2384.22c0-38.73,7.3-92.07,35.07-111.07,0,0-31.42,11-36.54,30,0,0,1.47-39.46,24.85-48.22,0,0-30,6.57-33.61,30.69a240.61,240.61,0,0,0-2.93,41.65s-8.77-27-25.57-40.92c0,0,10.23,18.26,10.23,36.53,0,0-8.77-12.42-31.42-13.88,0,0,45.3,21.19,44.57,75.26Z" transform="translate(0 -1884)"/><path class="cls-4" d="M454.09,2390.6c0-40.37,7.61-96,36.55-115.76,0,0-32.75,11.42-38.08,31.22,0,0,1.53-41.12,25.9-50.26,0,0-31.23,6.85-35,32a251.63,251.63,0,0,0-3,43.41s-9.14-28.17-26.66-42.64c0,0,10.66,19,10.66,38.07,0,0-9.13-12.94-32.74-14.47,0,0,47.21,22.09,46.45,78.45Z" transform="translate(0 -1884)"/><path class="cls-3" d="M390.25,2362.42c0-22.12,4.47-52.59,21.48-63.44,0,0-19.24,6.26-22.38,17.11,0,0,.9-22.54,15.22-27.54,0,0-18.35,3.75-20.59,17.52a129.3,129.3,0,0,0-1.79,23.79s-5.37-15.44-15.66-23.37c0,0,6.27,10.44,6.27,20.87,0,0-5.37-7.09-19.24-7.93,0,0,27.74,12.1,27.29,43Z" transform="translate(0 -1884)"/><path class="cls-4" d="M283.17,2349.61c0-32.45,5.75-77.16,27.58-93.08,0,0-24.7,9.19-28.73,25.11,0,0,1.15-33.07,19.54-40.42,0,0-23.56,5.52-26.43,25.72a215.59,215.59,0,0,0-2.3,34.91s-6.89-22.66-20.11-34.29c0,0,8,15.3,8,30.61,0,0-6.9-10.41-24.71-11.63,0,0,35.62,17.76,35.05,63.07Z" transform="translate(0 -1884)"/><path class="cls-4" d="M186,2390.6c0-20,3.79-47.67,18.16-57.51,0,0-16.26,5.68-18.91,15.51,0,0,.75-20.43,12.86-25,0,0-15.51,3.41-17.4,15.89a125.49,125.49,0,0,0-1.52,21.57s-4.54-14-13.24-21.19c0,0,5.3,9.46,5.3,18.92,0,0-4.54-6.43-16.27-7.19,0,0,23.46,11,23.08,39Z" transform="translate(0 -1884)"/><path class="cls-3" d="M945.1,2390.6c0-29.71,5.6-70.63,26.9-85.2,0,0-24.1,8.41-28,23,0,0,1.13-30.27,19.06-37,0,0-23,5-25.78,23.54a185,185,0,0,0-2.24,32s-6.73-20.74-19.62-31.39c0,0,7.85,14,7.85,28,0,0-6.73-9.53-24.11-10.65,0,0,34.76,16.25,34.2,57.73Z" transform="translate(0 -1884)"/></svg>