<svg id="Layer_1" data-name="Layer 1" xmlns="http://www.w3.org/2000/svg" viewBox="0 0 1126 611.55"><defs><style>.cls-1{fill:#77bc77;}.cls-2{fill:#5aad60;}.cls-3{fill:#474747;}.cls-4{fill:#9fa09f;}.cls-5{fill:#c14040;}.cls-6{fill:#8198c1;}.cls-7,.cls-8{fill:#ddd;}.cls-8{opacity:0.21;}.cls-9{fill:#757575;}.cls-10{fill:#f44545;}</style></defs><path class="cls-1" d="M1,1884c192,63,844,173,1124,168v384H0Z" transform="translate(0 -1824.45)"/><path class="cls-2" d="M1,2436V2141.54c73,19.9,1125-63.66,1125-87.54v382Z" transform="translate(0 -1824.45)"/><rect class="cls-3" y="493.55" width="1125" height="118"/><circle cx="385.04" cy="504.39" r="59.26"/><circle class="cls-4" cx="385.04" cy="504.39" r="41.97"/><circle cx="718.37" cy="504.39" r="59.26"/><circle class="cls-4" cx="718.37" cy="504.39" r="41.97"/><path class="cls-5" d="M322.5,2351.06s-68.45-29.18-55.15-77.36c14.13-51.17,58.44-161.31,75.72-166.25s214.81-12.35,251.85,0l89.7,89.71s133.33,2.47,149.79,18.1,22.23,119.34,0,125.93-52.67,7.4-52.67,7.4c36.21-76.54-130-153.9-133.33,2.47H452.53C464.88,2228.43,292,2235.84,322.5,2351.06Z" transform="translate(0 -1824.45)"/><polygon class="cls-6" points="598.37 286.44 684.63 372.7 673.1 372.7 590.8 286.29 598.37 286.44"/><polygon class="cls-6" points="569.4 286.29 637.71 372.7 455 372.7 455 286.29 569.4 286.29"/><path class="cls-6" d="M427,2110.74v86.42H325.79S339,2110.74,427,2110.74Z" transform="translate(0 -1824.45)"/><path class="cls-7" d="M224,2313c-.35,0-.69,0-1,0,0-.18,0-.36,0-.54a14.49,14.49,0,0,0-29-.75c-7,1.77-12,6.58-12,12.25,0,7.18,8.06,13,18,13a22,22,0,0,0,12.51-3.66A18.88,18.88,0,0,0,224,2337c8.84,0,16-5.37,16-12S232.84,2313,224,2313Z" transform="translate(0 -1824.45)"/><path class="cls-8" d="M580.79,2121.72c3.74,2.33,7.54,4.36,11.33,6.48-1.28,1.89-2.69,3.66-3.91,5.62-53.75,86.24-27.4,199.73,58.85,253.47,83.5,52,192.37,28.81,248-51,87.39,27.86,173.85,9.85,211.89-51.19,48.18-77.33.45-194.09-106.62-260.81-52.37-32.64-109.2-47.13-159.27-44.49-16.2-43.81-50.58-86.28-99.2-116.58-95.17-59.3-208.37-49.51-252.85,21.87S485.62,2062.42,580.79,2121.72Z" transform="translate(0 -1824.45)"/><path class="cls-8" d="M247.45,2159.94c4.14,1.5,8.28,2.7,12.42,4-.86,2.12-1.87,4.14-2.65,6.31-34.65,95.54,14.71,201.07,110.24,235.71,92.5,33.54,194.16-11.8,232-101.41,91.28,9.09,172.1-26.49,196.62-94.11,31.06-85.65-39.89-190-158.49-233-58-21-116.61-23.4-165-10.41-25-39.49-67.41-73.89-121.26-93.41-105.42-38.23-214.12-5.13-242.79,73.93S142,2121.71,247.45,2159.94Z" transform="translate(0 -1824.45)"/><path class="cls-7" d="M131.87,2292.45c-.41-.16-.81-.29-1.22-.43.07-.16.16-.32.22-.49,2.86-7.48-2.47-16.46-11.89-20.05-9.13-3.49-18.73-.63-21.92,6.35-8.88-1.49-16.52.74-18.54,6-2.56,6.71,4.85,15.76,16.55,20.23a33.11,33.11,0,0,0,16,2.19,28,28,0,0,0,12.22,8.58c10.39,4,20.74,2.17,23.1-4S142.27,2296.42,131.87,2292.45Z" transform="translate(0 -1824.45)"/><path class="cls-9" d="M279,2319H255.68c-3.8-2.52-3.34-15,0-17H269Z" transform="translate(0 -1824.45)"/><path class="cls-8" d="M1126,2144c-36.23-25.21-84.73-40.62-138-40.62-4.41,0-8.71.28-13,.49.08-2.29.35-4.53.35-6.84a184,184,0,0,0-184-184c-98.39,0-178.51,77.29-183.52,174.43C518.85,2110.05,455,2171.06,455,2243c0,91.11,102.26,165,228.41,165,61.72,0,117.61-17.76,158.71-46.48C879,2390.09,930.68,2408,988,2408c53.3,0,101.8-15.42,138-40.62Z" transform="translate(0 -1824.45)"/><path class="cls-8" d="M243,2083.4c-4.41,0-8.71.28-13,.49.08-2.29.35-4.53.35-6.84A184.09,184.09,0,0,0,0,1898.94v482.91c37-7.5,70.24-21.59,97.12-40.38C134,2370.09,185.68,2388,243,2388c112.13,0,203-68.18,203-152.28S355.1,2083.4,243,2083.4Z" transform="translate(0 -1824.45)"/><path class="cls-8" d="M491,2096.4c-4.41,0-8.71.28-13,.49.08-2.29.35-4.53.35-6.84a184,184,0,0,0-184-184c-98.39,0-178.51,77.29-183.52,174.43-45,11.43-83.63,32.72-110.76,60.3v190.55C41.38,2373.46,109.45,2401,186.41,2401c61.72,0,117.61-17.76,158.71-46.48C382,2383.09,433.68,2401,491,2401c112.13,0,203-68.18,203-152.28S603.1,2096.4,491,2096.4Z" transform="translate(0 -1824.45)"/><path class="cls-7" d="M1047,2362.88l24.15-98a12,12,0,1,0-23.3-5.75l-24.15,98a26,26,0,1,0,23.3,5.74Z" transform="translate(0 -1824.45)"/><path class="cls-10" d="M1038.09,2369.82l23.76-96.42a4.5,4.5,0,0,0-8.74-2.16l-23.69,96.15a16,16,0,1,0,8.67,2.43Z" transform="translate(0 -1824.45)"/></svg>