<svg id="Layer_1" data-name="Layer 1" xmlns="http://www.w3.org/2000/svg" viewBox="0 0 1126 552"><defs><style>.cls-1{fill:#77bc77;}.cls-2{fill:#5aad60;}.cls-3{fill:#474747;}.cls-4{fill:#419fe5;}.cls-5{fill:#3195d3;}.cls-6{fill:#fff;fill-rule:evenodd;}.cls-7{fill:#dbdbdb;}.cls-8{fill:#a09d8a;}</style></defs><path class="cls-1" d="M1,1884c192,63,844,173,1124,168v384H0Z" transform="translate(0 -1884)"/><path class="cls-2" d="M1,2436V2141.54c73,19.9,1125-63.66,1125-87.54v382Z" transform="translate(0 -1884)"/><rect class="cls-3" y="434" width="1125" height="118"/><rect class="cls-4" x="185.48" y="219" width="161.21" height="230" rx="12"/><rect class="cls-5" x="183" y="210" width="167" height="9" rx="4.5"/><rect x="170" y="394" width="27" height="73" rx="13.5"/><rect x="337" y="394" width="27" height="73" rx="13.5"/><path class="cls-6" d="M241.86,2192.8a4.56,4.56,0,0,0-.33,3.72l-9.34-16.06A2.79,2.79,0,0,1,232,2177l4.79-8.22-5-2.95h16.07l8.17,14-5-2.89-9.18,15.9Z" transform="translate(0 -1884)"/><path class="cls-6" d="M250.53,2203.75c-7.17-.73-8.56-8.06-7.33-10.34l3.44-5.95h17.79v16.34H250.87l-.34-.05Z" transform="translate(0 -1884)"/><path class="cls-6" d="M295,2187.51a4.64,4.64,0,0,0,3.39-1.55L289.17,2202c-.78,1.73-1.84,2-2.95,1.89h-9.5l-.06,5.78-8-13.89,8.06-14.07v5.78Z" transform="translate(0 -1884)"/><path class="cls-6" d="M300.17,2174.51c2.95,6.56-2.72,11.45-5.28,11.5H288l-8.84-15.39,14.12-8.17,6.78,11.72.11.34Z" transform="translate(0 -1884)"/><path class="cls-6" d="M263.82,2144.16a4.39,4.39,0,0,0-3-2.11l18.45-.06c1.89-.17,2.67.56,3.17,1.61l4.73,8.23,5-2.89-8,13.95L268,2163l4.95-2.89-9.12-15.9Z" transform="translate(0 -1884)"/><path class="cls-6" d="M250,2146.21c4.22-5.83,11.28-3.39,12.62-1.16L266,2151l-8.89,15.39L243,2158.22l6.78-11.73.17-.28Z" transform="translate(0 -1884)"/><rect class="cls-7" x="503" y="459" width="329" height="22" rx="11"/><path class="cls-8" d="M815.84,2356H519.16c-6.88,0-6.88-13,0-13H815.84C822.72,2343,822.72,2356,815.84,2356Z" transform="translate(0 -1884)"/><circle cx="547" cy="497" r="16"/><circle cx="787" cy="497" r="16"/></svg>