<svg xmlns="http://www.w3.org/2000/svg" xmlns:xlink="http://www.w3.org/1999/xlink" width="38" height="503" viewBox="0 0 38 503">
  <defs>
    <filter id="Subtraction_1" x="0" y="0" width="38" height="503" filterUnits="userSpaceOnUse">
      <feOffset dy="3" input="SourceAlpha"/>
      <feGaussianBlur stdDeviation="3" result="blur"/>
      <feFlood flood-opacity="0.161"/>
      <feComposite operator="in" in2="blur"/>
      <feComposite in="SourceGraphic"/>
    </filter>
  </defs>
  <g transform="matrix(1, 0, 0, 1, 0, 0)" filter="url(#Subtraction_1)">
    <path id="Subtraction_1-2" data-name="Subtraction 1" d="M-1051,532.5V47.5a25.065,25.065,0,0,1,14.279,8.583,24.906,24.906,0,0,1,4.2,7.312A24.92,24.92,0,0,1-1031,72V508a24.922,24.922,0,0,1-1.52,8.605,24.906,24.906,0,0,1-4.2,7.312A25.065,25.065,0,0,1-1051,532.5Z" transform="translate(1060 -41.5)" fill="#fff"/>
  </g>
</svg>
