<svg xmlns="http://www.w3.org/2000/svg" xmlns:xlink="http://www.w3.org/1999/xlink" width="78" height="503" viewBox="0 0 78 503">
  <defs>
    <filter id="Subtraction_4" x="40" y="85.189" width="38" height="332.901" filterUnits="userSpaceOnUse">
      <feOffset dy="3" input="SourceAlpha"/>
      <feGaussianBlur stdDeviation="3" result="blur"/>
      <feFlood flood-opacity="0.161"/>
      <feComposite operator="in" in2="blur"/>
      <feComposite in="SourceGraphic"/>
    </filter>
    <filter id="Subtraction_3" x="20" y="42.081" width="38" height="418.057" filterUnits="userSpaceOnUse">
      <feOffset dy="3" input="SourceAlpha"/>
      <feGaussianBlur stdDeviation="3" result="blur-2"/>
      <feFlood flood-opacity="0.161"/>
      <feComposite operator="in" in2="blur-2"/>
      <feComposite in="SourceGraphic"/>
    </filter>
    <filter id="Subtraction_1" x="0" y="0" width="38" height="503" filterUnits="userSpaceOnUse">
      <feOffset dy="3" input="SourceAlpha"/>
      <feGaussianBlur stdDeviation="3" result="blur-3"/>
      <feFlood flood-opacity="0.161"/>
      <feComposite operator="in" in2="blur-3"/>
      <feComposite in="SourceGraphic"/>
    </filter>
  </defs>
  <g id="Group_48" data-name="Group 48" transform="translate(9 -157.5)">
    <g transform="matrix(1, 0, 0, 1, -9, 157.5)" filter="url(#Subtraction_4)">
      <path id="Subtraction_4-2" data-name="Subtraction 4" d="M-1051,362.59V47.689a25.066,25.066,0,0,1,14.279,8.583,24.907,24.907,0,0,1,4.2,7.312,24.921,24.921,0,0,1,1.52,8.6v265.9a24.921,24.921,0,0,1-1.52,8.6,24.908,24.908,0,0,1-4.2,7.312A25.066,25.066,0,0,1-1051,362.589Z" transform="translate(1100 43.5)" fill="#fff"/>
    </g>
    <g transform="matrix(1, 0, 0, 1, -9, 157.5)" filter="url(#Subtraction_3)">
      <path id="Subtraction_3-2" data-name="Subtraction 3" d="M-1051,447.638V47.581a25.064,25.064,0,0,1,14.279,8.583,24.905,24.905,0,0,1,4.2,7.312,24.92,24.92,0,0,1,1.52,8.6V423.138a24.92,24.92,0,0,1-1.52,8.6,24.907,24.907,0,0,1-4.2,7.312A25.065,25.065,0,0,1-1051,447.638Z" transform="translate(1080 0.5)" fill="#fff"/>
    </g>
    <g transform="matrix(1, 0, 0, 1, -9, 157.5)" filter="url(#Subtraction_1)">
      <path id="Subtraction_1-2" data-name="Subtraction 1" d="M-1051,532.5V47.5a25.065,25.065,0,0,1,14.279,8.583,24.906,24.906,0,0,1,4.2,7.312A24.92,24.92,0,0,1-1031,72V508a24.922,24.922,0,0,1-1.52,8.605,24.906,24.906,0,0,1-4.2,7.312A25.065,25.065,0,0,1-1051,532.5Z" transform="translate(1060 -41.5)" fill="#fff"/>
    </g>
  </g>
</svg>
