<svg xmlns="http://www.w3.org/2000/svg" xmlns:xlink="http://www.w3.org/1999/xlink" width="32" height="32" viewBox="0 0 32 32">
  <defs>
    <filter id="Subtraction_6" x="0" y="0" width="32" height="32" filterUnits="userSpaceOnUse">
      <feOffset dy="3" input="SourceAlpha"/>
      <feGaussianBlur stdDeviation="2" result="blur"/>
      <feFlood flood-opacity="0.161"/>
      <feComposite operator="in" in2="blur"/>
      <feComposite in="SourceGraphic"/>
    </filter>
  </defs>
  <g id="Group_43" data-name="Group 43" transform="translate(-68 -349.033)">
    <circle id="Ellipse_27" data-name="Ellipse 27" cx="7" cy="7" r="7" transform="translate(77 355.033)" fill="#46c75f"/>
    <g transform="matrix(1, 0, 0, 1, 68, 349.03)" filter="url(#Subtraction_6)">
      <path id="Subtraction_6-2" data-name="Subtraction 6" d="M10,20A10,10,0,0,1,2.929,2.929,10,10,0,0,1,17.071,17.071,9.935,9.935,0,0,1,10,20ZM10,3.334A6.667,6.667,0,1,0,16.667,10,6.674,6.674,0,0,0,10,3.334Z" transform="translate(6 3)" fill="#fff"/>
    </g>
  </g>
</svg>
