<svg id="Layer_1" data-name="Layer 1" xmlns="http://www.w3.org/2000/svg" viewBox="0 0 1129.32 552"><defs><style>.cls-1{fill:#77bc77;}.cls-2{fill:#79c97d;}.cls-3{fill:#aaa;}.cls-4{fill:#fdfffd;}.cls-4,.cls-6{stroke:#b7b7b7;stroke-miterlimit:10;stroke-width:2px;}.cls-5{fill:#474747;}.cls-6{fill:#c7e7ff;}.cls-7{fill:#a8a8a8;opacity:0.26;}</style></defs><path class="cls-1" d="M1,0C193,63,845,173,1125,168V552H0Z"/><path class="cls-2" d="M0,552V256c73,20,1125-64,1125-88V552Z"/><rect class="cls-3" x="235" y="400" width="318" height="37"/><rect class="cls-4" x="235" y="371" width="318" height="29"/><rect class="cls-4" x="235" y="342" width="318" height="29"/><rect class="cls-4" x="235" y="313" width="318" height="29"/><rect class="cls-4" x="235" y="313" width="318" height="29"/><rect class="cls-4" x="235" y="284" width="318" height="29"/><rect class="cls-4" x="235" y="255" width="318" height="29"/><rect class="cls-4" x="235" y="226" width="318" height="29"/><rect class="cls-4" x="235" y="197" width="318" height="29"/><polygon class="cls-5" points="394 105 570.46 197 394.5 197 218.54 197 394 105"/><rect class="cls-6" x="348" y="226" width="92" height="116"/><path class="cls-7" d="M449.91,402.59c7.8-10.18,12.12-21.36,12.12-33.09,0-47.22-69.86-85.5-156-85.5-54,0-101.5,15-129.52,37.81C91.89,333.18,29.14,375,29.14,424.84c0,58.59,86.69,106.09,193.62,106.09,40.22,0,77.57-6.72,108.53-18.22C353.08,524.63,383.16,532,416.38,532c66.52,0,120.45-29.55,120.45-66C536.83,435.92,500.11,410.55,449.91,402.59Z"/><path class="cls-7" d="M860.76,402.59c7.81-10.18,12.13-21.36,12.13-33.09,0-47.22-69.86-85.5-156-85.5-54,0-101.5,15-129.52,37.81C502.75,333.18,440,375,440,424.84c0,58.59,86.69,106.09,193.62,106.09,40.22,0,77.57-6.72,108.52-18.22C763.93,524.63,794,532,827.24,532c66.52,0,120.45-29.55,120.45-66C947.69,435.92,911,410.55,860.76,402.59Z"/><path class="cls-7" d="M1042.4,406.77c7.8-10.18,12.12-21.36,12.12-33.1,0-47.22-69.86-85.5-156-85.5-54,0-101.5,15-129.52,37.81-84.58,11.37-147.33,53.18-147.33,103,0,58.59,86.69,106.09,193.62,106.09,40.22,0,77.57-6.72,108.53-18.22,21.79,11.92,51.87,19.29,85.09,19.29,66.52,0,120.45-29.55,120.45-66C1129.32,440.1,1092.6,414.72,1042.4,406.77Z"/><path class="cls-7" d="M639.3,402.59c7.81-10.18,12.13-21.36,12.13-33.09,0-47.22-69.86-85.5-156-85.5-53.95,0-101.5,15-129.52,37.81-84.58,11.37-147.33,53.18-147.33,103,0,58.59,86.69,106.09,193.62,106.09,40.22,0,77.57-6.72,108.52-18.22,21.79,11.92,51.88,19.29,85.1,19.29,66.52,0,120.45-29.55,120.45-66C726.23,435.92,689.51,410.55,639.3,402.59Z"/><path class="cls-7" d="M814.76,264.09c7.81-10.18,12.13-21.36,12.13-33.09,0-47.22-69.86-85.5-156-85.5-54,0-101.5,15-129.52,37.81C456.75,194.68,394,236.49,394,286.34c0,58.59,86.69,106.09,193.62,106.09,40.22,0,77.57-6.72,108.52-18.22,21.79,11.92,51.88,19.29,85.1,19.29,66.52,0,120.45-29.55,120.45-66C901.69,297.42,865,272.05,814.76,264.09Z"/><path class="cls-7" d="M944.25,191.59c7.8-10.18,12.12-21.36,12.12-33.09,0-47.22-69.86-85.5-156-85.5-53.94,0-101.49,15-129.52,37.81-84.58,11.37-147.33,53.18-147.33,103,0,58.59,86.69,106.09,193.62,106.09,40.22,0,77.57-6.72,108.53-18.22C847.42,313.63,877.5,321,910.72,321c66.52,0,120.45-29.55,120.45-66C1031.17,224.92,994.46,199.55,944.25,191.59Z"/><path class="cls-7" d="M524.35,183.59c7.81-10.18,12.12-21.36,12.12-33.09,0-47.22-69.86-85.5-156-85.5-53.95,0-101.5,15-129.52,37.81-84.58,11.37-147.33,53.18-147.33,103,0,58.59,86.68,106.09,193.62,106.09,40.21,0,77.57-6.72,108.52-18.22C427.52,305.63,457.6,313,490.82,313c66.53,0,120.45-29.55,120.45-66C611.27,216.92,574.56,191.55,524.35,183.59Z"/><path class="cls-7" d="M539.31,304.51c7.8-10.18,12.12-21.36,12.12-33.09,0-47.22-69.86-85.5-156-85.5-53.94,0-101.49,15-129.52,37.81-84.57,11.37-147.33,53.18-147.33,103,0,58.59,86.69,106.09,193.62,106.09,40.22,0,77.57-6.72,108.53-18.22,21.79,11.92,51.87,19.29,85.09,19.29,66.53,0,120.45-29.55,120.45-66C626.23,337.84,589.52,312.47,539.31,304.51Z"/></svg>