<svg id="Layer_1" data-name="Layer 1" xmlns="http://www.w3.org/2000/svg" viewBox="0 0 1125 552"><defs><style>.cls-1{fill:#77bc77;}.cls-2{fill:#5aad60;}.cls-3{fill:#474747;}.cls-4{fill:#3b859b;}.cls-5{fill:#afafaf;}.cls-6{fill:#468c4a;}.cls-7{fill:#4aa84c;}.cls-8{fill:#4f8e4f;}.cls-9{fill:#5e593a;}.cls-10{fill:#686868;}</style></defs><path class="cls-1" d="M1,1884c192,63,844,173,1124,168v384H0Z" transform="translate(0 -1884)"/><path class="cls-2" d="M0,2436V2140c73,20,1125-64,1125-88v384Z" transform="translate(0 -1884)"/><rect class="cls-2" x="712.75" y="395" width="12" height="95" rx="6"/><polygon class="cls-3" points="490 235 295 248 204 552 593 552 490 235"/><polygon class="cls-4" points="818 532 646 532 620 467 776 467 818 532"/><rect class="cls-5" x="620" y="467" width="171" height="23"/><path class="cls-3" d="M778.34,2345.36l-163.41-.14c-5.93,0-9.7,3.19-8.35,7.14l20.2,59c1.63,4.74,8.38,8.67,15,8.67h182c6.58,0,9.52-3.92,6.56-8.65l-36.79-58.86C791.09,2348.55,784.26,2345.36,778.34,2345.36ZM658.13,2409.2c.91,2.35-1,4.28-4.3,4.28s-6.67-1.93-7.54-4.28l-20.17-54.42c-.74-2,1.11-3.61,4.1-3.61s6.08,1.63,6.85,3.62Zm25.16,0c1,2.35-.88,4.28-4.15,4.28s-6.74-1.93-7.69-4.28l-22.07-54.4c-.81-2,1-3.61,4-3.61s6.12,1.63,7,3.62Zm25.14,0c1.07,2.34-.72,4.28-4,4.28s-6.8-1.94-7.83-4.28l-24-54.39c-.88-2,.85-3.61,3.84-3.61s6.18,1.62,7.09,3.62Zm25.12,0c1.16,2.35-.57,4.28-3.84,4.28s-6.86-1.93-8-4.28l-25.86-54.38c-1-2,.72-3.61,3.71-3.61s6.24,1.63,7.22,3.62Zm25.12,0c1.23,2.35-.42,4.28-3.69,4.28s-6.93-1.93-8.13-4.28l-27.76-54.36c-1-2,.6-3.61,3.59-3.61s6.29,1.63,7.34,3.62Zm25.1,0c1.32,2.34-.27,4.27-3.54,4.27s-7-1.93-8.27-4.28l-29.66-54.34c-1.08-2,.48-3.61,3.46-3.61s6.34,1.62,7.46,3.61Zm25.08,0c1.4,2.34-.12,4.27-3.38,4.27s-7.06-1.93-8.42-4.27l-31.54-54.34c-1.16-2,.34-3.61,3.33-3.6s6.39,1.62,7.58,3.61Z" transform="translate(0 -1884)"/><path class="cls-6" d="M822.25,2294.82A18.24,18.24,0,0,1,809.78,2277c0-14.25,0-14.25-1.78-16C808,2261,838.28,2271.66,822.25,2294.82Z" transform="translate(0 -1884)"/><path class="cls-7" d="M818.68,2308.47a18.23,18.23,0,0,1,4.58-21.26c10.44-9.69,10.44-9.69,10.54-12.21C833.8,2275,846.56,2304.47,818.68,2308.47Z" transform="translate(0 -1884)"/><path class="cls-8" d="M808.35,2304.91a18.23,18.23,0,0,0-4.58-21.26c-10.45-9.69-10.45-9.69-10.54-12.21C793.23,2271.44,780.47,2300.91,808.35,2304.91Z" transform="translate(0 -1884)"/><path class="cls-6" d="M807.26,2313.43a18.22,18.22,0,0,1-11.76-18.29c.56-14.24.56-14.24-1.15-16.09C794.35,2279.05,824.19,2290.92,807.26,2313.43Z" transform="translate(0 -1884)"/><path class="cls-7" d="M803.16,2326.93a18.22,18.22,0,0,1,5.41-21.06c10.81-9.27,10.81-9.27,11-11.79C819.58,2294.08,831.17,2324,803.16,2326.93Z" transform="translate(0 -1884)"/><path class="cls-8" d="M793,2323a18.24,18.24,0,0,0-3.74-21.42c-10.06-10.1-10.06-10.1-10.06-12.62C779.18,2288.93,765.27,2317.88,793,2323Z" transform="translate(0 -1884)"/><path class="cls-6" d="M780.94,2300.62a18.22,18.22,0,0,1-12.47-17.81c0-14.25,0-14.25-1.78-16C766.69,2266.78,797,2277.47,780.94,2300.62Z" transform="translate(0 -1884)"/><path class="cls-7" d="M784.31,2314.09a18.22,18.22,0,0,1,0-21.74c8.17-11.68,8.17-11.68,7.73-14.16C792,2278.19,810.72,2304.31,784.31,2314.09Z" transform="translate(0 -1884)"/><path class="cls-8" d="M829.39,2317.84a18.21,18.21,0,0,0-4.58-21.25c-10.44-9.7-10.44-9.7-10.54-12.21C814.27,2284.38,801.51,2313.84,829.39,2317.84Z" transform="translate(0 -1884)"/><path class="cls-6" d="M768.47,2322A18.22,18.22,0,0,1,756,2304.19c0-14.25,0-14.25-1.78-16C754.22,2288.15,784.51,2298.84,768.47,2322Z" transform="translate(0 -1884)"/><path class="cls-7" d="M791.62,2291.12a18.21,18.21,0,0,1,4.58-21.25c10.45-9.7,10.45-9.7,10.54-12.21C806.74,2257.66,819.5,2287.12,791.62,2291.12Z" transform="translate(0 -1884)"/><path class="cls-8" d="M793.76,2292.9a18.22,18.22,0,0,0-4.57-21.25c-10.45-9.7-10.45-9.7-10.54-12.21C778.65,2259.44,765.88,2288.91,793.76,2292.9Z" transform="translate(0 -1884)"/><path class="cls-6" d="M884.53,2298.19a18.22,18.22,0,0,1-12.47-17.81c0-14.26,0-14.26-1.78-16C870.28,2264.34,900.56,2275,884.53,2298.19Z" transform="translate(0 -1884)"/><path class="cls-7" d="M881,2311.85a18.23,18.23,0,0,1,4.58-21.26c10.45-9.69,10.45-9.69,10.54-12.21C896.08,2278.38,908.84,2307.85,881,2311.85Z" transform="translate(0 -1884)"/><path class="cls-8" d="M870.63,2308.28a18.22,18.22,0,0,0-4.57-21.25c-10.45-9.7-10.45-9.7-10.54-12.21C855.52,2274.82,842.75,2304.28,870.63,2308.28Z" transform="translate(0 -1884)"/><path class="cls-6" d="M869.55,2316.8a18.24,18.24,0,0,1-11.77-18.29c.56-14.24.56-14.24-1.15-16.09C856.63,2282.42,886.47,2294.29,869.55,2316.8Z" transform="translate(0 -1884)"/><path class="cls-7" d="M865.44,2330.31a18.22,18.22,0,0,1,5.41-21.06c10.82-9.28,10.82-9.28,11-11.79C881.86,2297.46,893.46,2327.4,865.44,2330.31Z" transform="translate(0 -1884)"/><path class="cls-8" d="M855.26,2326.34a18.22,18.22,0,0,0-3.74-21.42c-10.06-10.09-10.06-10.09-10-12.61C841.47,2292.31,827.56,2321.25,855.26,2326.34Z" transform="translate(0 -1884)"/><path class="cls-6" d="M843.23,2304a18.24,18.24,0,0,1-12.47-17.82c0-14.25,0-14.25-1.78-16C829,2270.15,859.26,2280.84,843.23,2304Z" transform="translate(0 -1884)"/><path class="cls-7" d="M846.59,2317.46a18.22,18.22,0,0,1,0-21.74c8.17-11.68,8.17-11.68,7.73-14.16C854.32,2281.56,873,2307.68,846.59,2317.46Z" transform="translate(0 -1884)"/><path class="cls-8" d="M891.68,2321.22A18.23,18.23,0,0,0,887.1,2300c-10.45-9.69-10.45-9.69-10.54-12.21C876.56,2287.75,863.8,2317.22,891.68,2321.22Z" transform="translate(0 -1884)"/><path class="cls-6" d="M830.76,2325.37a18.22,18.22,0,0,1-12.47-17.81c0-14.25,0-14.25-1.78-16C816.51,2291.53,846.79,2302.22,830.76,2325.37Z" transform="translate(0 -1884)"/><path class="cls-7" d="M853.91,2294.5a18.23,18.23,0,0,1,4.58-21.26c10.44-9.69,10.44-9.69,10.54-12.21C869,2261,881.79,2290.5,853.91,2294.5Z" transform="translate(0 -1884)"/><path class="cls-8" d="M856.05,2296.28a18.23,18.23,0,0,0-4.58-21.26c-10.45-9.69-10.45-9.69-10.54-12.21C840.93,2262.81,828.17,2292.28,856.05,2296.28Z" transform="translate(0 -1884)"/><path class="cls-6" d="M852.47,2264.34A18.22,18.22,0,0,1,840,2246.53c0-14.25,0-14.25-1.78-16C838.22,2230.5,868.5,2241.19,852.47,2264.34Z" transform="translate(0 -1884)"/><path class="cls-7" d="M848.9,2278a18.23,18.23,0,0,1,4.58-21.26c10.44-9.69,10.44-9.69,10.54-12.21C864,2244.53,876.78,2274,848.9,2278Z" transform="translate(0 -1884)"/><path class="cls-8" d="M838.57,2274.44a18.23,18.23,0,0,0-4.58-21.26c-10.44-9.69-10.44-9.69-10.54-12.21C823.45,2241,810.69,2270.44,838.57,2274.44Z" transform="translate(0 -1884)"/><path class="cls-6" d="M837.48,2283a18.22,18.22,0,0,1-11.76-18.29c.56-14.24.56-14.24-1.15-16.09C824.57,2248.58,854.41,2260.44,837.48,2283Z" transform="translate(0 -1884)"/><path class="cls-7" d="M833.38,2296.46a18.22,18.22,0,0,1,5.41-21.06c10.81-9.28,10.81-9.28,11-11.79C849.8,2263.61,861.4,2293.56,833.38,2296.46Z" transform="translate(0 -1884)"/><path class="cls-8" d="M823.2,2292.5a18.22,18.22,0,0,0-3.74-21.42c-10.06-10.1-10.06-10.1-10.06-12.62C809.4,2258.46,795.49,2287.41,823.2,2292.5Z" transform="translate(0 -1884)"/><path class="cls-6" d="M811.16,2270.15a18.22,18.22,0,0,1-12.47-17.81c0-14.25,0-14.25-1.78-16C796.91,2236.31,827.2,2247,811.16,2270.15Z" transform="translate(0 -1884)"/><path class="cls-7" d="M814.53,2283.62a18.23,18.23,0,0,1,0-21.75c8.17-11.67,8.17-11.67,7.73-14.15C822.25,2247.72,840.94,2273.83,814.53,2283.62Z" transform="translate(0 -1884)"/><path class="cls-8" d="M859.61,2287.37a18.23,18.23,0,0,0-4.58-21.26c-10.44-9.69-10.44-9.69-10.54-12.21C844.49,2253.9,831.73,2283.37,859.61,2287.37Z" transform="translate(0 -1884)"/><path class="cls-6" d="M798.69,2291.53a18.24,18.24,0,0,1-12.47-17.82c0-14.25,0-14.25-1.78-16C784.44,2257.68,814.73,2268.37,798.69,2291.53Z" transform="translate(0 -1884)"/><path class="cls-7" d="M821.84,2260.65a18.24,18.24,0,0,1,4.58-21.26c10.45-9.69,10.45-9.69,10.54-12.21C837,2227.18,849.73,2256.65,821.84,2260.65Z" transform="translate(0 -1884)"/><path class="cls-8" d="M824,2262.43a18.23,18.23,0,0,0-4.57-21.26c-10.45-9.69-10.45-9.69-10.54-12.21C808.87,2229,796.1,2258.43,824,2262.43Z" transform="translate(0 -1884)"/><path class="cls-6" d="M948,2299a18.22,18.22,0,0,1-12.47-17.81c0-14.25,0-14.25-1.78-16C933.75,2265.2,964,2275.88,948,2299Z" transform="translate(0 -1884)"/><path class="cls-7" d="M944.44,2312.7a18.23,18.23,0,0,1,4.57-21.26c10.45-9.69,10.45-9.69,10.54-12.21C959.55,2279.23,972.32,2308.7,944.44,2312.7Z" transform="translate(0 -1884)"/><path class="cls-8" d="M934.1,2309.14a18.23,18.23,0,0,0-4.57-21.26c-10.45-9.69-10.45-9.69-10.54-12.21C919,2275.67,906.22,2305.14,934.1,2309.14Z" transform="translate(0 -1884)"/><path class="cls-6" d="M933,2317.65a18.24,18.24,0,0,1-11.77-18.29c.56-14.24.56-14.24-1.15-16.09C920.1,2283.27,949.94,2295.14,933,2317.65Z" transform="translate(0 -1884)"/><path class="cls-7" d="M928.91,2331.16a18.22,18.22,0,0,1,5.41-21.06c10.82-9.28,10.82-9.28,11-11.79C945.33,2298.31,956.93,2328.26,928.91,2331.16Z" transform="translate(0 -1884)"/><path class="cls-8" d="M918.73,2327.19a18.22,18.22,0,0,0-3.74-21.42c-10.06-10.09-10.06-10.09-10-12.61C904.94,2293.16,891,2322.11,918.73,2327.19Z" transform="translate(0 -1884)"/><path class="cls-6" d="M906.7,2304.85A18.22,18.22,0,0,1,894.23,2287c0-14.26,0-14.26-1.78-16C892.45,2271,922.73,2281.69,906.7,2304.85Z" transform="translate(0 -1884)"/><path class="cls-7" d="M910.06,2318.32a18.24,18.24,0,0,1,0-21.75c8.17-11.68,8.17-11.68,7.73-14.16C917.79,2282.41,936.47,2308.53,910.06,2318.32Z" transform="translate(0 -1884)"/><path class="cls-8" d="M955.15,2322.07a18.23,18.23,0,0,0-4.58-21.26c-10.45-9.69-10.45-9.69-10.54-12.21C940,2288.6,927.27,2318.07,955.15,2322.07Z" transform="translate(0 -1884)"/><path class="cls-6" d="M894.23,2326.23a18.24,18.24,0,0,1-12.47-17.82c0-14.25,0-14.25-1.78-16C880,2292.38,910.26,2303.07,894.23,2326.23Z" transform="translate(0 -1884)"/><path class="cls-7" d="M917.38,2295.35a18.23,18.23,0,0,1,4.58-21.26c10.44-9.69,10.44-9.69,10.54-12.21C932.5,2261.88,945.26,2291.35,917.38,2295.35Z" transform="translate(0 -1884)"/><path class="cls-8" d="M919.52,2297.13a18.23,18.23,0,0,0-4.58-21.26c-10.44-9.69-10.44-9.69-10.54-12.21C904.4,2263.66,891.64,2293.13,919.52,2297.13Z" transform="translate(0 -1884)"/><path class="cls-6" d="M1010.29,2302.41a18.22,18.22,0,0,1-12.47-17.81c0-14.25,0-14.25-1.78-16C996,2268.57,1026.32,2279.26,1010.29,2302.41Z" transform="translate(0 -1884)"/><path class="cls-7" d="M1006.72,2316.07a18.23,18.23,0,0,1,4.58-21.26c10.44-9.69,10.44-9.69,10.54-12.21C1021.84,2282.6,1034.6,2312.07,1006.72,2316.07Z" transform="translate(0 -1884)"/><path class="cls-8" d="M996.39,2312.51a18.23,18.23,0,0,0-4.58-21.26c-10.44-9.69-10.44-9.69-10.54-12.21C981.27,2279,968.51,2308.51,996.39,2312.51Z" transform="translate(0 -1884)"/><path class="cls-6" d="M995.3,2321a18.22,18.22,0,0,1-11.76-18.29c.56-14.24.56-14.24-1.15-16.09C982.39,2286.65,1012.23,2298.52,995.3,2321Z" transform="translate(0 -1884)"/><path class="cls-7" d="M991.2,2334.53a18.22,18.22,0,0,1,5.41-21.06c10.82-9.27,10.82-9.27,11-11.79C1007.62,2301.68,1019.22,2331.63,991.2,2334.53Z" transform="translate(0 -1884)"/><path class="cls-8" d="M981,2330.57a18.22,18.22,0,0,0-3.74-21.42c-10.06-10.1-10.06-10.1-10.06-12.62C967.22,2296.53,953.31,2325.48,981,2330.57Z" transform="translate(0 -1884)"/><path class="cls-6" d="M969,2308.22a18.22,18.22,0,0,1-12.47-17.81c0-14.25,0-14.25-1.78-16C954.73,2274.38,985,2285.07,969,2308.22Z" transform="translate(0 -1884)"/><path class="cls-7" d="M972.35,2321.69a18.23,18.23,0,0,1,0-21.75c8.17-11.67,8.17-11.67,7.73-14.15C980.07,2285.79,998.76,2311.91,972.35,2321.69Z" transform="translate(0 -1884)"/><path class="cls-8" d="M1017.43,2325.44a18.23,18.23,0,0,0-4.58-21.26c-10.44-9.69-10.44-9.69-10.54-12.21C1002.31,2292,989.55,2321.44,1017.43,2325.44Z" transform="translate(0 -1884)"/><path class="cls-6" d="M956.51,2329.6A18.22,18.22,0,0,1,944,2311.79c0-14.26,0-14.26-1.78-16C942.26,2295.75,972.55,2306.44,956.51,2329.6Z" transform="translate(0 -1884)"/><path class="cls-7" d="M979.67,2298.72a18.23,18.23,0,0,1,4.57-21.26c10.45-9.69,10.45-9.69,10.54-12.21C994.78,2265.25,1007.55,2294.72,979.67,2298.72Z" transform="translate(0 -1884)"/><path class="cls-8" d="M981.8,2300.5a18.22,18.22,0,0,0-4.57-21.25c-10.45-9.7-10.45-9.7-10.54-12.21C966.69,2267,953.92,2296.5,981.8,2300.5Z" transform="translate(0 -1884)"/><path class="cls-6" d="M978.22,2268.57a18.22,18.22,0,0,1-12.47-17.81c0-14.26,0-14.26-1.78-16C964,2234.72,994.26,2245.41,978.22,2268.57Z" transform="translate(0 -1884)"/><path class="cls-7" d="M974.66,2282.23a18.23,18.23,0,0,1,4.57-21.26c10.45-9.69,10.45-9.69,10.54-12.21C989.77,2248.76,1002.54,2278.23,974.66,2282.23Z" transform="translate(0 -1884)"/><path class="cls-8" d="M964.33,2278.66a18.23,18.23,0,0,0-4.58-21.25c-10.45-9.7-10.45-9.7-10.54-12.21C949.21,2245.2,936.44,2274.66,964.33,2278.66Z" transform="translate(0 -1884)"/><path class="cls-6" d="M963.24,2287.18a18.22,18.22,0,0,1-11.76-18.29c.55-14.24.55-14.24-1.16-16.09C950.32,2252.8,980.16,2264.67,963.24,2287.18Z" transform="translate(0 -1884)"/><path class="cls-7" d="M959.14,2300.69a18.21,18.21,0,0,1,5.4-21.06c10.82-9.28,10.82-9.28,11-11.79C975.55,2267.84,987.15,2297.78,959.14,2300.69Z" transform="translate(0 -1884)"/><path class="cls-8" d="M949,2296.72a18.22,18.22,0,0,0-3.74-21.42c-10.06-10.09-10.06-10.09-10.05-12.61C935.16,2262.69,921.25,2291.63,949,2296.72Z" transform="translate(0 -1884)"/><path class="cls-6" d="M936.92,2274.38a18.24,18.24,0,0,1-12.47-17.82c0-14.25,0-14.25-1.78-16C922.67,2240.53,953,2251.22,936.92,2274.38Z" transform="translate(0 -1884)"/><path class="cls-7" d="M940.28,2287.84a18.22,18.22,0,0,1,0-21.74c8.17-11.68,8.17-11.68,7.73-14.16C948,2251.94,966.69,2278.06,940.28,2287.84Z" transform="translate(0 -1884)"/><path class="cls-8" d="M985.37,2291.6a18.23,18.23,0,0,0-4.58-21.26c-10.45-9.69-10.45-9.69-10.54-12.21C970.25,2258.13,957.49,2287.6,985.37,2291.6Z" transform="translate(0 -1884)"/><path class="cls-6" d="M924.45,2295.75A18.22,18.22,0,0,1,912,2277.94c0-14.25,0-14.25-1.78-16C910.2,2261.91,940.48,2272.6,924.45,2295.75Z" transform="translate(0 -1884)"/><path class="cls-7" d="M947.6,2264.88a18.23,18.23,0,0,1,4.58-21.26c10.44-9.69,10.44-9.69,10.54-12.21C962.72,2231.41,975.48,2260.88,947.6,2264.88Z" transform="translate(0 -1884)"/><path class="cls-8" d="M949.74,2266.66a18.23,18.23,0,0,0-4.58-21.26c-10.44-9.69-10.44-9.69-10.54-12.21C934.62,2233.19,921.86,2262.66,949.74,2266.66Z" transform="translate(0 -1884)"/><path class="cls-6" d="M890.58,2232.9a18.22,18.22,0,0,1-12.47-17.81c0-14.25,0-14.25-1.78-16C876.33,2199.06,906.62,2209.74,890.58,2232.9Z" transform="translate(0 -1884)"/><path class="cls-7" d="M887,2246.56a18.23,18.23,0,0,1,4.58-21.26c10.45-9.69,10.45-9.69,10.54-12.21C902.13,2213.09,914.89,2242.56,887,2246.56Z" transform="translate(0 -1884)"/><path class="cls-8" d="M876.68,2243a18.23,18.23,0,0,0-4.57-21.26c-10.45-9.69-10.45-9.69-10.54-12.21C861.57,2209.53,848.8,2239,876.68,2243Z" transform="translate(0 -1884)"/><path class="cls-6" d="M875.6,2251.51a18.22,18.22,0,0,1-11.77-18.28c.56-14.24.56-14.24-1.15-16.09C862.68,2217.14,892.52,2229,875.6,2251.51Z" transform="translate(0 -1884)"/><path class="cls-7" d="M871.49,2265A18.22,18.22,0,0,1,876.9,2244c10.82-9.28,10.82-9.28,11-11.79C887.91,2232.17,899.51,2262.12,871.49,2265Z" transform="translate(0 -1884)"/><path class="cls-8" d="M861.31,2261.06a18.22,18.22,0,0,0-3.74-21.42c-10.06-10.1-10.06-10.1-10.05-12.62C847.52,2227,833.61,2256,861.31,2261.06Z" transform="translate(0 -1884)"/><path class="cls-6" d="M849.28,2238.71a18.22,18.22,0,0,1-12.47-17.81c0-14.25,0-14.25-1.78-16C835,2204.86,865.31,2215.55,849.28,2238.71Z" transform="translate(0 -1884)"/><path class="cls-7" d="M852.64,2252.18a18.24,18.24,0,0,1,0-21.75c8.17-11.67,8.17-11.67,7.73-14.16C860.37,2216.27,879.05,2242.39,852.64,2252.18Z" transform="translate(0 -1884)"/><path class="cls-8" d="M897.73,2255.93a18.23,18.23,0,0,0-4.58-21.26c-10.45-9.69-10.45-9.69-10.54-12.21C882.61,2222.46,869.85,2251.93,897.73,2255.93Z" transform="translate(0 -1884)"/><path class="cls-6" d="M836.81,2260.09a18.24,18.24,0,0,1-12.47-17.82c0-14.25,0-14.25-1.78-16C822.56,2226.24,852.84,2236.93,836.81,2260.09Z" transform="translate(0 -1884)"/><path class="cls-7" d="M860,2229.21a18.23,18.23,0,0,1,4.58-21.26c10.44-9.69,10.44-9.69,10.54-12.21C875.08,2195.74,887.84,2225.21,860,2229.21Z" transform="translate(0 -1884)"/><path class="cls-8" d="M862.1,2231a18.23,18.23,0,0,0-4.58-21.26c-10.45-9.69-10.45-9.69-10.54-12.21C847,2197.52,834.22,2227,862.1,2231Z" transform="translate(0 -1884)"/><path class="cls-6" d="M952.87,2236.28a18.24,18.24,0,0,1-12.47-17.82c0-14.25,0-14.25-1.78-16C938.62,2202.43,968.9,2213.12,952.87,2236.28Z" transform="translate(0 -1884)"/><path class="cls-7" d="M949.3,2249.93a18.23,18.23,0,0,1,4.58-21.26c10.44-9.69,10.44-9.69,10.54-12.21C964.42,2216.46,977.18,2245.93,949.3,2249.93Z" transform="translate(0 -1884)"/><path class="cls-8" d="M939,2246.37a18.23,18.23,0,0,0-4.58-21.26c-10.45-9.69-10.45-9.69-10.54-12.21C923.85,2212.9,911.09,2242.37,939,2246.37Z" transform="translate(0 -1884)"/><path class="cls-6" d="M937.88,2254.89a18.22,18.22,0,0,1-11.76-18.29c.56-14.24.56-14.24-1.15-16.09C925,2220.51,954.81,2232.38,937.88,2254.89Z" transform="translate(0 -1884)"/><path class="cls-7" d="M933.78,2268.39a18.22,18.22,0,0,1,5.41-21.06c10.81-9.27,10.81-9.27,11-11.79C950.2,2235.54,961.79,2265.49,933.78,2268.39Z" transform="translate(0 -1884)"/><path class="cls-8" d="M923.6,2264.43a18.24,18.24,0,0,0-3.74-21.42c-10.06-10.1-10.06-10.1-10.06-12.62C909.8,2230.39,895.89,2259.34,923.6,2264.43Z" transform="translate(0 -1884)"/><path class="cls-6" d="M911.56,2242.08a18.22,18.22,0,0,1-12.47-17.81c0-14.25,0-14.25-1.78-16C897.31,2208.24,927.59,2218.93,911.56,2242.08Z" transform="translate(0 -1884)"/><path class="cls-7" d="M914.93,2255.55a18.22,18.22,0,0,1,0-21.74c8.17-11.68,8.17-11.68,7.73-14.16C922.65,2219.65,941.34,2245.77,914.93,2255.55Z" transform="translate(0 -1884)"/><path class="cls-8" d="M960,2259.3a18.21,18.21,0,0,0-4.58-21.25c-10.44-9.7-10.44-9.7-10.54-12.21C944.89,2225.84,932.13,2255.3,960,2259.3Z" transform="translate(0 -1884)"/><path class="cls-6" d="M899.09,2263.46a18.22,18.22,0,0,1-12.47-17.81c0-14.25,0-14.25-1.78-16C884.84,2229.61,915.13,2240.3,899.09,2263.46Z" transform="translate(0 -1884)"/><path class="cls-7" d="M922.24,2232.58a18.21,18.21,0,0,1,4.58-21.25c10.45-9.7,10.45-9.7,10.54-12.22C937.36,2199.11,950.12,2228.58,922.24,2232.58Z" transform="translate(0 -1884)"/><path class="cls-8" d="M924.38,2234.36a18.22,18.22,0,0,0-4.57-21.25c-10.45-9.7-10.45-9.7-10.54-12.21C909.27,2200.9,896.5,2230.37,924.38,2234.36Z" transform="translate(0 -1884)"/><path class="cls-6" d="M920.8,2202.43a18.22,18.22,0,0,1-12.47-17.81c0-14.25,0-14.25-1.78-16C906.55,2168.58,936.84,2179.27,920.8,2202.43Z" transform="translate(0 -1884)"/><path class="cls-7" d="M917.23,2216.09a18.23,18.23,0,0,1,4.58-21.26c10.45-9.69,10.45-9.69,10.54-12.21C932.35,2182.62,945.11,2212.09,917.23,2216.09Z" transform="translate(0 -1884)"/><path class="cls-8" d="M906.9,2212.52a18.22,18.22,0,0,0-4.57-21.25c-10.45-9.7-10.45-9.7-10.54-12.21C891.79,2179.06,879,2208.52,906.9,2212.52Z" transform="translate(0 -1884)"/><path class="cls-6" d="M905.82,2221a18.24,18.24,0,0,1-11.77-18.29c.56-14.24.56-14.24-1.15-16.09C892.9,2186.66,922.74,2198.53,905.82,2221Z" transform="translate(0 -1884)"/><path class="cls-7" d="M901.71,2234.55a18.22,18.22,0,0,1,5.41-21.06c10.82-9.28,10.82-9.28,11-11.79C918.13,2201.7,929.73,2231.65,901.71,2234.55Z" transform="translate(0 -1884)"/><path class="cls-8" d="M891.53,2230.58a18.22,18.22,0,0,0-3.74-21.42c-10.06-10.09-10.06-10.09-10-12.61C877.74,2196.55,863.83,2225.49,891.53,2230.58Z" transform="translate(0 -1884)"/><path class="cls-6" d="M879.5,2208.24A18.24,18.24,0,0,1,867,2190.42c0-14.25,0-14.25-1.78-16C865.25,2174.39,895.53,2185.08,879.5,2208.24Z" transform="translate(0 -1884)"/><path class="cls-7" d="M882.86,2221.7a18.22,18.22,0,0,1,0-21.74c8.17-11.68,8.17-11.68,7.73-14.16C890.59,2185.8,909.27,2211.92,882.86,2221.7Z" transform="translate(0 -1884)"/><path class="cls-8" d="M928,2225.46a18.23,18.23,0,0,0-4.58-21.26c-10.45-9.69-10.45-9.69-10.54-12.21C912.83,2192,900.07,2221.46,928,2225.46Z" transform="translate(0 -1884)"/><path class="cls-6" d="M867,2229.61a18.22,18.22,0,0,1-12.47-17.81c0-14.25,0-14.25-1.78-16C852.78,2195.77,883.06,2206.46,867,2229.61Z" transform="translate(0 -1884)"/><path class="cls-7" d="M890.18,2198.74a18.23,18.23,0,0,1,4.58-21.26c10.44-9.69,10.44-9.69,10.54-12.21C905.3,2165.27,918.06,2194.74,890.18,2198.74Z" transform="translate(0 -1884)"/><path class="cls-8" d="M892.32,2200.52a18.23,18.23,0,0,0-4.58-21.26c-10.44-9.69-10.44-9.69-10.54-12.21C877.2,2167.05,864.44,2196.52,892.32,2200.52Z" transform="translate(0 -1884)"/><rect class="cls-9" x="975.44" y="2129.15" width="12.47" height="210.2" rx="3.5" transform="translate(-794.46 -1323.33) rotate(-22.98)"/><path class="cls-10" d="M1045.07,2312.51a1.85,1.85,0,0,0-.37.25,3.17,3.17,0,0,0-.44.12l-50.12,23.17a1.92,1.92,0,0,0-.38.25,2.11,2.11,0,0,0-.43.12c-1.34.62-1.65,2.8-.7,4.85l12.64,27.36c.94,2,2.81,3.22,4.15,2.6s1.65-2.79.7-4.85l-9.77-21.13,8.09-3.74,9.76,21.14c.95,2,2.82,3.22,4.15,2.61s1.65-2.8.7-4.85l-9.76-21.14,8.08-3.74,9.77,21.14c.95,2,2.81,3.22,4.15,2.61s1.65-2.8.7-4.85l-9.77-21.14,8.09-3.73,9.77,21.13c.94,2,2.81,3.23,4.14,2.61s1.65-2.8.71-4.85l-9.77-21.14,8.08-3.73,9.77,21.13c1,2.05,2.82,3.23,4.15,2.61s1.65-2.8.7-4.85l-12.64-27.35C1048.27,2313.07,1046.41,2311.89,1045.07,2312.51Z" transform="translate(0 -1884)"/></svg>