<svg id="Layer_1" data-name="Layer 1" xmlns="http://www.w3.org/2000/svg" viewBox="0 0 1125 552"><defs><style>.cls-1{fill:#77bc77;}.cls-2{fill:#5aad60;}.cls-3{fill:#aaa;}.cls-4{fill:#fdfffd;}.cls-4,.cls-6{stroke:#b7b7b7;stroke-miterlimit:10;stroke-width:2px;}.cls-5{fill:#474747;}.cls-6{fill:#c7e7ff;}.cls-7{fill:#69b7cc;}.cls-8{fill:#80cde8;}</style></defs><path class="cls-1" d="M1,1884c192,63,844,173,1124,168v384H0Z" transform="translate(0 -1884)"/><path class="cls-2" d="M0,2436V2140c73,20,1125-64,1125-88v384Z" transform="translate(0 -1884)"/><rect class="cls-3" x="235" y="400" width="318" height="37"/><rect class="cls-4" x="235" y="371" width="318" height="29"/><rect class="cls-4" x="235" y="342" width="318" height="29"/><rect class="cls-4" x="235" y="313" width="318" height="29"/><rect class="cls-4" x="235" y="313" width="318" height="29"/><rect class="cls-4" x="235" y="284" width="318" height="29"/><rect class="cls-4" x="235" y="255" width="318" height="29"/><rect class="cls-4" x="235" y="226" width="318" height="29"/><rect class="cls-4" x="235" y="197" width="318" height="29"/><polygon class="cls-5" points="394 105 570.46 197 394.5 197 218.54 197 394 105"/><rect class="cls-6" x="348" y="226" width="92" height="116"/><path class="cls-7" d="M553,2197.72c18-5.82,111.59,7.49,144.09-6.66s3.88,3.33,46.09,6.66,76.17-19.14,97.52-12.48,74.71,15.81,99,5.82,13.58,2.5,33.48,6.66,46.57-14.14,77.14-11.65,34.44,15.81,50,12.48,24.74-.83,24.74-.83V2325H553Z" transform="translate(0 -1884)"/><path class="cls-7" d="M0,2197c29.46,4.16,79.06-15.42,124.33-12.93S212,2201.33,235,2198v125H0Z" transform="translate(0 -1884)"/><path class="cls-8" d="M0,2308.72c35.31-5.82,219.47,7.49,283.4-6.66s7.63,3.33,90.65,6.66,149.8-19.14,191.79-12.48,146.95,15.81,194.66,5.82,26.71,2.5,65.84,6.66,91.6-14.14,151.71-11.65,67.75,15.81,98.29,12.48,48.66-.83,48.66-.83V2436H0Z" transform="translate(0 -1884)"/><path class="cls-8" d="M0,2288.72c35.31-5.82,219.47,7.49,283.4-6.66s7.63,3.33,90.65,6.66,149.8-19.14,191.79-12.48,146.95,15.81,194.66,5.82,26.71,2.5,65.84,6.66,91.6-14.14,151.71-11.65,67.75,15.81,98.29,12.48,48.66-.83,48.66-.83V2416H0Z" transform="translate(0 -1884)"/><path class="cls-7" d="M1125,2337.12c-35.31-4.3-219.47,5.52-283.4-4.91s-7.63,2.45-90.65,4.91-149.8-14.11-191.79-9.21-146.95,11.66-194.66,4.3-26.71,1.84-65.84,4.91-91.6-10.43-151.71-8.59-67.75,11.66-98.29,9.2S0,2337.12,0,2337.12V2431H1125Z" transform="translate(0 -1884)"/><path class="cls-8" d="M0,2392.72c35.31-5.82,219.47,7.49,283.4-6.66s7.63,3.33,90.65,6.66,149.8-19.14,191.79-12.48,146.95,15.81,194.66,5.82,26.71,2.5,65.84,6.66,91.6-14.14,151.71-11.65,67.75,15.81,98.29,12.48,48.66-.83,48.66-.83V2436H0Z" transform="translate(0 -1884)"/></svg>