<svg id="Layer_1" data-name="Layer 1" xmlns="http://www.w3.org/2000/svg" viewBox="0 0 1127 552"><defs><style>.cls-1{fill:#77bc77;}.cls-2{fill:#5aad60;}.cls-3{fill:#7f6d4a;stroke:#565036;}.cls-10,.cls-3,.cls-5,.cls-7,.cls-9{stroke-miterlimit:10;}.cls-4{fill:#aaa;}.cls-5{fill:#fdfffd;}.cls-5,.cls-7{stroke:#b7b7b7;}.cls-10,.cls-5,.cls-7,.cls-9{stroke-width:2px;}.cls-6{fill:#474747;}.cls-7{fill:#c7e7ff;}.cls-8{fill:#69b7cc;}.cls-9{fill:#515151;}.cls-10,.cls-9{stroke:#c7e7ff;}.cls-10{fill:#666;}</style></defs><path class="cls-1" d="M1,1884c192,63,844,173,1124,168v384H0Z" transform="translate(0 -1884)"/><path class="cls-2" d="M2,2436V2140c73,20,1125-64,1125-88v384Z" transform="translate(0 -1884)"/><rect class="cls-3" x="542" y="250.5" width="11" height="38"/><rect class="cls-3" x="519.5" y="250.5" width="11" height="38"/><rect class="cls-4" x="235" y="400" width="318" height="37"/><rect class="cls-5" x="235" y="371" width="318" height="29"/><rect class="cls-5" x="235" y="342" width="318" height="29"/><rect class="cls-5" x="235" y="313" width="318" height="29"/><rect class="cls-5" x="235" y="2197" width="318" height="29" transform="matrix(1, -0.09, 0.09, 1, -200.51, -1838.72)"/><rect class="cls-5" x="235" y="284" width="318" height="29"/><rect class="cls-5" x="235" y="2154" width="318" height="29" transform="translate(241.03 -1914.19) rotate(6.32)"/><rect class="cls-5" x="235" y="226" width="318" height="29"/><rect class="cls-5" x="235" y="197" width="318" height="29"/><polygon class="cls-6" points="394 105 570.46 197 394.5 197 218.54 197 394 105"/><rect class="cls-7" x="348" y="226" width="92" height="116"/><path class="cls-8" d="M923.21,2317.07C941.47,2313.4,953,2308,953,2302c0-11.05-39-20-87-20s-87,8.95-87,20a4.6,4.6,0,0,0,0,.64c-68.31,3.27-120,18.75-120,37.36,0,21,65.81,38,147,38s147-17,147-38C953,2331.38,941.9,2323.44,923.21,2317.07Z" transform="translate(0 -1884)"/><path class="cls-8" d="M313.5,2352c-5.75,0-11.29.2-16.51.58,0,0,0,0,0-.08,0-8.56-40.07-15.5-89.5-15.5s-89.5,6.94-89.5,15.5,40.07,15.5,89.5,15.5a438.22,438.22,0,0,0,50.53-2.71c.67,7.05,25.24,12.71,55.47,12.71,30.65,0,55.5-5.82,55.5-13S344.15,2352,313.5,2352Z" transform="translate(0 -1884)"/><ellipse class="cls-8" cx="559.5" cy="487.5" rx="37.5" ry="6.5"/><polygon class="cls-9" points="406.96 298 413.31 309.64 392.14 303.29 402.72 309.64 409.34 320.05 383.97 334.19 411.19 324.46 416.49 321.29 422.84 333.99 417.54 314.94 431.46 301.7 417.54 309.64 406.96 298"/><polygon class="cls-10" points="384.47 240 378.12 251.64 399.29 245.29 388.7 251.64 382.08 262.05 407.46 276.19 380.23 266.46 374.94 263.29 368.59 275.99 373.88 256.94 359.97 243.71 373.88 251.64 384.47 240"/></svg>