<?xml version="1.0" encoding="utf-8"?>
<!-- Generator: Adobe Illustrator 24.1.0, SVG Export Plug-In . SVG Version: 6.00 Build 0)  -->
<svg version="1.1" id="Layer_1" xmlns="http://www.w3.org/2000/svg" xmlns:xlink="http://www.w3.org/1999/xlink" x="0px" y="0px"
	 viewBox="0 0 500 250" style="enable-background:new 0 0 500 250;" xml:space="preserve">
<style type="text/css">
	.st0{enable-background:new    ;}
	.st1{fill:url(#Ellipse_13_1_);}
	.st2{fill:url(#Path_9_1_);}
	.st3{fill:url(#Path_10_1_);}
</style>
<g>
	<g class="st0">
		<path d="M74.75,109.36H56.03v12.48h15.6v6.24h-15.6v12.48h18.72v6.24H49.79v-43.68h24.96V109.36z"/>
		<path d="M113.75,146.8l-4.25-9.36H89.92l-4.24,9.36h-6.76l20.8-44.72l20.8,44.72H113.75z M92.75,131.2h13.93l-6.97-15.36
			L92.75,131.2z"/>
		<path d="M156.91,146.8h-7.28l-10.9-15.08h-6.78v15.08h-6.24v-43.68h13.52c5.5,0,9.65,1.26,12.45,3.77
			c2.79,2.51,4.19,5.92,4.19,10.21c0,3.42-0.9,6.4-2.7,8.94s-4.3,4.24-7.51,5.1L156.91,146.8z M131.95,109.36v16.12h9.29
			c2.47,0,4.49-0.66,6.05-1.98s2.34-3.33,2.34-6.01c0-2.73-0.77-4.77-2.31-6.11c-1.54-1.34-3.52-2.02-5.95-2.02H131.95z"/>
		<path d="M160.03,103.12h29.12v6.24h-11.44v37.44h-6.24v-37.44h-11.44L160.03,103.12L160.03,103.12z"/>
		<path d="M223.47,103.12h6.24v43.68h-6.24v-18.72h-20.8v18.72h-6.24v-43.68h6.24v18.72h20.8V103.12z"/>
	</g>
	<path d="M321.17,104.09h6.26v43.82h-6.26v-18.78H300.3v18.78h-6.26v-43.82h6.26v18.78h20.87L321.17,104.09L321.17,104.09z"/>
	<path d="M361.87,110.35h-18.78v12.52h15.65v6.26h-15.65v12.52h18.78v6.26h-25.04v-43.82h25.04V110.35z"/>
	<path d="M401.52,147.92h-7.3l-10.94-15.13h-6.8v15.13h-6.26V104.1h13.56c5.52,0,9.68,1.26,12.49,3.78s4.21,5.93,4.21,10.24
		c0,3.44-0.9,6.42-2.71,8.97c-1.8,2.54-4.31,4.25-7.53,5.12L401.52,147.92z M376.47,110.35v16.17h9.33c2.48,0,4.5-0.66,6.07-1.99
		c1.57-1.33,2.35-3.34,2.35-6.03c0-2.74-0.77-4.78-2.31-6.13s-3.53-2.02-5.97-2.02C385.94,110.35,376.47,110.35,376.47,110.35z"/>
	<g id="earth_13_" transform="translate(148.1 60.452)">
		
			<linearGradient id="Ellipse_13_1_" gradientUnits="userSpaceOnUse" x1="-165.5986" y1="9.6434" x2="-164.4328" y2="8.9703" gradientTransform="matrix(32.556 0 0 32.556 5486.0317 -237.4442)">
			<stop  offset="0" style="stop-color:#235DE7"/>
			<stop  offset="0.228" style="stop-color:#2E83E8"/>
			<stop  offset="0.336" style="stop-color:#3396E9"/>
			<stop  offset="0.599" style="stop-color:#56A8ED"/>
			<stop  offset="0.78" style="stop-color:#58A9ED"/>
			<stop  offset="0.846" style="stop-color:#5FACEE"/>
			<stop  offset="0.893" style="stop-color:#6AB3EF"/>
			<stop  offset="0.93" style="stop-color:#7BBBF1"/>
			<stop  offset="0.963" style="stop-color:#91C7F3"/>
			<stop  offset="0.991" style="stop-color:#ACD4F6"/>
			<stop  offset="1" style="stop-color:#B6DAF7"/>
		</linearGradient>
		<circle id="Ellipse_13" class="st1" cx="113.78" cy="65.55" r="21.91"/>
		
			<linearGradient id="Path_9_1_" gradientUnits="userSpaceOnUse" x1="-158.604" y1="11.1708" x2="-156.8675" y2="10.7158" gradientTransform="matrix(12.6245 0 0 27.7533 2099.5979 -241.7055)">
			<stop  offset="0" style="stop-color:#46C75F"/>
			<stop  offset="0.447" style="stop-color:#48C861"/>
			<stop  offset="0.607" style="stop-color:#4FCA66"/>
			<stop  offset="0.722" style="stop-color:#5ACD71"/>
			<stop  offset="0.815" style="stop-color:#6BD27F"/>
			<stop  offset="0.894" style="stop-color:#81D992"/>
			<stop  offset="0.963" style="stop-color:#9CE1A9"/>
			<stop  offset="1" style="stop-color:#AEE6B9"/>
		</linearGradient>
		<path id="Path_9" class="st2" d="M104.45,80.72c0.42,0.54,1.02,0.9,1.69,1.01c0.45,0.11-0.56-3.04,1.69-3.6
			c0-0.78,0.11-1.46,2.25-1.91c0.81-0.63,1.34-1.56,1.46-2.59c0.45-0.34,0.67-0.11,0.9,0.11c0.22,0.23,1.13-1.01,1.35-1.35
			c-0.11-1.17,0.74-2.22,1.91-2.36c0.54-1.1,0.92-2.27,1.13-3.48c-0.34-1.01-0.9-2.02-1.46-2.14c-1.36-0.85-2.61-1.87-3.71-3.04
			c-0.45-0.56-3.37-3.15-3.93-2.25c-0.23,0.56-0.56-0.11-0.56-0.34s-1.35,0.56-1.57,0.67c-0.5-0.33-1.1-0.45-1.69-0.34
			c0-0.56-0.34-1.35-0.11-1.69c0.22-0.34,0.34-0.23,0.45-0.23s0.11-0.45-0.11-0.45s-1.35-0.34,0-1.01c0.34-0.34,0.45-0.67-0.9-0.56
			c-0.34,0.11-0.34,0.34-0.34,0.34s-0.56,1.23-1.01,0c0-1.01,0.34-2.02,3.15-2.81c0.67-0.11,1.13-0.45,1.01,1.57
			c0,0.78,0.78,1.46,1.01,0s-0.23-1.91,2.14-3.26c2.36-1.35,4.27-1.23,4.61-0.56c0.11,0.23,0.11-0.45-0.23-0.67
			c-0.34-0.22-0.78-1.35,0.23-0.67c0.9,0.34,1.69,0.78,1.46,0.23c-0.23-0.56-0.9-2.69-1.57-2.92c-0.77,0.59-1.72,0.91-2.69,0.9
			c-0.56-0.45-2.32-2.79-2.85-2.97c-0.37,0.13-0.74,0.24-1.12,0.33l-1.27,0.46l-1.21,0.52l-0.39,0.18c0.09,0.75-0.17,1.5-0.69,2.04
			c-0.56,1.69-4.05,2.47-3.6,5.28c0.31,0.12,0.46,0.46,0.34,0.76c0,0.01-0.01,0.02-0.01,0.02c-0.45,3.82,2.36,1.46,2.92,5.06
			c0.11,1.57,0.9,1.35,1.23,1.23c0.34-0.11,1.46,0,1.01,0.34c-0.56,0.78-3.15,2.81-2.69,4.27c0.56,1.57,1.57,2.69,1.13,3.93
			c0.23,1.8,1.01,4.38,0.78,4.61C104.31,75.84,104.27,78.29,104.45,80.72z"/>
		
			<linearGradient id="Path_10_1_" gradientUnits="userSpaceOnUse" x1="-156.6701" y1="12.4601" x2="-155.4129" y2="12.1276" gradientTransform="matrix(11.3495 0 0 24.8013 1897.7394 -244.3645)">
			<stop  offset="0" style="stop-color:#46C75F"/>
			<stop  offset="0.447" style="stop-color:#48C861"/>
			<stop  offset="0.607" style="stop-color:#4FCA66"/>
			<stop  offset="0.722" style="stop-color:#5ACD71"/>
			<stop  offset="0.815" style="stop-color:#6BD27F"/>
			<stop  offset="0.894" style="stop-color:#81D992"/>
			<stop  offset="0.963" style="stop-color:#9CE1A9"/>
			<stop  offset="1" style="stop-color:#AEE6B9"/>
		</linearGradient>
		<path id="Path_10" class="st3" d="M120.7,44.76c-0.46-0.05-0.91,1.63,0.21,1.53s0.9,1.13,2.14,1.23c1.24,0.11,1.8,1.13,2.81,2.47
			s-0.67,0-1.46-0.23s-1.01,0.23-0.56,0.45c0.45,0.22,2.14,1.69,1.69,2.14c-2.02,1.8,0.34,3.15,1.57,1.91
			c1.24-1.24,1.69-0.23,2.25,0.78c0.56,1.01,2.02,0.9,1.8,1.57c-1.06,0.01-2.03-0.61-2.47-1.57c-0.82,0.13-1.64,0.2-2.47,0.23
			c-0.78,0.25-1.38,0.89-1.57,1.69c-2.59,0.9-0.9,3.82-1.23,3.93c-0.34,0.11-1.13-0.23-1.13,0.34c1.69,5.73,4.27,4.94,4.61,4.5
			c0.34-0.45,1.13-0.23,1.23,0.67c1.91-0.11,1.23,1.13,1.01,1.23c-0.22,0.11-1.35,0.67-0.9,1.01c0.64,0.93,0.59,2.16-0.11,3.04
			c-0.23,0.23-0.9,0.34-1.35,3.04c-0.9,4.38,2.69,3.48,3.6,3.04c0,0,6-3.07,5.02-15.92C134.04,53.86,128.39,47.28,120.7,44.76z"/>
	</g>
	<g class="st0">
		<path d="M412.98,110.59c4.27-4.27,9.41-6.41,15.41-6.41s11.14,2.13,15.41,6.41c4.27,4.27,6.41,9.41,6.41,15.41
			s-2.14,11.14-6.41,15.41s-9.41,6.41-15.41,6.41s-11.14-2.13-15.41-6.41c-4.27-4.27-6.41-9.41-6.41-15.41
			C406.58,120,408.71,114.86,412.98,110.59z M417.23,137.17c3.04,3.04,6.76,4.57,11.16,4.57s8.12-1.52,11.16-4.57
			c3.04-3.04,4.57-6.76,4.57-11.16c0-4.4-1.52-8.12-4.57-11.16c-3.04-3.04-6.77-4.57-11.16-4.57c-4.4,0-8.12,1.52-11.16,4.57
			c-3.04,3.04-4.57,6.76-4.57,11.16C412.66,130.4,414.19,134.12,417.23,137.17z"/>
	</g>
</g>
</svg>
