<?xml version="1.0" encoding="utf-8"?>
<!-- Generator: Adobe Illustrator 24.1.0, SVG Export Plug-In . SVG Version: 6.00 Build 0)  -->
<svg version="1.1" id="Layer_1" xmlns="http://www.w3.org/2000/svg" xmlns:xlink="http://www.w3.org/1999/xlink" x="0px" y="0px"
	 viewBox="0 0 250 250" style="enable-background:new 0 0 250 250;" xml:space="preserve">
<style type="text/css">
	.st0{enable-background:new    ;}
	.st1{fill:#FFFFFF;stroke:#000000;stroke-miterlimit:10;}
</style>
<g class="st0">
	<path d="M57.17,80.18H38.45v12.48h15.6v6.24h-15.6v12.48h18.72v6.24H32.21V73.94h24.96V80.18z"/>
	<path d="M96.17,117.62l-4.25-9.36H72.33l-4.24,9.36h-6.76l20.8-44.72l20.8,44.72H96.17z M75.16,102.02h13.93l-6.97-15.36
		L75.16,102.02z"/>
	<path d="M139.33,117.62h-7.28l-10.9-15.08h-6.78v15.08h-6.24V73.94h13.52c5.5,0,9.65,1.26,12.45,3.77
		c2.79,2.51,4.19,5.92,4.19,10.21c0,3.42-0.9,6.4-2.7,8.94s-4.3,4.24-7.51,5.1L139.33,117.62z M114.37,80.18V96.3h9.29
		c2.47,0,4.49-0.66,6.05-1.98s2.34-3.33,2.34-6.01c0-2.73-0.77-4.77-2.31-6.11c-1.54-1.34-3.52-2.02-5.95-2.02H114.37z"/>
	<path d="M142.45,73.94h29.12v6.24h-11.44v37.44h-6.24V80.18h-11.44L142.45,73.94L142.45,73.94z"/>
	<path d="M205.89,73.94h6.24v43.68h-6.24V98.9h-20.8v18.72h-6.24V73.94h6.24v18.72h20.8V73.94z"/>
</g>
<path d="M87.96,125.95h6.14v43.01h-6.14v-18.43H67.48v18.43h-6.14v-43.01h6.14v18.43h20.48C87.96,144.38,87.96,125.95,87.96,125.95z
	"/>
<path d="M127.89,132.1h-18.43v12.29h15.36v6.14h-15.36v12.29h18.43v6.14h-24.58v-43.01h24.58V132.1z"/>
<path d="M166.8,168.96h-7.17l-10.74-14.85h-6.67v14.85h-6.14v-43.01h13.31c5.42,0,9.5,1.24,12.26,3.71
	c2.75,2.47,4.13,5.82,4.13,10.05c0,3.37-0.89,6.3-2.66,8.8s-4.23,4.17-7.39,5.02L166.8,168.96z M142.23,132.1v15.87h9.15
	c2.43,0,4.42-0.65,5.95-1.95c1.54-1.3,2.3-3.27,2.3-5.92c0-2.69-0.76-4.69-2.27-6.02c-1.52-1.32-3.47-1.98-5.86-1.98H142.23z"/>
<g id="earth_13_" transform="translate(148.1 60.452)">
	<circle id="Ellipse_13" class="st1" cx="43.81" cy="87.01" r="21.5"/>
	<path id="Path_9" d="M34.65,101.89c0.41,0.53,1,0.88,1.66,0.99c0.44,0.11-0.55-2.98,1.66-3.53c0-0.77,0.11-1.43,2.2-1.87
		c0.8-0.62,1.32-1.53,1.43-2.54c0.44-0.33,0.66-0.11,0.88,0.11s1.1-0.99,1.32-1.32c-0.11-1.15,0.72-2.18,1.87-2.31
		c0.53-1.08,0.9-2.23,1.1-3.42c-0.33-0.99-0.88-1.98-1.43-2.1c-1.34-0.83-2.56-1.83-3.64-2.98c-0.44-0.55-3.3-3.09-3.86-2.2
		c-0.22,0.55-0.55-0.11-0.55-0.33s-1.32,0.55-1.54,0.66c-0.49-0.33-1.08-0.44-1.66-0.33c0-0.55-0.33-1.32-0.11-1.66
		s0.33-0.22,0.44-0.22c0.11,0,0.11-0.44-0.11-0.44s-1.32-0.33,0-0.99c0.33-0.33,0.44-0.66-0.88-0.55c-0.33,0.11-0.33,0.33-0.33,0.33
		s-0.55,1.21-0.99,0c0-0.99,0.33-1.98,3.09-2.76c0.66-0.11,1.1-0.44,0.99,1.54c0,0.77,0.77,1.43,0.99,0s-0.22-1.87,2.1-3.2
		c2.32-1.32,4.19-1.21,4.52-0.55c0.11,0.22,0.11-0.44-0.22-0.66s-0.77-1.32,0.22-0.66c0.88,0.33,1.66,0.77,1.43,0.22
		c-0.22-0.55-0.88-2.64-1.54-2.87c-0.76,0.58-1.69,0.89-2.64,0.88c-0.55-0.44-2.28-2.74-2.79-2.92c-0.36,0.13-0.72,0.24-1.1,0.32
		L35.92,67l-1.19,0.51l-0.38,0.18c0.08,0.73-0.16,1.47-0.68,2c-0.55,1.66-3.97,2.43-3.53,5.18c0.3,0.11,0.45,0.45,0.34,0.75
		c0,0.01-0.01,0.02-0.01,0.02c-0.44,3.75,2.31,1.43,2.87,4.96c0.11,1.55,0.88,1.32,1.21,1.21c0.33-0.11,1.43,0,0.99,0.33
		c-0.55,0.77-3.09,2.76-2.64,4.19c0.55,1.55,1.54,2.64,1.1,3.86c0.22,1.76,0.99,4.3,0.77,4.52C34.52,97.1,34.48,99.5,34.65,101.89z"
		/>
	<path id="Path_10" d="M50.6,66.6c-0.46-0.05-0.9,1.6,0.21,1.5c1.1-0.11,0.88,1.1,2.1,1.21c1.22,0.11,1.76,1.1,2.76,2.43
		c0.99,1.32-0.66,0-1.43-0.22s-0.99,0.22-0.55,0.44c0.44,0.22,2.1,1.66,1.66,2.1c-1.98,1.76,0.33,3.09,1.55,1.87
		c1.22-1.22,1.66-0.22,2.2,0.77s1.98,0.88,1.76,1.55c-1.04,0.01-1.99-0.6-2.43-1.55c-0.8,0.12-1.61,0.2-2.43,0.22
		c-0.77,0.25-1.35,0.87-1.55,1.66c-2.54,0.88-0.88,3.75-1.21,3.86s-1.1-0.22-1.1,0.33c1.66,5.62,4.19,4.85,4.52,4.41
		c0.33-0.44,1.1-0.22,1.21,0.66c1.87-0.11,1.21,1.1,0.99,1.21c-0.22,0.11-1.32,0.66-0.88,0.99c0.63,0.91,0.58,2.12-0.11,2.98
		c-0.22,0.22-0.88,0.33-1.32,2.98c-0.88,4.3,2.64,3.42,3.53,2.98c0,0,5.88-3.01,4.93-15.62C63.69,75.53,58.14,69.07,50.6,66.6z"/>
</g>
</svg>
