<svg id="Layer_1" data-name="Layer 1" xmlns="http://www.w3.org/2000/svg" viewBox="0 0 1125 336.41"><defs><style>.cls-1{fill:#496fa5;}.cls-2{fill:#449b2f;}</style></defs><path class="cls-1" d="M0,2103c140,24,269,28,388,4,84-16.94,337.37-1.47,428,13,119,19,309,1,309,1v315H0Z" transform="translate(0 -2099.59)"/><path class="cls-2" d="M319.94,2280.18C329.88,2254.36,313,2206,304,2195s16-17,11-39-2-29-10-24-12,19-19.74,47.34c-8.38-16.61-13.93-21.39-11.26-4.34,8,51-37,96-6,179h56C328.88,2335.34,326.13,2308.16,319.94,2280.18Z" transform="translate(0 -2099.59)"/><path class="cls-2" d="M174.94,2362.18C184.88,2336.36,168,2288,159,2277s16-17,11-39-2-29-10-24-12,19-19.74,47.34c-8.38-16.61-13.93-21.39-11.26-4.34,8,51-37,96-6,179h56C183.88,2417.34,181.13,2390.16,174.94,2362.18Z" transform="translate(0 -2099.59)"/><path class="cls-2" d="M425.56,2339.49c6.72-18.37-4.69-52.76-10.78-60.59s10.82-12.09,7.44-27.74-1.35-20.62-6.76-17.07-8.12,13.52-13.35,33.67c-5.67-11.81-9.43-15.21-7.62-3.08,5.41,36.27-25,68.28-4.06,127.32h37.88C431.61,2378.73,429.75,2359.4,425.56,2339.49Z" transform="translate(0 -2099.59)"/><path class="cls-2" d="M822.34,2376.22c8.58-20.9-6-60.06-13.77-69s13.82-13.77,9.5-31.58-1.73-23.48-8.63-19.44-10.36,15.39-17,38.33c-7.24-13.44-12-17.31-9.73-3.51,6.91,41.3-31.94,77.73-5.18,144.94h48.35C830.05,2420.89,827.68,2398.89,822.34,2376.22Z" transform="translate(0 -2099.59)"/><path class="cls-2" d="M703.56,2301.49c6.72-18.37-4.69-52.76-10.78-60.59s10.82-12.09,7.44-27.74-1.35-20.62-6.76-17.07-8.12,13.52-13.35,33.67c-5.67-11.81-9.43-15.21-7.62-3.08,5.41,36.27-25,68.28-4.06,127.32h37.88C709.61,2340.73,707.75,2321.4,703.56,2301.49Z" transform="translate(0 -2099.59)"/><path class="cls-2" d="M963.56,2259.49c6.72-18.37-4.69-52.76-10.78-60.59s10.82-12.09,7.44-27.74-1.35-20.62-6.76-17.07-8.12,13.52-13.35,33.67c-5.67-11.81-9.43-15.21-7.62-3.08,5.41,36.27-25,68.28-4.06,127.32h37.88C969.61,2298.73,967.75,2279.4,963.56,2259.49Z" transform="translate(0 -2099.59)"/><path class="cls-2" d="M529.56,2269.49c6.72-18.37-4.69-52.76-10.78-60.59s10.82-12.09,7.44-27.74-1.35-20.62-6.76-17.07-8.12,13.52-13.35,33.67c-5.67-11.81-9.43-15.21-7.62-3.08,5.41,36.27-25,68.28-4.06,127.32h37.88C535.61,2308.73,533.75,2289.4,529.56,2269.49Z" transform="translate(0 -2099.59)"/></svg>