<svg id="Layer_1" data-name="Layer 1" xmlns="http://www.w3.org/2000/svg" viewBox="0 0 1125 336.41"><defs><style>.cls-1{fill:#4aa365;}.cls-2{fill:#449b2f;}</style></defs><path class="cls-1" d="M0,3.41c140,24,269,28,388,4,84-16.94,337.37-1.47,428,13,119,19,309,1,309,1v315H0Z" transform="translate(0 0)"/><path class="cls-2" d="M319.94,180.59c9.94-25.82-6.94-74.18-15.94-85.18s16-17,11-39-2-29-10-24-12,19-19.74,47.34c-8.38-16.61-13.93-21.39-11.26-4.34,8,51-37,96-6,179h56C328.88,235.75,326.13,208.57,319.94,180.59Z" transform="translate(0 0)"/><path class="cls-2" d="M174.94,262.59c9.94-25.82-6.94-74.18-15.94-85.18s16-17,11-39-2-29-10-24-12,19-19.74,47.34c-8.38-16.61-13.93-21.39-11.26-4.34,8,51-37,96-6,179h56C183.88,317.75,181.13,290.57,174.94,262.59Z" transform="translate(0 0)"/><path class="cls-2" d="M425.56,239.9c6.72-18.37-4.69-52.76-10.78-60.59s10.82-12.09,7.44-27.74-1.35-20.62-6.76-17.07-8.12,13.52-13.35,33.67c-5.67-11.81-9.43-15.21-7.62-3.08,5.41,36.27-25,68.28-4.06,127.32h37.88C431.61,279.14,429.75,259.81,425.56,239.9Z" transform="translate(0 0)"/><path class="cls-2" d="M822.34,276.63c8.58-20.9-6-60.06-13.77-69s13.82-13.77,9.5-31.58-1.73-23.48-8.63-19.44-10.36,15.39-17,38.33c-7.24-13.44-12-17.31-9.73-3.51,6.91,41.3-31.94,77.73-5.18,144.94h48.35C830.05,321.3,827.68,299.3,822.34,276.63Z" transform="translate(0 0)"/><path class="cls-2" d="M703.56,201.9c6.72-18.37-4.69-52.76-10.78-60.59s10.82-12.09,7.44-27.74S698.87,93,693.46,96.5s-8.12,13.52-13.35,33.67c-5.67-11.81-9.43-15.21-7.62-3.08,5.41,36.27-25,68.28-4.06,127.32h37.88C709.61,241.14,707.75,221.81,703.56,201.9Z" transform="translate(0 0)"/><path class="cls-2" d="M963.56,159.9c6.72-18.37-4.69-52.76-10.78-60.59s10.82-12.09,7.44-27.74S958.87,51,953.46,54.5,945.34,68,940.11,88.17c-5.67-11.81-9.43-15.21-7.62-3.08,5.41,36.27-25,68.28-4.06,127.32h37.88C969.61,199.14,967.75,179.81,963.56,159.9Z" transform="translate(0 0)"/><path class="cls-2" d="M529.56,169.9c6.72-18.37-4.69-52.76-10.78-60.59s10.82-12.09,7.44-27.74S524.87,61,519.46,64.5,511.34,78,506.11,98.17c-5.67-11.81-9.43-15.21-7.62-3.08,5.41,36.27-25,68.28-4.06,127.32h37.88C535.61,209.14,533.75,189.81,529.56,169.9Z" transform="translate(0 0)"/></svg>