<svg id="Layer_1" data-name="Layer 1" xmlns="http://www.w3.org/2000/svg" viewBox="0 0 1130 630"><defs><style>.cls-1{fill:#77bc77;}.cls-2{fill:#5aad60;}.cls-3{fill:#876935;}.cls-4{fill:#8e733c;}.cls-5{fill:#e5ded6;}.cls-6{fill:#d8d19e;}.cls-7{fill:#c1bca0;}.cls-8{fill:#bfb794;}.cls-9{fill:#a59e7c;}.cls-10{fill:#b2ab8d;}.cls-11{font-size:40.45px;fill:#fff;font-family:GochiHand-Regular, Gochi Hand;}.cls-12{fill:#29912e;}.cls-13{fill:#e59433;}</style></defs><path class="cls-1" d="M.5,1806c70,77.94,150.92,92.36,239.89,94.92,104,3,196.83-63.23,375.84-16,180.16,47.55,423.5,24.15,508.77-67v618H0Z" transform="translate(5 -1806)"/><path class="cls-2" d="M-5,2436c58.92-59,382.66-52.43,495.56-136,118.89-88,272.6-88.38,335.7-93,62.22-4.56,293.74-124,293.74-148v377Z" transform="translate(5 -1806)"/><path class="cls-3" d="M845,2237s4,44,59,69c20.76,9.44,156,17,156-108Z" transform="translate(5 -1806)"/><ellipse class="cls-4" cx="952.5" cy="2218.5" rx="109.5" ry="50.5" transform="translate(-366.11 -1606.67) rotate(-10.01)"/><path class="cls-5" d="M900,2268c-29-1-54-23.71-54-31a78.43,78.43,0,0,1,24.6-22.42c20.15-11.8,47-21.09,75.73-26.16a266.17,266.17,0,0,1,46.13-4.18c37.22,0,58.66,10,65.54,14.64,1,4.72-1.61,22.56-15,33.12-19.63,15.48-50.31,28.94-79,34C948.27,2268.78,915,2270,900,2268Z" transform="translate(5 -1806)"/><path class="cls-6" d="M915,2309c3-2.65,7.39-10.78,10-16,3-6,10-5,9,1-1,6.24,0,8-3,12-4.33,5.77-5.34,20-2,23l144,107H973l-60-94c-16,0-32-40-40-50s-2-9-2-9,15.78,13.87,27,20C902.29,2305.34,915,2309,915,2309Z" transform="translate(5 -1806)"/><path class="cls-6" d="M1061.07,2223.69c-3.38,2.14-12.42,4.08-18.16,5.13-6.6,1.2-7.59,8.2-1.55,8.92,6.28.74,7.68,2.23,12.36.47,6.75-2.54,20.72.47,22.64,4.51L1125,2374V2267l-31.69-36c4.48-15.37-29.46-41.91-36.83-52.38s-8.08-4.44-8.08-4.44,8.91,19,11.66,31.52C1061.11,2210.46,1061.07,2223.69,1061.07,2223.69Z" transform="translate(5 -1806)"/><path class="cls-7" d="M969,2198.15a233.4,233.4,0,0,0-28.14,5q-13.92,3.26-27.5,7.75a190.84,190.84,0,0,0-26.4,10.64,56.09,56.09,0,0,0-11.74,7.62c-1.66,1.52-3.21,3.31-3.65,5.21a3.9,3.9,0,0,0,.33,2.69,7.08,7.08,0,0,0,2,2.25,22.62,22.62,0,0,0,6,3.08l1.64.64,1.67.58q1.66.59,3.36,1.08a119.27,119.27,0,0,0,13.75,3.21,176.54,176.54,0,0,0,28.23,2.41,195,195,0,0,0,28.35-1.81,138.7,138.7,0,0,0,14-2.67,80.67,80.67,0,0,0,13.52-4.43.14.14,0,0,1,.2.07.14.14,0,0,1-.06.19c-8.47,4.56-17.9,7-27.3,8.85a166.14,166.14,0,0,1-28.68,2.75,150.06,150.06,0,0,1-28.76-2.4,113.67,113.67,0,0,1-14.05-3.53c-1.15-.37-2.3-.75-3.43-1.18l-1.71-.63-1.68-.69a25.39,25.39,0,0,1-6.59-3.57,9.53,9.53,0,0,1-2.62-3.14,6.28,6.28,0,0,1-.45-4.28,9.87,9.87,0,0,1,1.82-3.6,19.47,19.47,0,0,1,2.62-2.74,57.79,57.79,0,0,1,12.33-7.74,193.55,193.55,0,0,1,26.83-10.32c9.14-2.83,18.42-5.21,27.77-7.19a235.36,235.36,0,0,1,28.32-4.37.15.15,0,1,1,0,.3Z" transform="translate(5 -1806)"/><path class="cls-7" d="M925.43,2219.36a122.54,122.54,0,0,1,22.27-8.25,190.27,190.27,0,0,1,23.3-4.8,186.78,186.78,0,0,1,23.76-1.86,104.3,104.3,0,0,1,12,.52,50,50,0,0,1,6,1,17.12,17.12,0,0,1,5.92,2.36,4.89,4.89,0,0,1,2.19,3.25,3.92,3.92,0,0,1-.36,2.14,6.83,6.83,0,0,1-1,1.56,20.18,20.18,0,0,1-5,3.95,73,73,0,0,1-10.91,5.2c-3.72,1.48-7.5,2.76-11.32,3.9s-7.66,2.21-11.53,3.1a207.79,207.79,0,0,1-23.46,4.23,131.4,131.4,0,0,1-23.78,1,.15.15,0,0,1-.14-.16.14.14,0,0,1,.14-.14c15.8-.7,31.32-3.82,46.53-7.74,3.8-1,7.59-2.06,11.34-3.23s7.46-2.42,11.12-3.8a79,79,0,0,0,10.57-4.79,18.08,18.08,0,0,0,4.37-3.27,2.54,2.54,0,0,0,.8-1.65,2.43,2.43,0,0,0-1.09-1.49,15,15,0,0,0-5-2.09,48.4,48.4,0,0,0-5.69-1.06,103.52,103.52,0,0,0-11.7-.74,183.73,183.73,0,0,0-23.55,1.37,195.17,195.17,0,0,0-23.27,4.16,121.92,121.92,0,0,0-22.37,7.62.15.15,0,0,1-.2-.08A.15.15,0,0,1,925.43,2219.36Z" transform="translate(5 -1806)"/><rect class="cls-8" x="615.25" y="433" width="116.75" height="143"/><polygon class="cls-9" points="615.25 433 567 444.85 567 556.25 615.25 576 615.25 433"/><rect class="cls-10" x="491.53" y="309" width="95.47" height="91"/><polygon class="cls-9" points="491.53 309 462 325 462 400 491.53 400 491.53 309"/><rect class="cls-8" x="399" y="400" width="196" height="181"/><polygon class="cls-9" points="399 400 318 415 318 556 399 581 399 400"/><text class="cls-11" transform="translate(415.04 460.85) scale(0.84 1)">DONATIONS</text><path class="cls-12" d="M308,2376c0-1,1-5-1-9s-6-4-4,1-9.47.53-5,5c1,1-7,3,0,4S308,2376,308,2376Z" transform="translate(5 -1806)"/><path class="cls-13" d="M305,2382c29,15,66,22,39,5s-28-16-31-17C308.76,2368.59,302.22,2380.56,305,2382Z" transform="translate(5 -1806)"/><path class="cls-12" d="M279.82,2379.16c0-.75.75-3.77-.76-6.78s-4.52-3-3,.75-7.13.4-3.77,3.77c.76.75-5.27,2.26,0,3S279.82,2379.16,279.82,2379.16Z" transform="translate(5 -1806)"/><path class="cls-13" d="M277.56,2383.68c21.84,11.3,49.71,16.57,29.37,3.76s-21.09-12.05-23.35-12.8C280.39,2373.57,275.46,2382.59,277.56,2383.68Z" transform="translate(5 -1806)"/><path class="cls-12" d="M359.88,2399c.46.61,1.65,3.47,4.66,5s5.43-.29,2-2.4,5.48-4.59.76-5.27c-1-.16,2.88-5-1.8-2.42S359.88,2399,359.88,2399Z" transform="translate(5 -1806)"/><path class="cls-13" d="M359,2394c-24.26,4-49.75,16.47-25.79,14.56s24.11-3,26.37-3.71C362.77,2403.78,361.32,2393.6,359,2394Z" transform="translate(5 -1806)"/></svg>