<svg id="Layer_1" data-name="Layer 1" xmlns="http://www.w3.org/2000/svg" viewBox="0 0 1130 630"><defs><style>.cls-1{fill:#77bc77;}.cls-2{fill:#5aad60;}.cls-3{fill:#876935;}.cls-4{fill:#8e733c;}.cls-5{fill:#ccc687;}.cls-6{fill:#e5e598;}.cls-7{fill:#72572f;}.cls-8{fill:#d8d19e;}</style></defs><path class="cls-1" d="M.5,1806c70,77.94,150.92,92.36,239.89,94.92,104,3,196.83-63.23,375.84-16,180.16,47.55,423.5,24.15,508.77-67v618H0Z" transform="translate(5 -1806)"/><path class="cls-2" d="M-5,2436c58.92-59,382.66-52.43,495.56-136,118.89-88,272.6-88.38,335.7-93,62.22-4.56,293.74-124,293.74-148v377Z" transform="translate(5 -1806)"/><path class="cls-3" d="M162.22,2426.87l-30,6.93c-5.67,1.31-11.38-1.87-12.7-7.07L88.08,2302.19c-1.31-5.2,2.25-10.52,7.92-11.83l30-6.93c5.67-1.32,11.38,1.86,12.7,7.06L170.14,2415C171.45,2420.23,167.89,2425.55,162.22,2426.87Z" transform="translate(5 -1806)"/><ellipse cx="98.36" cy="2298" rx="2.44" ry="1.59" transform="translate(-477.02 -1733.68) rotate(-12.16)"/><ellipse cx="128.11" cy="2291.11" rx="2.44" ry="1.59" transform="translate(-474.9 -1727.56) rotate(-12.16)"/><ellipse cx="130.12" cy="2423.65" rx="2.44" ry="1.59" transform="translate(-502.78 -1724.16) rotate(-12.16)"/><ellipse cx="159.87" cy="2416.77" rx="2.44" ry="1.59" transform="translate(-500.66 -1718.05) rotate(-12.16)"/><path class="cls-3" d="M76.18,2418l-12-8.13A10.39,10.39,0,0,1,61,2406L17.74,2304.23c-1.17-2.76-1.12-5,.16-4.94l13.18.63c1.6.08,3.91,2.76,5.09,5.91l41.6,111.35C78.3,2418.61,77.58,2419,76.18,2418Z" transform="translate(5 -1806)"/><path d="M23.44,2308c.39.93.33,1.63-.11,1.57s-1.1-.83-1.49-1.75-.34-1.63.1-1.59S23.06,2307.07,23.44,2308Z" transform="translate(5 -1806)"/><path d="M34.41,2309.23c.38,1,.26,1.75-.26,1.69s-1.24-.92-1.62-1.9-.28-1.76.24-1.71S34,2308.22,34.41,2309.23Z" transform="translate(5 -1806)"/><path d="M63.8,2405.69c.19.48,0,.64-.4.36a3.45,3.45,0,0,1-1.11-1.34c-.19-.47,0-.64.39-.37A3.51,3.51,0,0,1,63.8,2405.69Z" transform="translate(5 -1806)"/><path d="M73.82,2412.26c.18.49,0,.64-.51.33a3.44,3.44,0,0,1-1.17-1.43c-.19-.49,0-.64.49-.34A3.58,3.58,0,0,1,73.82,2412.26Z" transform="translate(5 -1806)"/><path class="cls-4" d="M115.26,2434l-30.17-9.68c-2.92-.94-5.76-3-6.35-4.58L36,2305.47c-1.11-3,.71-5.78,4.13-6.23l37-4.95c4.69-.62,9.41,1.88,10.33,5.53L121.14,2433C121.59,2434.76,118.9,2435.2,115.26,2434Z" transform="translate(5 -1806)"/><path d="M48.81,2307.93a1.53,1.53,0,0,1-1.53,2,2.75,2.75,0,0,1-2.76-1.61,1.53,1.53,0,0,1,1.48-2A2.77,2.77,0,0,1,48.81,2307.93Z" transform="translate(5 -1806)"/><path d="M79.38,2305c.31,1.14-.65,2.18-2.14,2.3a3.05,3.05,0,0,1-3.24-1.79c-.33-1.13.6-2.17,2.08-2.32A3.06,3.06,0,0,1,79.38,2305Z" transform="translate(5 -1806)"/><path d="M87.39,2419.32c.19.56-.48.76-1.5.45a3.64,3.64,0,0,1-2.2-1.57c-.2-.56.46-.77,1.48-.46A3.59,3.59,0,0,1,87.39,2419.32Z" transform="translate(5 -1806)"/><path d="M112.82,2427c.17.6-.69.78-1.89.42a4,4,0,0,1-2.47-1.73c-.17-.59.66-.79,1.86-.43S112.66,2426.37,112.82,2427Z" transform="translate(5 -1806)"/><path class="cls-3" d="M204.57,2388.33l6.77-12.47a9.94,9.94,0,0,0,1-4.91L202.2,2261.56c-.28-3-1.4-4.94-2.5-4.32l-11.43,6.31c-1.38.77-2.16,4.17-1.7,7.49l16.18,117.23C203,2389.77,203.78,2389.78,204.57,2388.33Z" transform="translate(5 -1806)"/><path d="M198.92,2267.4c.11,1,.49,1.6.86,1.35a2.79,2.79,0,0,0,.48-2.2c-.1-1-.48-1.61-.85-1.38A2.81,2.81,0,0,0,198.92,2267.4Z" transform="translate(5 -1806)"/><path d="M189.76,2273.29c.13,1.05.6,1.67,1,1.39a2.83,2.83,0,0,0,.53-2.4c-.13-1.05-.58-1.69-1-1.42A2.85,2.85,0,0,0,189.76,2273.29Z" transform="translate(5 -1806)"/><path d="M209.69,2371.94c.06.51.29.57.53.15a3.34,3.34,0,0,0,.34-1.68c-.05-.51-.29-.58-.53-.16A3.34,3.34,0,0,0,209.69,2371.94Z" transform="translate(5 -1806)"/><path d="M203.92,2382.17c.06.51.33.54.6.07a3.44,3.44,0,0,0,.37-1.79c-.07-.52-.34-.56-.61-.09A3.39,3.39,0,0,0,203.92,2382.17Z" transform="translate(5 -1806)"/><path class="cls-4" d="M177.45,2419.65l22.21-21.8c2.16-2.12,3.7-5.18,3.46-6.86l-16.6-120.33c-.43-3.12-3.39-4.83-6.66-3.74l-35.26,11.77c-4.47,1.49-7.47,5.78-6.54,9.43l33.66,133.17C172.17,2423.06,174.77,2422.28,177.45,2419.65Z" transform="translate(5 -1806)"/><path d="M176.33,2278.43a1.6,1.6,0,0,0,2.32,1.13,2.61,2.61,0,0,0,1.69-2.65,1.6,1.6,0,0,0-2.29-1.16A2.62,2.62,0,0,0,176.33,2278.43Z" transform="translate(5 -1806)"/><path d="M147.76,2289.22c.26,1.16,1.61,1.65,3,1.11a2.9,2.9,0,0,0,2-3c-.25-1.14-1.57-1.67-3-1.15A2.9,2.9,0,0,0,147.76,2289.22Z" transform="translate(5 -1806)"/><path d="M195.21,2394.37c.1.59.8.47,1.56-.25a3.45,3.45,0,0,0,1.2-2.35c-.09-.59-.78-.49-1.54.23A3.43,3.43,0,0,0,195.21,2394.37Z" transform="translate(5 -1806)"/><path d="M176.25,2412.3c.14.6,1,.39,1.88-.46a3.74,3.74,0,0,0,1.37-2.62c-.13-.6-1-.41-1.86.44A3.7,3.7,0,0,0,176.25,2412.3Z" transform="translate(5 -1806)"/><rect class="cls-3" x="487.7" y="2194.19" width="59.8" height="180.94" rx="12" transform="translate(2807.27 -38.94) rotate(90)"/><ellipse cx="603.32" cy="461.43" rx="1.95" ry="2.81"/><ellipse cx="603.32" cy="496.6" rx="1.95" ry="2.81"/><ellipse cx="444.81" cy="461.43" rx="1.95" ry="2.81"/><ellipse cx="444.81" cy="496.6" rx="1.95" ry="2.81"/><path class="cls-3" d="M461.38,2208.77l13-11.09a12.92,12.92,0,0,1,5.58-2.49l133.16-19.57c3.61-.53,6.27.16,5.85,1.57l-4.39,14.55c-.52,1.76-4.36,3.58-8.45,4l-144.17,15C460.1,2211,459.87,2210.06,461.38,2208.77Z" transform="translate(5 -1806)"/><path d="M607.05,2180.93c-1.21.16-2-.09-1.84-.57s1.3-1,2.49-1.17,2,.08,1.87.56S608.27,2180.76,607.05,2180.93Z" transform="translate(5 -1806)"/><path d="M602.57,2192.83c-1.3.14-2.17-.2-2-.76s1.43-1.13,2.71-1.28,2.18.18,2,.75S603.87,2192.68,602.57,2192.83Z" transform="translate(5 -1806)"/><path d="M479.5,2198.42c-.62.08-.76-.17-.32-.55a4.15,4.15,0,0,1,1.91-.85c.62-.09.77.15.33.54A4.31,4.31,0,0,1,479.5,2198.42Z" transform="translate(5 -1806)"/><path d="M468.91,2207.76c-.64.07-.75-.23-.25-.66a4.31,4.31,0,0,1,2-.91c.64-.07.76.21.27.65A4.5,4.5,0,0,1,468.91,2207.76Z" transform="translate(5 -1806)"/><path class="cls-4" d="M431.54,2247.9l19.85-31c1.93-3,5.15-5.59,7.22-5.81l148-15.43a5.55,5.55,0,0,1,6.3,6.38l-4.31,42.71c-.55,5.41-4.83,10-9.44,10h-168C428.93,2254.77,429.14,2251.64,431.54,2247.9Z" transform="translate(5 -1806)"/><path d="M600.14,2209.28a1.85,1.85,0,0,1-2-2.28,3.2,3.2,0,0,1,2.69-2.63,1.85,1.85,0,0,1,2,2.23A3.19,3.19,0,0,1,600.14,2209.28Z" transform="translate(5 -1806)"/><path d="M595.16,2244.24c-1.45,0-2.42-1.34-2.16-3a3.53,3.53,0,0,1,3-3.11c1.43,0,2.41,1.28,2.19,3A3.53,3.53,0,0,1,595.16,2244.24Z" transform="translate(5 -1806)"/><path d="M456.76,2220.92c-.72.06-.78-.75-.12-1.8a4.26,4.26,0,0,1,2.47-2c.72-.06.79.73.14,1.78A4.23,4.23,0,0,1,456.76,2220.92Z" transform="translate(5 -1806)"/><path d="M440.62,2247.17c-.76,0-.74-1,0-2.23s2-2.25,2.74-2.27.76,1,0,2.2S441.38,2247.16,440.62,2247.17Z" transform="translate(5 -1806)"/><path class="cls-3" d="M461.38,2360.57l13,11.08a12.92,12.92,0,0,0,5.58,2.49l133.16,19.57c3.61.53,6.27-.16,5.85-1.57l-4.39-14.55c-.52-1.76-4.36-3.58-8.45-4l-144.17-15C460.1,2358.36,459.87,2359.27,461.38,2360.57Z" transform="translate(5 -1806)"/><path d="M607.05,2388.4c-1.21-.16-2,.1-1.84.57s1.3,1,2.49,1.17,2-.08,1.87-.56S608.27,2388.57,607.05,2388.4Z" transform="translate(5 -1806)"/><path d="M602.57,2376.5c-1.3-.14-2.17.2-2,.76s1.43,1.13,2.71,1.28,2.18-.18,2-.74S603.87,2376.65,602.57,2376.5Z" transform="translate(5 -1806)"/><path d="M479.5,2370.92c-.62-.09-.76.16-.32.54a4.15,4.15,0,0,0,1.91.85c.62.09.77-.15.33-.54A4.3,4.3,0,0,0,479.5,2370.92Z" transform="translate(5 -1806)"/><path d="M468.91,2361.58c-.64-.08-.75.22-.25.65a4.31,4.31,0,0,0,2,.91c.64.08.76-.21.27-.65A4.38,4.38,0,0,0,468.91,2361.58Z" transform="translate(5 -1806)"/><path class="cls-4" d="M431.54,2321.43l19.85,31c1.93,3,5.15,5.58,7.22,5.8l148,15.43a5.55,5.55,0,0,0,6.3-6.38l-4.31-42.71c-.55-5.41-4.83-10-9.44-10h-168C428.93,2314.56,429.14,2317.69,431.54,2321.43Z" transform="translate(5 -1806)"/><path d="M600.14,2360.05a1.85,1.85,0,0,0-2,2.28,3.2,3.2,0,0,0,2.69,2.63,1.85,1.85,0,0,0,2-2.23A3.19,3.19,0,0,0,600.14,2360.05Z" transform="translate(5 -1806)"/><path d="M595.16,2325.09c-1.45,0-2.42,1.34-2.16,3a3.53,3.53,0,0,0,3,3.11c1.43.05,2.41-1.28,2.19-3A3.53,3.53,0,0,0,595.16,2325.09Z" transform="translate(5 -1806)"/><path d="M456.76,2348.41c-.72-.06-.78.75-.12,1.8a4.22,4.22,0,0,0,2.47,2c.72.07.79-.73.14-1.78A4.23,4.23,0,0,0,456.76,2348.41Z" transform="translate(5 -1806)"/><path d="M440.62,2322.16c-.76,0-.74,1,0,2.23s2,2.25,2.74,2.27.76-1,0-2.2S441.38,2322.17,440.62,2322.16Z" transform="translate(5 -1806)"/><path class="cls-5" d="M306.85,2334q.57-33,.26-65.92c-.14-22-.53-43.94-1.35-65.88s-2.2-43.86-4-65.71c-.87-10.93-2.07-21.83-3.79-32.63a150.78,150.78,0,0,0-3.32-16.05,68.34,68.34,0,0,0-2.55-7.76,23.31,23.31,0,0,0-4.16-6.94l.2-.22a22.11,22.11,0,0,1,4.75,6.81,68.52,68.52,0,0,1,3.07,7.72,149.24,149.24,0,0,1,4.07,16.06c2.17,10.83,3.53,21.78,4.72,32.73,2.23,21.92,2.93,43.93,3.45,65.91s.61,44,.45,66-.68,44-1.46,65.92Z" transform="translate(5 -1806)"/><path class="cls-6" d="M291.77,2078.58C292,2075,292,2065,294,2068S291.77,2078.58,291.77,2078.58Z" transform="translate(5 -1806)"/><path class="cls-6" d="M292.77,2081.58C293,2078,293,2068,295,2071S292.77,2081.58,292.77,2081.58Z" transform="translate(5 -1806)"/><path class="cls-6" d="M293.77,2083.58C294,2080,294,2070,296,2073S293.77,2083.58,293.77,2083.58Z" transform="translate(5 -1806)"/><path class="cls-6" d="M294.32,2085.18c.79-3.51,2.34-13.39,3.85-10.11S294.32,2085.18,294.32,2085.18Z" transform="translate(5 -1806)"/><path class="cls-6" d="M294.84,2088.3c.79-3.51,2.34-13.39,3.85-10.11S294.84,2088.3,294.84,2088.3Z" transform="translate(5 -1806)"/><path class="cls-6" d="M295.58,2090.44c.75-3.37,2.24-12.84,3.69-9.7S295.58,2090.44,295.58,2090.44Z" transform="translate(5 -1806)"/><path class="cls-6" d="M291.44,2078.23c-2.48-2.6-8.91-10.26-8.51-6.68S291.44,2078.23,291.44,2078.23Z" transform="translate(5 -1806)"/><path class="cls-6" d="M294.12,2083.34c-2.48-2.59-8.91-10.26-8.51-6.67S294.12,2083.34,294.12,2083.34Z" transform="translate(5 -1806)"/><path class="cls-6" d="M295.32,2087.64c-2.85-2.18-10.39-8.75-9.44-5.27S295.32,2087.64,295.32,2087.64Z" transform="translate(5 -1806)"/><path class="cls-6" d="M296.13,2089.76c-2.73-2.1-10-8.4-9.06-5.07S296.13,2089.76,296.13,2089.76Z" transform="translate(5 -1806)"/><path class="cls-5" d="M595.83,2414.67q30.63-12.18,60.92-25.17c20.22-8.6,40.34-17.42,60.28-26.63s39.62-18.94,59.07-29c9.74-5,19.34-10.33,28.65-16.08a150.76,150.76,0,0,0,13.52-9.25,66.84,66.84,0,0,0,6.18-5.34,23.08,23.08,0,0,0,4.8-6.52l.28.11a22,22,0,0,1-4.45,7,67.84,67.84,0,0,1-5.94,5.81,150.15,150.15,0,0,1-13.25,9.95c-9.16,6.17-18.74,11.65-28.38,17C758.14,2347,738.1,2356.1,718,2365.06s-40.35,17.5-60.69,25.83-40.83,16.31-61.4,24.06Z" transform="translate(5 -1806)"/><path class="cls-6" d="M825.69,2302.31c3.4-1.16,12.63-5,10.63-2S825.69,2302.31,825.69,2302.31Z" transform="translate(5 -1806)"/><path class="cls-6" d="M823.31,2304.39c3.4-1.16,12.62-5,10.63-2S823.31,2304.39,823.31,2304.39Z" transform="translate(5 -1806)"/><path class="cls-6" d="M821.85,2306.09c3.4-1.17,12.62-5,10.63-2S821.85,2306.09,821.85,2306.09Z" transform="translate(5 -1806)"/><path class="cls-6" d="M820.59,2307.21c3.54-.63,13.25-3,10.81-.35S820.59,2307.21,820.59,2307.21Z" transform="translate(5 -1806)"/><path class="cls-6" d="M817.92,2308.9c3.53-.63,13.25-3,10.81-.35S817.92,2308.9,817.92,2308.9Z" transform="translate(5 -1806)"/><path class="cls-6" d="M816.23,2310.4c3.39-.6,12.71-2.88,10.37-.34S816.23,2310.4,816.23,2310.4Z" transform="translate(5 -1806)"/><path class="cls-6" d="M825.9,2301.87c1.44-3.29,6-12.17,2.88-10.43S825.9,2301.87,825.9,2301.87Z" transform="translate(5 -1806)"/><path class="cls-6" d="M822.21,2306.31c1.44-3.28,6-12.17,2.88-10.42S822.21,2306.31,822.21,2306.31Z" transform="translate(5 -1806)"/><path class="cls-6" d="M818.7,2309.08c.91-3.47,4.08-13,1.23-10.74S818.7,2309.08,818.7,2309.08Z" transform="translate(5 -1806)"/><path class="cls-6" d="M817.07,2310.65c.87-3.34,3.91-12.44,1.18-10.31S817.07,2310.65,817.07,2310.65Z" transform="translate(5 -1806)"/><path class="cls-5" d="M260.84,2338.37q15.06-29.32,29.33-59c9.57-19.78,18.92-39.66,27.88-59.71s17.38-40.33,25.38-60.74c4-10.19,7.77-20.5,11-31a150,150,0,0,0,4.1-15.86,64.81,64.81,0,0,0,1.14-8.09,23.09,23.09,0,0,0-.67-8.07l.28-.1a22.21,22.21,0,0,1,1.26,8.2,67.61,67.61,0,0,1-.66,8.29,151.07,151.07,0,0,1-3.43,16.21c-2.84,10.67-6.45,21.1-10.22,31.44-7.67,20.66-16.76,40.72-26,60.67s-18.87,39.72-28.72,59.38-20,39.14-30.41,58.51Z" transform="translate(5 -1806)"/><path class="cls-6" d="M360.06,2102.53c1.79-3.11,6.21-12.08,6.68-8.51S360.06,2102.53,360.06,2102.53Z" transform="translate(5 -1806)"/><path class="cls-6" d="M359.63,2105.67c1.79-3.12,6.21-12.09,6.68-8.51S359.63,2105.67,359.63,2105.67Z" transform="translate(5 -1806)"/><path class="cls-6" d="M359.65,2107.9c1.79-3.11,6.2-12.08,6.67-8.51S359.65,2107.9,359.65,2107.9Z" transform="translate(5 -1806)"/><path class="cls-6" d="M359.44,2109.58c2.25-2.8,8-11,7.91-7.38S359.44,2109.58,359.44,2109.58Z" transform="translate(5 -1806)"/><path class="cls-6" d="M358.53,2112.61c2.25-2.8,8-11,7.92-7.38S358.53,2112.61,358.53,2112.61Z" transform="translate(5 -1806)"/><path class="cls-6" d="M358.25,2114.85c2.16-2.68,7.67-10.53,7.59-7.07S358.25,2114.85,358.25,2114.85Z" transform="translate(5 -1806)"/><path class="cls-6" d="M359.92,2102.07c-1.08-3.43-3.46-13.14-4.69-9.75S359.92,2102.07,359.92,2102.07Z" transform="translate(5 -1806)"/><path class="cls-6" d="M360.07,2107.84c-1.08-3.42-3.47-13.14-4.69-9.75S360.07,2107.84,360.07,2107.84Z" transform="translate(5 -1806)"/><path class="cls-6" d="M359.25,2112.23c-1.6-3.21-5.46-12.44-6.15-8.9S359.25,2112.23,359.25,2112.23Z" transform="translate(5 -1806)"/><path class="cls-6" d="M359,2114.48c-1.53-3.08-5.23-11.93-5.89-8.54S359,2114.48,359,2114.48Z" transform="translate(5 -1806)"/><path class="cls-5" d="M272.84,2371.37q15.06-29.32,29.33-59c9.57-19.78,18.92-39.66,27.88-59.71s17.38-40.33,25.38-60.74c4-10.19,7.77-20.5,11-31a150,150,0,0,0,4.1-15.86,64.81,64.81,0,0,0,1.14-8.09,23.09,23.09,0,0,0-.67-8.07l.28-.1a22.21,22.21,0,0,1,1.26,8.2,67.61,67.61,0,0,1-.66,8.29,151.07,151.07,0,0,1-3.43,16.21c-2.84,10.67-6.45,21.1-10.22,31.44-7.67,20.66-16.76,40.72-26,60.67s-18.87,39.72-28.72,59.38-20,39.14-30.41,58.51Z" transform="translate(5 -1806)"/><path class="cls-6" d="M372.06,2135.53c1.79-3.11,6.21-12.08,6.68-8.51S372.06,2135.53,372.06,2135.53Z" transform="translate(5 -1806)"/><path class="cls-6" d="M371.63,2138.67c1.79-3.12,6.21-12.09,6.68-8.51S371.63,2138.67,371.63,2138.67Z" transform="translate(5 -1806)"/><path class="cls-6" d="M371.65,2140.9c1.79-3.11,6.2-12.08,6.67-8.51S371.65,2140.9,371.65,2140.9Z" transform="translate(5 -1806)"/><path class="cls-6" d="M371.44,2142.58c2.25-2.8,8-11,7.91-7.38S371.44,2142.58,371.44,2142.58Z" transform="translate(5 -1806)"/><path class="cls-6" d="M370.53,2145.61c2.25-2.8,8-11,7.92-7.38S370.53,2145.61,370.53,2145.61Z" transform="translate(5 -1806)"/><path class="cls-6" d="M370.25,2147.85c2.16-2.68,7.67-10.53,7.59-7.07S370.25,2147.85,370.25,2147.85Z" transform="translate(5 -1806)"/><path class="cls-6" d="M371.92,2135.07c-1.08-3.43-3.46-13.14-4.69-9.75S371.92,2135.07,371.92,2135.07Z" transform="translate(5 -1806)"/><path class="cls-6" d="M372.07,2140.84c-1.08-3.42-3.47-13.14-4.69-9.75S372.07,2140.84,372.07,2140.84Z" transform="translate(5 -1806)"/><path class="cls-6" d="M371.25,2145.23c-1.6-3.21-5.46-12.44-6.15-8.9S371.25,2145.23,371.25,2145.23Z" transform="translate(5 -1806)"/><path class="cls-6" d="M371,2147.48c-1.53-3.08-5.23-11.93-5.89-8.54S371,2147.48,371,2147.48Z" transform="translate(5 -1806)"/><path class="cls-3" d="M329.68,2400.16,286.52,2405A10.57,10.57,0,0,1,275,2395.5L256,2218.24a10.72,10.72,0,0,1,9.28-11.85l43.16-4.85a10.57,10.57,0,0,1,11.56,9.51L339,2388.3A10.71,10.71,0,0,1,329.68,2400.16Z" transform="translate(5 -1806)"/><ellipse cx="269.57" cy="2216.74" rx="3.03" ry="2.15" transform="translate(-253.07 -1759.1) rotate(-6.73)"/><ellipse cx="307.22" cy="2212.51" rx="3.03" ry="2.15" transform="translate(-252.32 -1754.71) rotate(-6.73)"/><ellipse cx="288.16" cy="2390.74" rx="3.03" ry="2.15" transform="translate(-273.35 -1755.72) rotate(-6.73)"/><ellipse cx="325.81" cy="2386.51" rx="3.03" ry="2.15" transform="translate(-272.59 -1751.33) rotate(-6.73)"/><path class="cls-3" d="M222.85,2374.12l-13.39-12.93a14.36,14.36,0,0,1-3.32-5.83l-36.56-143.81c-1-3.9-.56-6.9,1-6.6l16.08,3.05c2,.37,4.35,4.37,5.28,8.8l33,156.45C225.36,2375.25,224.41,2375.63,222.85,2374.12Z" transform="translate(5 -1806)"/><path d="M176,2217.56c.32,1.31.14,2.24-.39,2.1s-1.22-1.31-1.54-2.6-.16-2.25.37-2.12S175.65,2216.25,176,2217.56Z" transform="translate(5 -1806)"/><path d="M189.23,2221.06c.31,1.4.05,2.39-.58,2.22s-1.38-1.43-1.69-2.82-.06-2.41.57-2.25S188.92,2219.64,189.23,2221.06Z" transform="translate(5 -1806)"/><path d="M209.65,2355.48c.16.66-.09.85-.55.41a4.79,4.79,0,0,1-1.14-2c-.16-.67.08-.86.54-.43A4.72,4.72,0,0,1,209.65,2355.48Z" transform="translate(5 -1806)"/><path d="M220.89,2366c.15.69-.16.84-.68.35a4.77,4.77,0,0,1-1.21-2.11c-.15-.69.14-.86.66-.37A4.82,4.82,0,0,1,220.89,2366Z" transform="translate(5 -1806)"/><path class="cls-4" d="M268.23,2402.17l-35.47-18.07c-3.44-1.75-6.58-5-7.06-7.22l-33.86-160.59a6.08,6.08,0,0,1,6.08-7.68l46.22-.4c5.86-.06,11.24,4.1,11.78,9.15l19.71,184.41C275.89,2404.21,272.52,2404.36,268.23,2402.17Z" transform="translate(5 -1806)"/><path d="M207.12,2221.74a2,2,0,0,1-2.2,2.46,3.47,3.47,0,0,1-3.13-2.64,2,2,0,0,1,2.15-2.48A3.45,3.45,0,0,1,207.12,2221.74Z" transform="translate(5 -1806)"/><path d="M245.13,2223c.2,1.59-1.16,2.81-3,2.74a3.83,3.83,0,0,1-3.68-3c-.22-1.57,1.09-2.81,2.93-2.76A3.81,3.81,0,0,1,245.13,2223Z" transform="translate(5 -1806)"/><path d="M236.4,2377.73c.15.79-.71.94-1.92.35a4.64,4.64,0,0,1-2.43-2.47c-.16-.78.69-1,1.89-.37A4.63,4.63,0,0,1,236.4,2377.73Z" transform="translate(5 -1806)"/><path d="M266.39,2392.29c.1.83-1,.93-2.4.23s-2.64-1.91-2.75-2.73.94-.95,2.36-.26S266.28,2391.46,266.39,2392.29Z" transform="translate(5 -1806)"/><path class="cls-3" d="M385.31,2355.86l10.34-15.6a14.55,14.55,0,0,0,2-6.42L403,2185.31c.14-4-.91-6.86-2.37-6.22l-15.06,6.56c-1.82.79-3.32,5.22-3.3,9.76l.83,160.06C383.1,2357.53,384.11,2357.68,385.31,2355.86Z" transform="translate(5 -1806)"/><path d="M398,2192.61c0,1.34.34,2.21.83,1.95s.91-1.55.95-2.88-.32-2.23-.82-2S398.06,2191.25,398,2192.61Z" transform="translate(5 -1806)"/><path d="M385.81,2199c0,1.44.46,2.35,1,2s1-1.7,1-3.13-.45-2.36-1-2.07S385.81,2197.51,385.81,2199Z" transform="translate(5 -1806)"/><path d="M394.26,2334.72c0,.69.26.82.63.29a4.82,4.82,0,0,0,.68-2.2c0-.69-.25-.82-.61-.3A4.76,4.76,0,0,0,394.26,2334.72Z" transform="translate(5 -1806)"/><path d="M385.51,2347.48c0,.7.33.79.73.19a5,5,0,0,0,.74-2.33c0-.71-.32-.81-.73-.22A4.85,4.85,0,0,0,385.51,2347.48Z" transform="translate(5 -1806)"/><path class="cls-4" d="M346.93,2393.33l30.81-25.52c3-2.48,5.38-6.33,5.36-8.62l-.84-164.3a6,6,0,0,0-7.56-6.14l-45.21,9.86c-5.73,1.25-10.11,6.51-9.57,11.56l19.7,184.4C339.88,2397,343.21,2396.41,346.93,2393.33Z" transform="translate(5 -1806)"/><path d="M368.49,2203.6a2,2,0,0,0,2.67,1.91,3.52,3.52,0,0,0,2.5-3.27,2,2,0,0,0-2.63-1.94A3.49,3.49,0,0,0,368.49,2203.6Z" transform="translate(5 -1806)"/><path d="M331.65,2213.28c.14,1.59,1.72,2.48,3.51,2a3.9,3.9,0,0,0,3-3.71c-.13-1.58-1.66-2.5-3.45-2A3.88,3.88,0,0,0,331.65,2213.28Z" transform="translate(5 -1806)"/><path d="M372.84,2362.39c0,.8.9.76,2-.08a4.74,4.74,0,0,0,1.86-2.95c0-.8-.88-.78-1.93,0A4.73,4.73,0,0,0,372.84,2362.39Z" transform="translate(5 -1806)"/><path d="M346.64,2383.27c.07.83,1.15.69,2.39-.31s2.17-2.45,2.11-3.28-1.12-.71-2.36.27S346.57,2382.43,346.64,2383.27Z" transform="translate(5 -1806)"/><path class="cls-3" d="M845,2237s4,44,59,69c20.76,9.44,156,17,156-108Z" transform="translate(5 -1806)"/><ellipse class="cls-4" cx="952.5" cy="2218.5" rx="109.5" ry="50.5" transform="translate(-366.11 -1606.67) rotate(-10.01)"/><path class="cls-7" d="M931.17,2270.76c-27.35,0-44.11-2.33-49.17-5.76a73.36,73.36,0,0,1,20.28-18.46c14.81-8.68,34.57-15.51,55.66-19.23a195.76,195.76,0,0,1,33.89-3.07c27.35,0,43.11,7.33,48.17,10.76-2.21,3.09-8.92,7.39-19.28,13.46-14.81,8.68-34.57,15.51-55.66,19.23A195.76,195.76,0,0,1,931.17,2270.76Z" transform="translate(5 -1806)"/><ellipse class="cls-6" cx="934" cy="440" rx="5" ry="3"/><path class="cls-5" d="M934,2246c0,1.66-2.24,0-5,0s-5,1.66-5,0S934,2244.34,934,2246Z" transform="translate(5 -1806)"/><ellipse class="cls-6" cx="921" cy="445" rx="5" ry="3"/><path class="cls-5" d="M921,2251c0,1.66-2.24,0-5,0s-5,1.66-5,0S921,2249.34,921,2251Z" transform="translate(5 -1806)"/><ellipse class="cls-6" cx="951" cy="2251" rx="3" ry="5" transform="translate(-1387.6 1137.06) rotate(-83.55)"/><path class="cls-5" d="M956,2251.56c-.19,1.65-2.23-.25-5-.56s-5.15,1.08-5-.56S956.15,2249.92,956,2251.56Z" transform="translate(5 -1806)"/><ellipse class="cls-6" cx="934" cy="2254" rx="5" ry="3" transform="translate(-802.11 -1261.21) rotate(-23.02)"/><path class="cls-5" d="M938.6,2252c.65,1.53-2.06.88-4.6,2s-4,3.48-4.6,2S938,2250.52,938.6,2252Z" transform="translate(5 -1806)"/><ellipse class="cls-6" cx="968" cy="2253" rx="5" ry="3" transform="translate(-799.01 -1248) rotate(-23.02)"/><path class="cls-5" d="M972.6,2251c.65,1.53-2.06.88-4.6,2s-4,3.48-4.6,2S972,2249.52,972.6,2251Z" transform="translate(5 -1806)"/><ellipse class="cls-6" cx="959" cy="2245" rx="3" ry="5" transform="translate(-1475.26 537.63) rotate(-69.18)"/><path class="cls-5" d="M963.67,2246.78c-.59,1.55-2.09-.8-4.67-1.78s-5.26-.23-4.67-1.78S964.26,2245.23,963.67,2246.78Z" transform="translate(5 -1806)"/><path class="cls-8" d="M915,2309c3-2.65,7.39-10.78,10-16,3-6,10-5,9,1-1,6.24,0,8-3,12-4.33,5.77-5.34,20-2,23l144,107H973l-60-94c-16,0-32-40-40-50s-2-9-2-9,15.78,13.87,27,20C902.29,2305.34,915,2309,915,2309Z" transform="translate(5 -1806)"/><path class="cls-8" d="M1061.07,2223.69c-3.38,2.14-12.42,4.08-18.16,5.13-6.6,1.2-7.59,8.2-1.55,8.92,6.28.74,7.68,2.23,12.36.47,6.75-2.54,20.72.47,22.64,4.51L1125,2374V2267l-31.69-36c4.48-15.37-29.46-41.91-36.83-52.38s-8.08-4.44-8.08-4.44,8.91,19,11.66,31.52C1061.11,2210.46,1061.07,2223.69,1061.07,2223.69Z" transform="translate(5 -1806)"/></svg>