<svg id="Layer_1" data-name="Layer 1" xmlns="http://www.w3.org/2000/svg" viewBox="0 0 1130 630"><defs><style>.cls-1{fill:#77bc77;}.cls-2{fill:#5aad60;}.cls-3{fill:#876935;}.cls-4{fill:#8e733c;}.cls-5{fill:#ccc687;}.cls-6{fill:#e5e598;}</style></defs><path class="cls-1" d="M.5,1806c70,77.94,150.92,92.36,239.89,94.92,104,3,196.83-63.23,375.84-16,180.16,47.55,423.5,24.15,508.77-67v618H0Z" transform="translate(5 -1806)"/><path class="cls-2" d="M-5,2436c58.92-59,382.66-52.43,495.56-136,118.89-88,272.6-88.38,335.7-93,62.22-4.56,293.74-124,293.74-148v377Z" transform="translate(5 -1806)"/><path class="cls-3" d="M406.15,2395.51l-30.55,3.42c-5.79.65-11.1-3.17-11.8-8.49L346.94,2263.1c-.7-5.32,3.46-10.2,9.24-10.84l30.56-3.42c5.78-.65,11.09,3.17,11.79,8.49l16.86,127.34C416.09,2390,411.94,2394.87,406.15,2395.51Z" transform="translate(5 -1806)"/><ellipse cx="357.64" cy="2260.12" rx="2.44" ry="1.59" transform="translate(-210.67 -1761.14) rotate(-5.52)"/><ellipse cx="387.98" cy="2256.72" rx="2.44" ry="1.59" transform="translate(-210.21 -1758.23) rotate(-5.52)"/><ellipse cx="374.64" cy="2388.6" rx="2.44" ry="1.59" transform="translate(-222.95 -1758.91) rotate(-5.52)"/><ellipse cx="404.99" cy="2385.21" rx="2.44" ry="1.59" transform="translate(-222.48 -1756) rotate(-5.52)"/><path class="cls-3" d="M321.72,2376.78l-11-9.46A10.63,10.63,0,0,1,308,2363L276.84,2257c-.84-2.88-.53-5.09.73-4.89l13,2.15c1.58.26,3.56,3.2,4.37,6.46l28.44,115.42C323.76,2377.6,323,2377.88,321.72,2376.78Z" transform="translate(5 -1806)"/><path d="M282.07,2261.38c.27,1,.14,1.66-.3,1.55s-1-1-1.27-1.91-.15-1.66.28-1.57S281.8,2260.41,282.07,2261.38Z" transform="translate(5 -1806)"/><path d="M292.82,2263.87c.26,1,.06,1.77-.45,1.65s-1.12-1.05-1.39-2.07-.08-1.79.43-1.67S292.55,2262.83,292.82,2263.87Z" transform="translate(5 -1806)"/><path d="M310.84,2363.09c.14.49,0,.63-.43.31a3.48,3.48,0,0,1-.94-1.46c-.15-.5,0-.64.43-.33A3.48,3.48,0,0,1,310.84,2363.09Z" transform="translate(5 -1806)"/><path d="M320,2370.78c.13.5-.12.62-.54.26a3.46,3.46,0,0,1-1-1.55c-.14-.51.1-.64.53-.28A3.49,3.49,0,0,1,320,2370.78Z" transform="translate(5 -1806)"/><path class="cls-4" d="M358.68,2397.2l-28.84-13.11c-2.8-1.27-5.38-3.64-5.78-5.29l-29.19-118.47c-.76-3.07,1.37-5.66,4.82-5.72L337,2254c4.73-.07,9.13,3,9.62,6.69l18,136.17C364.89,2398.65,362.17,2398.78,358.68,2397.2Z" transform="translate(5 -1806)"/><path d="M307.27,2264.25c.23,1.05-.56,1.87-1.75,1.83a2.75,2.75,0,0,1-2.56-1.93c-.24-1,.52-1.86,1.71-1.84A2.73,2.73,0,0,1,307.27,2264.25Z" transform="translate(5 -1806)"/><path d="M338,2264.92c.18,1.17-.9,2.08-2.39,2a3.07,3.07,0,0,1-3-2.16c-.19-1.16.85-2.09,2.34-2.07A3.06,3.06,0,0,1,338,2264.92Z" transform="translate(5 -1806)"/><path d="M332.7,2379.35c.13.58-.56.7-1.54.28a3.65,3.65,0,0,1-2-1.81c-.13-.58.55-.71,1.52-.29A3.61,3.61,0,0,1,332.7,2379.35Z" transform="translate(5 -1806)"/><path d="M357.08,2389.9c.09.61-.77.7-1.93.19s-2.15-1.39-2.25-2,.74-.7,1.9-.21S357,2389.29,357.08,2389.9Z" transform="translate(5 -1806)"/><path class="cls-3" d="M452.68,2362.13l8.18-11.6a10,10,0,0,0,1.54-4.76l2.6-109.83c.07-3-.82-5.06-2-4.58l-12.08,4.95c-1.46.6-2.62,3.89-2.55,7.24l2.5,118.32C450.91,2363.38,451.73,2363.49,452.68,2362.13Z" transform="translate(5 -1806)"/><path d="M461.07,2241.37c0,1,.3,1.64.69,1.44a2.81,2.81,0,0,0,.74-2.14c0-1-.29-1.65-.69-1.46S461.08,2240.37,461.07,2241.37Z" transform="translate(5 -1806)"/><path d="M451.28,2246.15c0,1.07.41,1.74.87,1.5a2.85,2.85,0,0,0,.81-2.32c0-1-.39-1.74-.86-1.52S451.27,2245.08,451.28,2246.15Z" transform="translate(5 -1806)"/><path d="M459.67,2346.45c0,.51.22.6.5.21a3.22,3.22,0,0,0,.53-1.63c0-.51-.21-.61-.5-.22A3.22,3.22,0,0,0,459.67,2346.45Z" transform="translate(5 -1806)"/><path d="M452.75,2355.94c0,.52.27.58.59.14a3.45,3.45,0,0,0,.57-1.73c0-.53-.27-.6-.59-.16A3.37,3.37,0,0,0,452.75,2355.94Z" transform="translate(5 -1806)"/><path class="cls-4" d="M422.12,2390.1,446.71,2371c2.38-1.85,4.27-4.71,4.23-6.41l-2.57-121.44c-.06-3.15-2.81-5.2-6.18-4.49l-36.38,7.61c-4.61,1-8.09,4.88-7.6,8.61l18,136.18C416.48,2392.88,419.15,2392.41,422.12,2390.1Z" transform="translate(5 -1806)"/><path d="M437.35,2249.7a1.61,1.61,0,0,0,2.18,1.4,2.63,2.63,0,0,0,2-2.44,1.6,1.6,0,0,0-2.14-1.42A2.62,2.62,0,0,0,437.35,2249.7Z" transform="translate(5 -1806)"/><path d="M407.72,2257.12c.13,1.18,1.42,1.82,2.86,1.45a2.92,2.92,0,0,0,2.36-2.76c-.12-1.16-1.37-1.83-2.81-1.49A2.92,2.92,0,0,0,407.72,2257.12Z" transform="translate(5 -1806)"/><path d="M442.69,2367.05c0,.6.73.56,1.57-.07a3.48,3.48,0,0,0,1.47-2.19c0-.6-.72-.57-1.56.05A3.41,3.41,0,0,0,442.69,2367.05Z" transform="translate(5 -1806)"/><path d="M421.77,2382.67c.07.61.94.5,1.93-.24a3.73,3.73,0,0,0,1.66-2.44c-.06-.61-.91-.52-1.9.21A3.75,3.75,0,0,0,421.77,2382.67Z" transform="translate(5 -1806)"/><path class="cls-3" d="M253.23,2423.71l-48.76,8.88c-6.48,1.18-12.82-2.72-14.11-8.68L151.7,2244.32c-1.28-6,3-11.8,9.44-13l48.77-8.88c6.47-1.18,12.82,2.73,14.1,8.69l38.66,179.59C264,2416.7,259.7,2422.53,253.23,2423.71Z" transform="translate(5 -1806)"/><ellipse cx="167.02" cy="2241.55" rx="3.46" ry="2.22" transform="matrix(0.99, -0.16, 0.16, 0.99, -345.39, -1751.85)"/><ellipse cx="209.55" cy="2233.8" rx="3.46" ry="2.22" transform="translate(-343.64 -1745.26) rotate(-9.05)"/><ellipse cx="204.97" cy="2417.85" rx="3.46" ry="2.22" transform="translate(-372.64 -1743.69) rotate(-9.05)"/><ellipse cx="247.5" cy="2410.1" rx="3.46" ry="2.22" transform="translate(-370.89 -1737.1) rotate(-9.05)"/><path class="cls-3" d="M128.87,2406.77l-16.52-12a14.81,14.81,0,0,1-4.34-5.66l-55.55-143.8c-1.5-3.9-1.3-7,.5-6.84l18.64,1.67c2.26.2,5.38,4.07,6.87,8.51l52.7,157C131.85,2407.71,130.8,2408.17,128.87,2406.77Z" transform="translate(5 -1806)"/><path d="M60.33,2250.89c.49,1.31.37,2.28-.25,2.17s-1.52-1.22-2-2.52-.39-2.28.23-2.2S59.84,2249.57,60.33,2250.89Z" transform="translate(5 -1806)"/><path d="M75.79,2253.26c.49,1.41.28,2.44-.45,2.32s-1.71-1.34-2.19-2.73-.3-2.46.42-2.36S75.31,2251.84,75.79,2253.26Z" transform="translate(5 -1806)"/><path d="M112,2388.9c.25.67,0,.88-.59.48a5,5,0,0,1-1.49-1.93c-.25-.67,0-.9.58-.5A5.07,5.07,0,0,1,112,2388.9Z" transform="translate(5 -1806)"/><path d="M125.85,2398.63c.23.69-.1.87-.74.42a5,5,0,0,1-1.58-2.05c-.24-.69.08-.89.72-.44A5,5,0,0,1,125.85,2398.63Z" transform="translate(5 -1806)"/><path class="cls-4" d="M183.33,2431.35l-42.19-15.26c-4.09-1.48-8-4.5-8.75-6.75L78.3,2248.15c-1.4-4.18,1.33-8,6.21-8.41l52.68-4.62c6.67-.58,13.22,3.18,14.32,8.3l40.22,186.84C192.26,2432.74,188.43,2433.2,183.33,2431.35Z" transform="translate(5 -1806)"/><path d="M96.26,2252.33c.45,1.43-.58,2.64-2.27,2.71a3.92,3.92,0,0,1-3.82-2.41c-.45-1.41.53-2.64,2.21-2.73A3.91,3.91,0,0,1,96.26,2252.33Z" transform="translate(5 -1806)"/><path d="M139.74,2250.17c.38,1.61-1.05,3-3.17,3.07s-4.09-1.11-4.48-2.69,1-3,3.08-3.09S139.35,2248.55,139.74,2250.17Z" transform="translate(5 -1806)"/><path d="M144.68,2409.24c.24.79-.73,1-2.16.53s-2.76-1.52-3-2.3.69-1,2.11-.56S144.43,2408.44,144.68,2409.24Z" transform="translate(5 -1806)"/><path d="M180.28,2421.41c.2.83-1,1-2.71.45s-3.19-1.71-3.4-2.54,1-1.06,2.67-.48S180.08,2420.56,180.28,2421.41Z" transform="translate(5 -1806)"/><path class="cls-3" d="M312.43,2373.34l10.29-16.89a13.7,13.7,0,0,0,1.67-6.75l-8.22-152.42c-.22-4.13-1.69-6.93-3.3-6.15l-16.54,8.08c-2,1-3.29,5.65-2.82,10.28l16.34,163.66C310.06,2375.25,311.23,2375.31,312.43,2373.34Z" transform="translate(5 -1806)"/><path d="M311.21,2205.19c.09,1.39.6,2.24,1.13,1.93s.89-1.67.81-3-.58-2.25-1.12-1.95S311.12,2203.81,311.21,2205.19Z" transform="translate(5 -1806)"/><path d="M297.89,2212.8c.14,1.48.76,2.37,1.39,2s1-1.84.89-3.3-.74-2.38-1.37-2S297.76,2211.32,297.89,2212.8Z" transform="translate(5 -1806)"/><path d="M320.6,2350.91c0,.71.38.81.74.24a4.48,4.48,0,0,0,.57-2.31c0-.71-.37-.82-.73-.25A4.6,4.6,0,0,0,320.6,2350.91Z" transform="translate(5 -1806)"/><path d="M311.84,2364.75c.07.72.45.78.86.13a4.56,4.56,0,0,0,.61-2.45c-.06-.72-.44-.79-.84-.16A4.7,4.7,0,0,0,311.84,2364.75Z" transform="translate(5 -1806)"/><path class="cls-4" d="M272.25,2415.16l32.69-28.91c3.17-2.8,5.52-6.95,5.29-9.3l-16.78-168c-.43-4.35-4.53-6.91-9.22-5.6l-50.61,14.2c-6.41,1.8-10.91,7.57-9.8,12.69L264,2417.1C264.57,2419.57,268.3,2418.65,272.25,2415.16Z" transform="translate(5 -1806)"/><path d="M278.58,2219.12c.19,1.48,1.64,2.24,3.23,1.72a3.66,3.66,0,0,0,2.54-3.58,2.27,2.27,0,0,0-3.18-1.75A3.63,3.63,0,0,0,278.58,2219.12Z" transform="translate(5 -1806)"/><path d="M237.5,2232.37c.31,1.62,2.2,2.38,4.19,1.72s3.33-2.46,3-4.06-2.14-2.4-4.13-1.78S237.18,2230.74,237.5,2232.37Z" transform="translate(5 -1806)"/><path d="M298.83,2381.16c.1.82,1.1.7,2.22-.26s1.92-2.37,1.83-3.19-1.07-.72-2.19.23S298.73,2380.34,298.83,2381.16Z" transform="translate(5 -1806)"/><path d="M271,2404.89c.17.85,1.38.61,2.7-.53s2.24-2.7,2.09-3.54-1.34-.63-2.67.49S270.79,2404,271,2404.89Z" transform="translate(5 -1806)"/><rect class="cls-3" x="740.7" y="2158.19" width="59.8" height="180.94" rx="12" transform="translate(3024.27 -327.94) rotate(90)"/><ellipse cx="856.32" cy="425.43" rx="1.95" ry="2.81"/><ellipse cx="856.32" cy="460.6" rx="1.95" ry="2.81"/><ellipse cx="697.81" cy="425.43" rx="1.95" ry="2.81"/><ellipse cx="697.81" cy="460.6" rx="1.95" ry="2.81"/><path class="cls-3" d="M714.38,2172.77l13-11.09a12.92,12.92,0,0,1,5.58-2.49l133.16-19.57c3.61-.53,6.27.16,5.85,1.57l-4.39,14.55c-.52,1.76-4.36,3.58-8.45,4l-144.17,15C713.1,2175,712.87,2174.06,714.38,2172.77Z" transform="translate(5 -1806)"/><path d="M860.05,2144.93c-1.21.16-2-.09-1.84-.57s1.3-1,2.49-1.17,2,.08,1.87.56S861.27,2144.76,860.05,2144.93Z" transform="translate(5 -1806)"/><path d="M855.57,2156.83c-1.3.14-2.17-.2-2-.76s1.43-1.13,2.71-1.28,2.18.18,2,.75S856.87,2156.68,855.57,2156.83Z" transform="translate(5 -1806)"/><path d="M732.5,2162.42c-.62.08-.76-.17-.32-.55a4.15,4.15,0,0,1,1.91-.85c.62-.09.77.15.33.54A4.31,4.31,0,0,1,732.5,2162.42Z" transform="translate(5 -1806)"/><path d="M721.91,2171.76c-.64.07-.75-.23-.25-.66a4.31,4.31,0,0,1,2-.91c.64-.07.76.21.27.65A4.5,4.5,0,0,1,721.91,2171.76Z" transform="translate(5 -1806)"/><path class="cls-4" d="M684.54,2211.9l19.85-31c1.93-3,5.15-5.59,7.22-5.81l148-15.43a5.55,5.55,0,0,1,6.3,6.38l-4.31,42.71c-.55,5.41-4.83,10-9.44,10h-168C681.93,2218.77,682.14,2215.64,684.54,2211.9Z" transform="translate(5 -1806)"/><path d="M853.14,2173.28a1.85,1.85,0,0,1-2-2.28,3.2,3.2,0,0,1,2.69-2.63,1.85,1.85,0,0,1,2,2.23A3.19,3.19,0,0,1,853.14,2173.28Z" transform="translate(5 -1806)"/><path d="M848.16,2208.24c-1.45,0-2.42-1.34-2.16-3a3.53,3.53,0,0,1,3-3.11c1.43,0,2.41,1.28,2.19,3A3.53,3.53,0,0,1,848.16,2208.24Z" transform="translate(5 -1806)"/><path d="M709.76,2184.92c-.72.06-.78-.75-.12-1.8a4.26,4.26,0,0,1,2.47-2c.72-.06.79.73.14,1.78A4.23,4.23,0,0,1,709.76,2184.92Z" transform="translate(5 -1806)"/><path d="M693.62,2211.17c-.76,0-.74-1,0-2.23s2-2.25,2.74-2.27.76,1,0,2.2S694.38,2211.16,693.62,2211.17Z" transform="translate(5 -1806)"/><path class="cls-3" d="M714.38,2324.57l13,11.08a12.92,12.92,0,0,0,5.58,2.49l133.16,19.57c3.61.53,6.27-.16,5.85-1.57l-4.39-14.55c-.52-1.76-4.36-3.58-8.45-4l-144.17-15C713.1,2322.36,712.87,2323.27,714.38,2324.57Z" transform="translate(5 -1806)"/><path d="M860.05,2352.4c-1.21-.16-2,.1-1.84.57s1.3,1,2.49,1.17,2-.08,1.87-.56S861.27,2352.57,860.05,2352.4Z" transform="translate(5 -1806)"/><path d="M855.57,2340.5c-1.3-.14-2.17.2-2,.76s1.43,1.13,2.71,1.28,2.18-.18,2-.74S856.87,2340.65,855.57,2340.5Z" transform="translate(5 -1806)"/><path d="M732.5,2334.92c-.62-.09-.76.16-.32.54a4.15,4.15,0,0,0,1.91.85c.62.09.77-.15.33-.54A4.3,4.3,0,0,0,732.5,2334.92Z" transform="translate(5 -1806)"/><path d="M721.91,2325.58c-.64-.08-.75.22-.25.65a4.31,4.31,0,0,0,2,.91c.64.08.76-.21.27-.65A4.38,4.38,0,0,0,721.91,2325.58Z" transform="translate(5 -1806)"/><path class="cls-4" d="M684.54,2285.43l19.85,31c1.93,3,5.15,5.58,7.22,5.8l148,15.43a5.55,5.55,0,0,0,6.3-6.38l-4.31-42.71c-.55-5.41-4.83-10-9.44-10h-168C681.93,2278.56,682.14,2281.69,684.54,2285.43Z" transform="translate(5 -1806)"/><path d="M853.14,2324.05a1.85,1.85,0,0,0-2,2.28,3.2,3.2,0,0,0,2.69,2.63,1.85,1.85,0,0,0,2-2.23A3.19,3.19,0,0,0,853.14,2324.05Z" transform="translate(5 -1806)"/><path d="M848.16,2289.09c-1.45,0-2.42,1.34-2.16,3a3.53,3.53,0,0,0,3,3.11c1.43.05,2.41-1.28,2.19-3A3.53,3.53,0,0,0,848.16,2289.09Z" transform="translate(5 -1806)"/><path d="M709.76,2312.41c-.72-.06-.78.75-.12,1.8a4.22,4.22,0,0,0,2.47,2c.72.07.79-.73.14-1.78A4.23,4.23,0,0,0,709.76,2312.41Z" transform="translate(5 -1806)"/><path d="M693.62,2286.16c-.76,0-.74,1,0,2.23s2,2.25,2.74,2.27.76-1,0-2.2S694.38,2286.17,693.62,2286.16Z" transform="translate(5 -1806)"/><path class="cls-5" d="M559.85,2298q.57-33,.26-65.92c-.14-22-.53-43.94-1.35-65.88s-2.2-43.86-4-65.71c-.87-10.93-2.07-21.83-3.79-32.63a150.78,150.78,0,0,0-3.32-16.05,68.34,68.34,0,0,0-2.55-7.76,23.31,23.31,0,0,0-4.16-6.94l.2-.22a22.11,22.11,0,0,1,4.75,6.81,68.52,68.52,0,0,1,3.07,7.72,149.24,149.24,0,0,1,4.07,16.06c2.17,10.83,3.53,21.78,4.72,32.73,2.23,21.92,2.93,43.93,3.45,65.91s.61,44,.45,66-.68,44-1.46,65.92Z" transform="translate(5 -1806)"/><path class="cls-6" d="M544.77,2042.58C545,2039,545,2029,547,2032S544.77,2042.58,544.77,2042.58Z" transform="translate(5 -1806)"/><path class="cls-6" d="M545.77,2045.58C546,2042,546,2032,548,2035S545.77,2045.58,545.77,2045.58Z" transform="translate(5 -1806)"/><path class="cls-6" d="M546.77,2047.58C547,2044,547,2034,549,2037S546.77,2047.58,546.77,2047.58Z" transform="translate(5 -1806)"/><path class="cls-6" d="M547.32,2049.18c.79-3.51,2.34-13.39,3.85-10.11S547.32,2049.18,547.32,2049.18Z" transform="translate(5 -1806)"/><path class="cls-6" d="M547.84,2052.3c.79-3.51,2.34-13.39,3.85-10.11S547.84,2052.3,547.84,2052.3Z" transform="translate(5 -1806)"/><path class="cls-6" d="M548.58,2054.44c.75-3.37,2.24-12.84,3.69-9.7S548.58,2054.44,548.58,2054.44Z" transform="translate(5 -1806)"/><path class="cls-6" d="M544.44,2042.23c-2.48-2.6-8.91-10.26-8.51-6.68S544.44,2042.23,544.44,2042.23Z" transform="translate(5 -1806)"/><path class="cls-6" d="M547.12,2047.34c-2.48-2.59-8.91-10.26-8.51-6.67S547.12,2047.34,547.12,2047.34Z" transform="translate(5 -1806)"/><path class="cls-6" d="M548.32,2051.64c-2.85-2.18-10.39-8.75-9.44-5.27S548.32,2051.64,548.32,2051.64Z" transform="translate(5 -1806)"/><path class="cls-6" d="M549.13,2053.76c-2.73-2.1-10-8.4-9.06-5.07S549.13,2053.76,549.13,2053.76Z" transform="translate(5 -1806)"/><path class="cls-5" d="M803.83,2411.67q30.63-12.18,60.92-25.17c20.22-8.6,40.34-17.42,60.28-26.63s39.62-18.94,59.07-29c9.74-5,19.34-10.33,28.65-16.08a150.76,150.76,0,0,0,13.52-9.25,66.84,66.84,0,0,0,6.18-5.34,23.08,23.08,0,0,0,4.8-6.52l.28.11a22,22,0,0,1-4.45,7,67.84,67.84,0,0,1-5.94,5.81,150.15,150.15,0,0,1-13.25,9.95c-9.16,6.17-18.74,11.65-28.38,17C966.14,2344,946.1,2353.1,926,2362.06s-40.35,17.5-60.69,25.83-40.83,16.31-61.4,24.06Z" transform="translate(5 -1806)"/><path class="cls-6" d="M1033.69,2299.31c3.4-1.16,12.63-5,10.63-2S1033.69,2299.31,1033.69,2299.31Z" transform="translate(5 -1806)"/><path class="cls-6" d="M1031.31,2301.39c3.4-1.16,12.62-5,10.63-2S1031.31,2301.39,1031.31,2301.39Z" transform="translate(5 -1806)"/><path class="cls-6" d="M1029.85,2303.09c3.4-1.17,12.62-5,10.63-2S1029.85,2303.09,1029.85,2303.09Z" transform="translate(5 -1806)"/><path class="cls-6" d="M1028.59,2304.21c3.54-.63,13.25-3,10.81-.35S1028.59,2304.21,1028.59,2304.21Z" transform="translate(5 -1806)"/><path class="cls-6" d="M1025.92,2305.9c3.53-.63,13.25-3,10.81-.35S1025.92,2305.9,1025.92,2305.9Z" transform="translate(5 -1806)"/><path class="cls-6" d="M1024.23,2307.4c3.39-.6,12.71-2.88,10.37-.34S1024.23,2307.4,1024.23,2307.4Z" transform="translate(5 -1806)"/><path class="cls-6" d="M1033.9,2298.87c1.44-3.29,6-12.17,2.88-10.43S1033.9,2298.87,1033.9,2298.87Z" transform="translate(5 -1806)"/><path class="cls-6" d="M1030.21,2303.31c1.44-3.28,6-12.17,2.88-10.42S1030.21,2303.31,1030.21,2303.31Z" transform="translate(5 -1806)"/><path class="cls-6" d="M1026.7,2306.08c.91-3.47,4.08-13,1.23-10.74S1026.7,2306.08,1026.7,2306.08Z" transform="translate(5 -1806)"/><path class="cls-6" d="M1025.07,2307.65c.87-3.34,3.91-12.44,1.18-10.31S1025.07,2307.65,1025.07,2307.65Z" transform="translate(5 -1806)"/><path class="cls-5" d="M513.84,2302.37q15.06-29.32,29.33-59c9.57-19.78,18.92-39.66,27.88-59.71s17.38-40.33,25.38-60.74c4-10.19,7.77-20.5,11-31a150,150,0,0,0,4.1-15.86,64.81,64.81,0,0,0,1.14-8.09,23.09,23.09,0,0,0-.67-8.07l.28-.1a22.21,22.21,0,0,1,1.26,8.2,67.61,67.61,0,0,1-.66,8.29,151.07,151.07,0,0,1-3.43,16.21c-2.84,10.67-6.45,21.1-10.22,31.44-7.67,20.66-16.76,40.72-26,60.67s-18.87,39.72-28.72,59.38-20,39.14-30.41,58.51Z" transform="translate(5 -1806)"/><path class="cls-6" d="M613.06,2066.53c1.79-3.11,6.21-12.08,6.68-8.51S613.06,2066.53,613.06,2066.53Z" transform="translate(5 -1806)"/><path class="cls-6" d="M612.63,2069.67c1.79-3.12,6.21-12.09,6.68-8.51S612.63,2069.67,612.63,2069.67Z" transform="translate(5 -1806)"/><path class="cls-6" d="M612.65,2071.9c1.79-3.11,6.2-12.08,6.67-8.51S612.65,2071.9,612.65,2071.9Z" transform="translate(5 -1806)"/><path class="cls-6" d="M612.44,2073.58c2.25-2.8,8-11,7.91-7.38S612.44,2073.58,612.44,2073.58Z" transform="translate(5 -1806)"/><path class="cls-6" d="M611.53,2076.61c2.25-2.8,8-11,7.92-7.38S611.53,2076.61,611.53,2076.61Z" transform="translate(5 -1806)"/><path class="cls-6" d="M611.25,2078.85c2.16-2.68,7.67-10.53,7.59-7.07S611.25,2078.85,611.25,2078.85Z" transform="translate(5 -1806)"/><path class="cls-6" d="M612.92,2066.07c-1.08-3.43-3.46-13.14-4.69-9.75S612.92,2066.07,612.92,2066.07Z" transform="translate(5 -1806)"/><path class="cls-6" d="M613.07,2071.84c-1.08-3.42-3.47-13.14-4.69-9.75S613.07,2071.84,613.07,2071.84Z" transform="translate(5 -1806)"/><path class="cls-6" d="M612.25,2076.23c-1.6-3.21-5.46-12.44-6.15-8.9S612.25,2076.23,612.25,2076.23Z" transform="translate(5 -1806)"/><path class="cls-6" d="M612,2078.48c-1.53-3.08-5.23-11.93-5.89-8.54S612,2078.48,612,2078.48Z" transform="translate(5 -1806)"/><path class="cls-5" d="M525.84,2335.37q15.06-29.32,29.33-59c9.57-19.78,18.92-39.66,27.88-59.71s17.38-40.33,25.38-60.74c4-10.19,7.77-20.5,11-31a150,150,0,0,0,4.1-15.86,64.81,64.81,0,0,0,1.14-8.09,23.09,23.09,0,0,0-.67-8.07l.28-.1a22.21,22.21,0,0,1,1.26,8.2,67.61,67.61,0,0,1-.66,8.29,151.07,151.07,0,0,1-3.43,16.21c-2.84,10.67-6.45,21.1-10.22,31.44-7.67,20.66-16.76,40.72-26,60.67s-18.87,39.72-28.72,59.38-20,39.14-30.41,58.51Z" transform="translate(5 -1806)"/><path class="cls-6" d="M625.06,2099.53c1.79-3.11,6.21-12.08,6.68-8.51S625.06,2099.53,625.06,2099.53Z" transform="translate(5 -1806)"/><path class="cls-6" d="M624.63,2102.67c1.79-3.12,6.21-12.09,6.68-8.51S624.63,2102.67,624.63,2102.67Z" transform="translate(5 -1806)"/><path class="cls-6" d="M624.65,2104.9c1.79-3.11,6.2-12.08,6.67-8.51S624.65,2104.9,624.65,2104.9Z" transform="translate(5 -1806)"/><path class="cls-6" d="M624.44,2106.58c2.25-2.8,8-11,7.91-7.38S624.44,2106.58,624.44,2106.58Z" transform="translate(5 -1806)"/><path class="cls-6" d="M623.53,2109.61c2.25-2.8,8-11,7.92-7.38S623.53,2109.61,623.53,2109.61Z" transform="translate(5 -1806)"/><path class="cls-6" d="M623.25,2111.85c2.16-2.68,7.67-10.53,7.59-7.07S623.25,2111.85,623.25,2111.85Z" transform="translate(5 -1806)"/><path class="cls-6" d="M624.92,2099.07c-1.08-3.43-3.46-13.14-4.69-9.75S624.92,2099.07,624.92,2099.07Z" transform="translate(5 -1806)"/><path class="cls-6" d="M625.07,2104.84c-1.08-3.42-3.47-13.14-4.69-9.75S625.07,2104.84,625.07,2104.84Z" transform="translate(5 -1806)"/><path class="cls-6" d="M624.25,2109.23c-1.6-3.21-5.46-12.44-6.15-8.9S624.25,2109.23,624.25,2109.23Z" transform="translate(5 -1806)"/><path class="cls-6" d="M624,2111.48c-1.53-3.08-5.23-11.93-5.89-8.54S624,2111.48,624,2111.48Z" transform="translate(5 -1806)"/><path class="cls-3" d="M582.68,2364.16,539.52,2369A10.57,10.57,0,0,1,528,2359.5L509,2182.24a10.72,10.72,0,0,1,9.28-11.85l43.16-4.85a10.57,10.57,0,0,1,11.56,9.51L592,2352.3A10.71,10.71,0,0,1,582.68,2364.16Z" transform="translate(5 -1806)"/><ellipse cx="522.57" cy="2180.74" rx="3.03" ry="2.15" transform="translate(-247.1 -1729.68) rotate(-6.73)"/><ellipse cx="560.22" cy="2176.51" rx="3.03" ry="2.15" transform="translate(-246.35 -1725.3) rotate(-6.73)"/><ellipse cx="541.16" cy="2354.74" rx="3.03" ry="2.15" transform="translate(-267.38 -1726.3) rotate(-6.73)"/><ellipse cx="578.81" cy="2350.51" rx="3.03" ry="2.15" transform="translate(-266.62 -1721.92) rotate(-6.73)"/><path class="cls-3" d="M475.85,2338.12l-13.39-12.93a14.36,14.36,0,0,1-3.32-5.83l-36.56-143.81c-1-3.9-.56-6.9,1-6.6l16.08,3.05c1.95.37,4.35,4.37,5.28,8.8l33,156.45C478.36,2339.25,477.41,2339.63,475.85,2338.12Z" transform="translate(5 -1806)"/><path d="M429,2181.56c.32,1.31.14,2.24-.39,2.1s-1.22-1.31-1.54-2.6-.16-2.25.37-2.12S428.65,2180.25,429,2181.56Z" transform="translate(5 -1806)"/><path d="M442.23,2185.06c.31,1.4,0,2.39-.58,2.22s-1.38-1.43-1.69-2.82-.06-2.41.57-2.25S441.92,2183.64,442.23,2185.06Z" transform="translate(5 -1806)"/><path d="M462.65,2319.48c.16.66-.09.85-.55.41a4.79,4.79,0,0,1-1.14-2c-.16-.67.08-.86.54-.43A4.72,4.72,0,0,1,462.65,2319.48Z" transform="translate(5 -1806)"/><path d="M473.89,2330c.15.69-.16.84-.68.35a4.77,4.77,0,0,1-1.21-2.11c-.15-.69.14-.86.66-.37A4.82,4.82,0,0,1,473.89,2330Z" transform="translate(5 -1806)"/><path class="cls-4" d="M521.23,2366.17l-35.47-18.07c-3.44-1.75-6.58-5-7.06-7.22l-33.86-160.59a6.08,6.08,0,0,1,6.08-7.68l46.22-.4c5.86-.06,11.24,4.1,11.78,9.15l19.71,184.41C528.89,2368.21,525.52,2368.36,521.23,2366.17Z" transform="translate(5 -1806)"/><path d="M460.12,2185.74a2,2,0,0,1-2.2,2.46,3.47,3.47,0,0,1-3.13-2.64,2,2,0,0,1,2.15-2.48A3.45,3.45,0,0,1,460.12,2185.74Z" transform="translate(5 -1806)"/><path d="M498.13,2187c.2,1.59-1.16,2.81-3,2.74a3.83,3.83,0,0,1-3.68-3c-.22-1.57,1.09-2.81,2.93-2.76A3.81,3.81,0,0,1,498.13,2187Z" transform="translate(5 -1806)"/><path d="M489.4,2341.73c.15.79-.71.94-1.92.35a4.64,4.64,0,0,1-2.43-2.47c-.16-.78.69-1,1.89-.37A4.63,4.63,0,0,1,489.4,2341.73Z" transform="translate(5 -1806)"/><path d="M519.39,2356.29c.1.83-1,.93-2.4.23s-2.64-1.91-2.75-2.73.94-.95,2.36-.26S519.28,2355.46,519.39,2356.29Z" transform="translate(5 -1806)"/><path class="cls-3" d="M638.31,2319.86l10.34-15.6a14.55,14.55,0,0,0,2-6.42L656,2149.31c.14-4-.91-6.86-2.37-6.22l-15.06,6.56c-1.82.79-3.32,5.22-3.3,9.76l.83,160.06C636.1,2321.53,637.11,2321.68,638.31,2319.86Z" transform="translate(5 -1806)"/><path d="M651,2156.61c0,1.34.34,2.21.83,1.95s.91-1.55.95-2.88-.32-2.23-.82-2S651.06,2155.25,651,2156.61Z" transform="translate(5 -1806)"/><path d="M638.81,2163c0,1.44.46,2.35,1,2s1-1.7,1-3.13-.45-2.36-1-2.07S638.81,2161.51,638.81,2163Z" transform="translate(5 -1806)"/><path d="M647.26,2298.72c0,.69.26.82.63.29a4.82,4.82,0,0,0,.68-2.2c0-.69-.25-.82-.61-.3A4.76,4.76,0,0,0,647.26,2298.72Z" transform="translate(5 -1806)"/><path d="M638.51,2311.48c0,.7.33.79.73.19a5,5,0,0,0,.74-2.33c0-.71-.32-.81-.73-.22A4.85,4.85,0,0,0,638.51,2311.48Z" transform="translate(5 -1806)"/><path class="cls-4" d="M599.93,2357.33l30.81-25.52c3-2.48,5.38-6.33,5.36-8.62l-.84-164.3a6,6,0,0,0-7.56-6.14l-45.21,9.86c-5.73,1.25-10.11,6.51-9.57,11.56l19.7,184.4C592.88,2361,596.21,2360.41,599.93,2357.33Z" transform="translate(5 -1806)"/><path d="M621.49,2167.6a2,2,0,0,0,2.67,1.91,3.52,3.52,0,0,0,2.5-3.27,2,2,0,0,0-2.63-1.94A3.49,3.49,0,0,0,621.49,2167.6Z" transform="translate(5 -1806)"/><path d="M584.65,2177.28c.14,1.59,1.72,2.48,3.51,2a3.9,3.9,0,0,0,3-3.71c-.13-1.58-1.66-2.5-3.45-2A3.88,3.88,0,0,0,584.65,2177.28Z" transform="translate(5 -1806)"/><path d="M625.84,2326.39c0,.8.9.76,1.95-.08a4.74,4.74,0,0,0,1.86-2.95c0-.8-.88-.78-1.93,0A4.73,4.73,0,0,0,625.84,2326.39Z" transform="translate(5 -1806)"/><path d="M599.64,2347.27c.07.83,1.15.69,2.39-.31s2.17-2.45,2.11-3.28-1.12-.71-2.36.27S599.57,2346.43,599.64,2347.27Z" transform="translate(5 -1806)"/></svg>