<svg id="Layer_1" data-name="Layer 1" xmlns="http://www.w3.org/2000/svg" viewBox="0 0 1125 537.25"><defs><style>.cls-1{fill:#71bae2;}.cls-2{fill:#d0e7f7;}.cls-3{fill:#e8f1f7;}.cls-4{fill:#f2f2f2;}.cls-5{fill:#e8e8e8;}.cls-6{fill:#efefef;}.cls-7{fill:#302b1d;}.cls-8{fill:#56544e;}</style></defs><path class="cls-1" d="M1125,2436H0V2170c294,37,1125,0,1125,0Z" transform="translate(0 -1898.75)"/><path class="cls-2" d="M302.32,2150s-19.71,79.67,0,94,82.66,97,205.92,63.47c78.85-21.45,235.07,16.21,279.29-4.36,70.31-32.71,33.64-153.08,33.64-153.08Z" transform="translate(0 -1898.75)"/><path class="cls-3" d="M330.79,2132c-47.91,15.07-36.13,36.24,41.29,74.75s111,20.4,180.65,13.61,116.12-5.12,178.06-.31,130-74.46,65-88.05S467.56,2088.93,330.79,2132Z" transform="translate(0 -1898.75)"/><path class="cls-4" d="M569.79,2092l-10.73,28L550,2173s3.58,10.08,26.35,2.92,23.42-33.18,23.42-33.18Z" transform="translate(0 -1898.75)"/><path class="cls-5" d="M446.4,2014.75s4.05,51.05,8.45,60.73c8.1,17.86,27.21,50.45,12.89,78.16-3.7,7.15-12.89-2.27-21.48,10.93-4.07,6.24-3,10.61,8.59,11.76s28.61,5.85,33.11,0,34.64-8,34.64-8l13.18-91.68Z" transform="translate(0 -1898.75)"/><path class="cls-6" d="M400.2,1948.38c-.38-10.31,4.37-16.61-.93-25.32s-6.63-31.62,14.77-15.53c4-6.43,45.74-16.93,61,1.89,0,0,29-11.12,16.85,15.74,0,0,46.83,4,64.49,28.93,0,0,15.15,10.79,25,12.91s77.32,29.35,89.1,67.65,39,92,0,133.81c-5.43,5.83-70.81,18.1-94.77,11.35-16.49-4.64-5.07-20.51,13.26-19.4-1.92-.91-23.59-21.27-22-70,.57-17.28,5.52,83.71-14.72,87.39s-81.87,6.44-59.79-7.36,31.28-6.44,24.84-36.8-18.4-30.35-45.08-74.51a407.08,407.08,0,0,0-25.41-36.36C424,1993,400.87,1966.57,400.2,1948.38Z" transform="translate(0 -1898.75)"/><path class="cls-5" d="M423.08,1951.34c1.31,2.41,6.49,7.14,13.45,7,11.44-.21,14.7-4.34,15.57-7.53s-5-26.83-9-30.8-8.36-1.62-11.3,0C426.81,1922.78,421.76,1948.92,423.08,1951.34Z" transform="translate(0 -1898.75)"/><path class="cls-7" d="M421,1920.59c-2.18,1.74-.46,4,1.37,4s4.56-1.22,3.65-2.74S422.51,1919.37,421,1920.59Z" transform="translate(0 -1898.75)"/><path class="cls-7" d="M457.87,1920.59c2.18,1.74.46,4-1.37,4s-4.56-1.22-3.65-2.74S456.35,1919.37,457.87,1920.59Z" transform="translate(0 -1898.75)"/><path class="cls-7" d="M427.47,1944.56c8.29-8,15.16-8.5,18.49,0,.72,1.86-1.41,6.38-3.83,7s-9.84,1.77-12.52-1.61C427.31,1947.07,426.26,1945.73,427.47,1944.56Z" transform="translate(0 -1898.75)"/><path class="cls-8" d="M483.73,1924.54s-.93-3-.56-3.7,5.62-6.42,3.25-5.74-6.49,2.5-5.62,3.37S483.17,1924.31,483.73,1924.54Z" transform="translate(0 -1898.75)"/><path class="cls-8" d="M407,1919.82s.7-1.17.33-1.86-4.11-8.07-1.74-7.38,5.1,4.8,4.23,5.67S407.54,1919.59,407,1919.82Z" transform="translate(0 -1898.75)"/></svg>