<svg id="Layer_1" data-name="Layer 1" xmlns="http://www.w3.org/2000/svg" viewBox="0 0 1125 524.48"><defs><style>.cls-1{fill:#9fdef7;}.cls-2{fill:#53afd3;}.cls-3{fill:#6ac0db;}.cls-4{fill:#b5e8f7;}</style></defs><path class="cls-1" d="M554.77,1990.44A167.58,167.58,0,0,1,528.35,2015c-14.93,10.83-49.23,115.73-92.61,142.38s-26,134.65-30.5,166.47S403,2429,407,2436H611l97.45-408.86Z" transform="translate(0 -1911.52)"/><path class="cls-1" d="M332,2413c-13-9-41-110-44-142s-45-133-9-169,45-146,57-160a167.54,167.54,0,0,0,20-30H0v524H356S345,2422,332,2413Z" transform="translate(0 -1911.52)"/><path class="cls-2" d="M0,2359s1046,90.6,1125,.83V2436H0Z" transform="translate(0 -1911.52)"/><path class="cls-3" d="M1125,2397S79,2442.89,0,2397.42V2436H1125Z" transform="translate(0 -1911.52)"/><path class="cls-4" d="M83.55,1911.8c2.43,4.32,4.91,8.56,7.54,12.7s5.44,8.15,8.26,12.14c1.43,2,2.88,4,4.37,5.9s2.93,3.92,4.44,5.86l9.11,11.63c6.06,7.8,12.18,15.71,17.46,24.47a87.28,87.28,0,0,1,6.91,13.89,57.65,57.65,0,0,1,3.67,15.43,54.4,54.4,0,0,1-1,15.8l-3.08,14.54c-2.07,9.68-4.12,19.35-5.82,29.08q-5.08,29.19-7.33,58.76c-.8,9.83-1.34,19.67-1.87,29.47s-.9,19.58-.66,29.2a96.44,96.44,0,0,0,1.28,14l.62,3.87c.17,1.31.29,2.59.44,3.89.23,2.56.43,5.12.53,7.64.5,10.12.19,20.09-.27,30s-1.29,19.84-2.29,29.71l-1.56,14.78c-.57,4.93-1.2,9.84-1.83,14.75s-1.33,9.82-2,14.72-1.47,9.79-2.27,14.68c-1.59,9.78-3.31,19.53-5.36,29.24l-1-.12c1.37-39.59,4.27-79,5.67-118.23.35-9.79.65-19.59.49-29.22,0-2.41-.14-4.79-.27-7.15-.1-1.16-.18-2.34-.29-3.49l-.45-3.46a104.39,104.39,0,0,1-.86-15.54c.25-20.26,3.22-39.89,6.55-59.45s6.82-39,9.58-58.58c1.38-9.78,2.5-19.62,3.55-29.45l1.52-14.73c.15-1.26.17-2.35.26-3.51s0-2.29.06-3.43a51.46,51.46,0,0,0-.62-6.79c-1.4-9-5.23-17.55-10-25.82s-10.47-16.24-16.07-24.37c-2.82-4.05-5.59-8.18-8.31-12.35s-5.36-8.42-7.81-12.78-4.75-8.81-6.86-13.35a135.77,135.77,0,0,1-5.38-14Z" transform="translate(0 -1911.52)"/><path class="cls-4" d="M134.57,2062.75c3.21-7.73,6.73-15.28,10.37-22.77s7.43-14.89,11.31-22.23,7.89-14.62,12-21.86,8.43-14.31,13-21.27l.89-1.36,1-.28c7.39-2,14.95-3.74,22.07-6.5,3.57-1.36,7.08-2.88,10.53-4.52s6.83-3.47,10.19-5.33l10-5.59c3.35-1.85,6.74-3.57,10.13-5.27l5-2.6,5-2.64,2.42-1.34.62-.34.69-.36,1.39-.73c1.82-.91,3.65-1.73,5.47-2.49,7.26-3.07,14.55-5.54,21.92-7.84s14.74-4.38,22.17-6.31,14.9-3.73,22.4-5.35,15.05-3.1,22.68-4.25l.28,1c-14.16,6.08-28.48,11.48-42.79,16.79s-28.71,10.44-42.57,15.87c-1.72.69-3.39,1.42-5,2.12l-5.13,2.38c-3.57,1.64-7.16,3.07-10.74,4.52s-7.18,2.81-10.84,4c-1.82.64-3.67,1.18-5.51,1.75l-5.53,1.68c-3.69,1.13-7.36,2.26-11,3.54s-7.17,2.68-10.68,4.21c-7,3-13.64,7.05-20.46,10.68l1.89-1.64q-5.52,11.19-11.75,22c-4.17,7.18-8.41,14.32-12.78,21.39s-8.83,14.09-13.44,21-9.34,13.79-14.38,20.48Z" transform="translate(0 -1911.52)"/><path class="cls-4" d="M555.8,1990.45c2.38,9.5,4.51,19,6.56,28.62,1,4.78,2,9.57,3,14.36l2.84,14.38c.95,4.8,1.81,9.61,2.72,14.42s1.76,9.61,2.58,14.43c1.64,9.64,3.08,19.31,4.4,29l.05.4-.05.25c-4.84,24.31-7.78,49.17-7.65,74,.11,12.41.89,24.74,3.39,36.72,2.36,12.14,5.14,24.25,7.92,36.37l4.13,18.22c1.3,6.09,2.58,12.2,3.75,18.35s2.13,12.35,2.87,18.64c.35,3.15.65,6.32.69,9.57a48.77,48.77,0,0,1-.13,5c-.08.85-.17,1.7-.33,2.59-.08.43-.18.88-.29,1.33s-.24.82-.36,1.24a74.23,74.23,0,0,1-3.55,9c-1.32,2.87-2.71,5.69-4.13,8.48-2.83,5.59-5.87,11-9,16.48q-9.28,16.26-19.5,31.92l-.52-.31c5.64-11.1,11.25-22.21,16.71-33.36q4.09-8.35,7.95-16.8c1.27-2.82,2.5-5.64,3.65-8.48a79.38,79.38,0,0,0,3-8.46c.09-.34.19-.7.26-1s.13-.62.17-.95c.1-.65.15-1.35.19-2.05.07-1.42,0-2.89,0-4.37-.16-3-.49-6-.88-9-.81-6.06-1.94-12.13-3.12-18.19s-2.4-12.15-3.68-18.23l-3.78-18.26c-2.49-12.2-5-24.41-7-36.78-.48-3.07-.91-6.24-1.17-9.41s-.38-6.31-.47-9.45c-.12-6.29.07-12.55.4-18.79.66-12.48,1.75-24.89,2.9-37.3s2.3-24.8,3.75-37.24v.65c-2.1-9.56-4.07-19.14-5.85-28.75-.89-4.81-1.75-9.62-2.54-14.44s-1.65-9.64-2.41-14.46L561,2034.2c-.71-4.84-1.46-9.67-2.13-14.52-1.37-9.68-2.65-19.38-3.69-29.13Z" transform="translate(0 -1911.52)"/><path class="cls-4" d="M568.61,2179.69c3.13-5.47,6.54-10.72,10-15.91s7.1-10.26,10.81-15.26,7.46-10,11.34-14.83,7.84-9.66,12.07-14.24,8.61-9,12.93-13.55,8.53-9.1,12.53-13.87,7.82-9.67,11.52-14.68,7.25-10.14,10.8-15.27l.46-.46,2.44-2.79c.83-.9,1.67-1.8,2.52-2.68,1.72-1.74,3.53-3.36,5.31-5a120.33,120.33,0,0,1,11.07-9.5,133.18,133.18,0,0,1,12.26-8c2.13-1.23,4.31-2.4,6.55-3.49a66.68,66.68,0,0,1,7-3l.62.78a61.85,61.85,0,0,1-4.43,6.13c-1.54,2-3.16,3.82-4.82,5.64a131.4,131.4,0,0,1-10.49,10.23,119.23,119.23,0,0,1-11.68,8.75c-2,1.36-4,2.78-6.07,4.08-1,.64-2.1,1.26-3.16,1.88l-3.25,1.78.46-.46c-4.28,4.54-8.58,9.06-12.7,13.73s-8.13,9.43-12,14.32-7.46,10-11,15.13-7,10.38-10.57,15.45-7.44,10-11.43,14.76-8,9.51-12.16,14.17-8.35,9.24-12.69,13.74-8.78,8.9-13.48,13.09Z" transform="translate(0 -1911.52)"/><path class="cls-4" d="M488.5,2088.94a192.76,192.76,0,0,1,4.5,28.32q1.32,14.26,1.51,28.57c.12,9.53.07,19.07-.51,28.58-.27,4.76-.73,9.51-1.23,14.25s-1.17,9.47-1.88,14.19L488.74,2217c-.78,4.71-1.44,9.42-2.19,14.12a198.51,198.51,0,0,1-6.09,28.17,128,128,0,0,1-11.06,26.94q-3.63,6.34-7.88,12.34c-1.41,2-2.87,4-4.41,5.89-.77,1-1.55,1.92-2.35,2.86s-1.58,1.86-2.56,2.89l1.5-4.29q1.44,10.41,2.4,20.87c.61,7,1.15,14,1.56,21l.53,10.51.36,10.53c.13,7,.2,14.08-.07,21.16l-1,.11c-1.86-6.84-3.36-13.71-4.81-20.6l-2-10.34-1.84-10.37q-1.76-10.36-3.18-20.78t-2.34-20.88l-.24-2.63,1.74-1.66c.68-.66,1.52-1.52,2.28-2.33s1.53-1.66,2.29-2.51c1.51-1.71,3-3.46,4.44-5.24,2.91-3.55,5.62-7.28,8.23-11.08a163,163,0,0,0,14.11-24,81.2,81.2,0,0,0,7.24-27,264.68,264.68,0,0,0,1.47-28.31c.09-9.46.05-18.91.27-28.34.14-4.72.27-9.43.48-14.14l.5-14.14c.35-9.43.61-18.86.9-28.3l.36-14.17c0-2.36,0-4.73.1-7.1s0-4.74,0-7.13Z" transform="translate(0 -1911.52)"/></svg>