<?xml version="1.0" encoding="utf-8"?>
<!-- Generator: Adobe Illustrator 24.1.0, SVG Export Plug-In . SVG Version: 6.00 Build 0)  -->
<svg version="1.1" id="Layer_1" xmlns="http://www.w3.org/2000/svg" xmlns:xlink="http://www.w3.org/1999/xlink" x="0px" y="0px"
	 viewBox="0 0 250 250" style="enable-background:new 0 0 250 250;" xml:space="preserve">
<style type="text/css">
	.st0{fill:url(#Ellipse_13_1_);}
	.st1{fill:url(#Path_9_1_);}
	.st2{fill:url(#Path_10_1_);}
</style>
<g id="earth_13_" transform="translate(148.1 60.452)">
	
		<linearGradient id="Ellipse_13_1_" gradientUnits="userSpaceOnUse" x1="-409.7307" y1="10.3808" x2="-408.5866" y2="9.7203" gradientTransform="matrix(32.556 0 0 32.556 13343.4756 -237.4442)">
		<stop  offset="0" style="stop-color:#235DE7"/>
		<stop  offset="0.228" style="stop-color:#2E83E8"/>
		<stop  offset="0.336" style="stop-color:#3396E9"/>
		<stop  offset="0.599" style="stop-color:#56A8ED"/>
		<stop  offset="0.78" style="stop-color:#58A9ED"/>
		<stop  offset="0.846" style="stop-color:#5FACEE"/>
		<stop  offset="0.893" style="stop-color:#6AB3EF"/>
		<stop  offset="0.93" style="stop-color:#7BBBF1"/>
		<stop  offset="0.963" style="stop-color:#91C7F3"/>
		<stop  offset="0.991" style="stop-color:#ACD4F6"/>
		<stop  offset="1" style="stop-color:#B6DAF7"/>
	</linearGradient>
	<circle id="Ellipse_13" class="st0" cx="22.91" cy="89.76" r="21.5"/>
	
		<linearGradient id="Path_9_1_" gradientUnits="userSpaceOnUse" x1="-395.0541" y1="12.0412" x2="-393.35" y2="11.5947" gradientTransform="matrix(12.6245 0 0 27.7533 4994.1001 -241.7055)">
		<stop  offset="0" style="stop-color:#46C75F"/>
		<stop  offset="0.447" style="stop-color:#48C861"/>
		<stop  offset="0.607" style="stop-color:#4FCA66"/>
		<stop  offset="0.722" style="stop-color:#5ACD71"/>
		<stop  offset="0.815" style="stop-color:#6BD27F"/>
		<stop  offset="0.894" style="stop-color:#81D992"/>
		<stop  offset="0.963" style="stop-color:#9CE1A9"/>
		<stop  offset="1" style="stop-color:#AEE6B9"/>
	</linearGradient>
	<path id="Path_9" class="st1" d="M13.75,104.64c0.41,0.53,1,0.88,1.66,0.99c0.44,0.11-0.55-2.98,1.66-3.53
		c0-0.77,0.11-1.43,2.2-1.87c0.8-0.62,1.32-1.53,1.43-2.54c0.44-0.33,0.66-0.11,0.88,0.11s1.1-0.99,1.32-1.32
		c-0.11-1.15,0.72-2.18,1.87-2.31c0.53-1.08,0.9-2.23,1.1-3.42c-0.33-0.99-0.88-1.98-1.43-2.1c-1.34-0.83-2.56-1.83-3.64-2.98
		c-0.44-0.55-3.3-3.09-3.86-2.2c-0.22,0.55-0.55-0.11-0.55-0.33s-1.32,0.55-1.54,0.66c-0.49-0.33-1.08-0.44-1.66-0.33
		c0-0.55-0.33-1.32-0.11-1.66s0.33-0.22,0.44-0.22c0.11,0,0.11-0.44-0.11-0.44s-1.32-0.33,0-0.99c0.33-0.33,0.44-0.66-0.88-0.55
		c-0.33,0.11-0.33,0.33-0.33,0.33s-0.55,1.21-0.99,0c0-0.99,0.33-1.98,3.09-2.76c0.66-0.11,1.1-0.44,0.99,1.54
		c0,0.77,0.77,1.43,0.99,0s-0.22-1.87,2.1-3.2c2.32-1.32,4.19-1.21,4.52-0.55c0.11,0.22,0.11-0.44-0.22-0.66s-0.77-1.32,0.22-0.66
		c0.88,0.33,1.66,0.77,1.43,0.22c-0.22-0.55-0.88-2.64-1.54-2.87c-0.76,0.58-1.69,0.89-2.64,0.88c-0.55-0.44-2.28-2.74-2.79-2.92
		c-0.36,0.13-0.72,0.24-1.1,0.32l-1.24,0.47l-1.19,0.51l-0.38,0.18c0.08,0.73-0.16,1.47-0.68,2c-0.55,1.66-3.97,2.43-3.53,5.18
		c0.3,0.11,0.45,0.45,0.34,0.75c0,0.01-0.01,0.02-0.01,0.02c-0.44,3.75,2.31,1.43,2.87,4.96c0.11,1.55,0.88,1.32,1.21,1.21
		c0.33-0.11,1.43,0,0.99,0.33c-0.55,0.77-3.09,2.76-2.64,4.19c0.55,1.55,1.54,2.64,1.1,3.86c0.22,1.76,0.99,4.3,0.77,4.52
		C13.62,99.85,13.58,102.25,13.75,104.64z"/>
	
		<linearGradient id="Path_10_1_" gradientUnits="userSpaceOnUse" x1="-391.7472" y1="13.4364" x2="-390.5134" y2="13.1101" gradientTransform="matrix(11.3495 0 0 24.8013 4474.7632 -244.3645)">
		<stop  offset="0" style="stop-color:#46C75F"/>
		<stop  offset="0.447" style="stop-color:#48C861"/>
		<stop  offset="0.607" style="stop-color:#4FCA66"/>
		<stop  offset="0.722" style="stop-color:#5ACD71"/>
		<stop  offset="0.815" style="stop-color:#6BD27F"/>
		<stop  offset="0.894" style="stop-color:#81D992"/>
		<stop  offset="0.963" style="stop-color:#9CE1A9"/>
		<stop  offset="1" style="stop-color:#AEE6B9"/>
	</linearGradient>
	<path id="Path_10" class="st2" d="M29.7,69.35c-0.46-0.05-0.9,1.6,0.21,1.5c1.1-0.11,0.88,1.1,2.1,1.21
		c1.22,0.11,1.76,1.1,2.76,2.43c0.99,1.32-0.66,0-1.43-0.22s-0.99,0.22-0.55,0.44c0.44,0.22,2.1,1.66,1.66,2.1
		c-1.98,1.76,0.33,3.09,1.55,1.87c1.22-1.22,1.66-0.22,2.2,0.77s1.98,0.88,1.76,1.55c-1.04,0.01-1.99-0.6-2.43-1.55
		c-0.8,0.12-1.61,0.2-2.43,0.22c-0.77,0.25-1.35,0.87-1.55,1.66c-2.54,0.88-0.88,3.75-1.21,3.86s-1.1-0.22-1.1,0.33
		c1.66,5.62,4.19,4.85,4.52,4.41c0.33-0.44,1.1-0.22,1.21,0.66c1.87-0.11,1.21,1.1,0.99,1.21c-0.22,0.11-1.32,0.66-0.88,0.99
		c0.63,0.91,0.58,2.12-0.11,2.98c-0.22,0.22-0.88,0.33-1.32,2.98c-0.88,4.3,2.64,3.42,3.53,2.98c0,0,5.88-3.01,4.93-15.62
		C42.79,78.28,37.24,71.82,29.7,69.35z"/>
</g>
<g>
	<path d="M38.75,100.66c0,1.23,0.8,1.71,1.97,1.71h19.09c1.39,0,2.13,0.96,2.13,2.29c0,1.28-0.75,2.35-2.13,2.35H39.17
		c-3.79,0-5.44-1.65-5.44-5.7V71.23c0-4.1,1.65-5.76,5.44-5.76h20.15c1.39,0,2.13,0.96,2.13,2.29c0,1.33-0.75,2.35-2.13,2.35H40.56
		c-1.28,0-1.81,0.59-1.81,1.87v11.04h18.18c1.33,0,2.08,0.96,2.08,2.29c0,1.23-0.8,2.24-2.08,2.24H38.75V100.66z"/>
	<path d="M70.46,105.83c-0.37,1.07-1.17,1.49-2.08,1.49c-0.37,0-0.69-0.05-1.07-0.16c-1.07-0.27-1.87-1.17-1.87-2.19
		c0-0.32,0.05-0.59,0.16-0.91l14.5-36.41c0.69-1.81,2.03-2.51,3.68-2.51c1.71,0,3.09,0.69,3.79,2.51l14.5,36.52
		c0.16,0.32,0.21,0.59,0.21,0.91c0,1.07-0.85,1.87-1.92,2.13c-0.32,0.11-0.64,0.16-0.96,0.16c-0.96,0-1.81-0.48-2.19-1.49
		l-4.21-11.04H74.57L70.46,105.83z M91.42,90.37L85.5,74.86c-0.59-1.55-1.17-3.25-1.65-5.06c-0.48,1.81-1.01,3.52-1.65,5.12
		l-6.02,15.46H91.42z"/>
	<path d="M140.41,104.18c0.11,0.32,0.16,0.59,0.16,0.91c0,1.01-0.69,1.81-1.76,2.08c-0.37,0.11-0.8,0.16-1.17,0.16
		c-0.91,0-1.71-0.43-2.08-1.39l-1.33-3.41c-3.84-10.4-5.33-14.18-10.66-14.18h-9.81v16.74c0,1.49-1.01,2.24-2.45,2.24
		c-1.49,0-2.56-0.75-2.56-2.29v-33.8c0-4.1,1.65-5.76,5.44-5.76h12.48c7.73,0,12,4.11,12,10.66c0,6.13-3.47,9.33-8.42,10.4
		c3.2,0.96,4.9,4.53,8.85,14.5L140.41,104.18z M126.01,83.98c4.53,0,7.52-2.83,7.52-7.09c0-4.53-2.45-6.98-7.2-6.98h-10.82
		c-1.12,0-1.76,0.59-1.76,1.87v12.21H126.01z"/>
	<path d="M145.95,70.17c-1.33,0-2.08-1.07-2.08-2.29c0-1.28,0.75-2.4,2.03-2.4h29.38c1.28,0,2.03,1.12,2.03,2.4
		c0,1.23-0.8,2.29-2.03,2.29h-12.1v34.97c0,1.44-1.12,2.19-2.56,2.19s-2.56-0.75-2.56-2.19V70.17H145.95z"/>
	<path d="M211.04,67.34c0-1.49,1.12-2.19,2.67-2.19c1.39,0,2.45,0.69,2.45,2.19v37.8c0,1.44-1.07,2.19-2.45,2.19
		c-1.55,0-2.67-0.75-2.67-2.19V87.49h-22.71v17.65c0,1.44-1.12,2.19-2.56,2.19c-1.49,0-2.56-0.75-2.56-2.19v-37.8
		c0-1.49,1.07-2.19,2.56-2.19c1.44,0,2.56,0.69,2.56,2.19v15.51h22.71V67.34z"/>
	<path d="M61.62,131.31c0-1.49,1.12-2.19,2.67-2.19c1.39,0,2.45,0.69,2.45,2.19v37.8c0,1.44-1.07,2.19-2.45,2.19
		c-1.55,0-2.67-0.75-2.67-2.19v-17.65H38.91v17.65c0,1.44-1.12,2.19-2.56,2.19c-1.49,0-2.56-0.75-2.56-2.19v-37.8
		c0-1.49,1.07-2.19,2.56-2.19c1.44,0,2.56,0.69,2.56,2.19v15.51h22.71V131.31z"/>
	<path d="M81.02,164.63c0,1.23,0.8,1.71,1.97,1.71h19.09c1.39,0,2.13,0.96,2.13,2.29c0,1.28-0.75,2.35-2.13,2.35H81.45
		c-3.79,0-5.44-1.65-5.44-5.7v-30.07c0-4.11,1.65-5.76,5.44-5.76h20.15c1.39,0,2.13,0.96,2.13,2.29s-0.75,2.35-2.13,2.35H82.83
		c-1.28,0-1.81,0.59-1.81,1.87v11.04H99.2c1.33,0,2.08,0.96,2.08,2.29c0,1.23-0.8,2.24-2.08,2.24H81.02V164.63z"/>
	<path d="M142.17,168.15c0.11,0.32,0.16,0.59,0.16,0.91c0,1.01-0.69,1.81-1.76,2.08c-0.37,0.11-0.8,0.16-1.17,0.16
		c-0.91,0-1.71-0.43-2.08-1.39l-1.33-3.41c-3.84-10.4-5.33-14.18-10.66-14.18h-9.81v16.74c0,1.49-1.01,2.24-2.45,2.24
		c-1.49,0-2.56-0.75-2.56-2.29v-33.8c0-4.11,1.65-5.76,5.44-5.76h12.48c7.73,0,12,4.1,12,10.66c0,6.13-3.47,9.33-8.42,10.4
		c3.2,0.96,4.9,4.53,8.85,14.5L142.17,168.15z M127.77,147.95c4.53,0,7.52-2.83,7.52-7.09c0-4.53-2.45-6.98-7.2-6.98h-10.82
		c-1.12,0-1.76,0.59-1.76,1.87v12.21H127.77z"/>
</g>
</svg>
