<svg id="Layer_1" data-name="Layer 1" xmlns="http://www.w3.org/2000/svg" viewBox="0 0 1125 336.41"><defs><style>.cls-1{fill:#496fa5;}.cls-2{fill:#a5c2e5;}.cls-2,.cls-3,.cls-4{stroke:#859db5;stroke-miterlimit:10;stroke-width:2px;opacity:0.48;}.cls-3{fill:#c5d4e2;}.cls-4{fill:#80abce;}.cls-5{fill:#c4c153;}.cls-6{fill:#514e3b;}.cls-7{fill:#686550;}</style></defs><path class="cls-1" d="M0,2103c140,24,269,28,388,4,84-16.94,337.37-1.47,428,13,119,19,309,1,309,1v315H0Z" transform="translate(0 -2099.59)"/><path class="cls-2" d="M334.08,2306.33l.47.15-.46-.18Z" transform="translate(0 -2099.59)"/><path class="cls-3" d="M516.14,2218.51c-62.19-15.05-67.31-3-86.8-9.41l-56.91-18.59c15,4.89,18.61,34.81,8.15,66.84s-31.06,54-46,49.13l56.91,18.59c19.49,6.37,16.54,19.08,75.62,43.64S610,2417,610,2417l162-113S578.32,2233.56,516.14,2218.51Z" transform="translate(0 -2099.59)"/><path class="cls-2" d="M372,2190.38l.48.13-.47-.15Z" transform="translate(0 -2099.59)"/><ellipse class="cls-4" cx="353.49" cy="2248.5" rx="61" ry="28.5" transform="translate(-1893.64 -213.17) rotate(-71.91)"/><path class="cls-1" d="M353,2368c300-20,460-203,445-100-13.54,93-140,149-140,149l-50,10Z" transform="translate(0 -2099.59)"/><path class="cls-5" d="M799.24,2170.18a42.57,42.57,0,0,0-3.7,6.39,21.5,21.5,0,0,0-2,6.89,12.15,12.15,0,0,0,1.14,6.75,15.75,15.75,0,0,0,4.45,5.25,44.13,44.13,0,0,0,12.87,6.38,133.2,133.2,0,0,0,14.23,3.7c19.36,3.83,39.22,5.55,59,7.83,9.91,1.06,19.82,2.29,29.72,3.78,5,.79,9.89,1.65,14.81,2.63s9.83,2.18,14.69,3.55a117.37,117.37,0,0,1,14.36,5,50.79,50.79,0,0,1,13.21,7.95c3.9,3.43,7.2,8.08,7.54,13.74a11.62,11.62,0,0,1-3,7.56,26.28,26.28,0,0,1-6,5,75.61,75.61,0,0,1-13.68,6.48c-4.71,1.73-9.49,3.22-14.3,4.59-9.63,2.69-19.37,4.91-29.14,6.94s-19.59,3.87-29.42,5.57-19.69,3.29-29.55,4.77-19.76,2.78-29.64,4.09-19.78,2.47-29.67,3.68q-29.68,3.6-59.28,7.29c-9.85,1.31-19.71,2.56-29.46,4.17-4.88.8-9.74,1.68-14.5,2.76-2.39.52-4.75,1.09-7,1.77a31.31,31.31,0,0,0-6.31,2.47,7.69,7.69,0,0,0-1.08.74c-.26.23-.38.44-.35.36s0-.4,0-.3a2.1,2.1,0,0,0,.52.64,12.57,12.57,0,0,0,2.54,1.69c1,.54,2,1,3.18,1.49a105.88,105.88,0,0,1,13.72,6.78,54.89,54.89,0,0,1,6.44,4.46,27.33,27.33,0,0,1,5.61,6A14.91,14.91,0,0,1,711,2343a11.47,11.47,0,0,1,.36,4.71,12.51,12.51,0,0,1-1.51,4.38,17.93,17.93,0,0,1-2.59,3.47,32,32,0,0,1-6.32,5,61.91,61.91,0,0,1-6.84,3.68,124.13,124.13,0,0,1-14.21,5.47,292.2,292.2,0,0,1-29.15,7.55c-19.61,4.09-39.37,7-59.17,9.52s-39.64,4.51-59.5,6.27-39.75,3.26-59.64,4.5q-59.67,3.75-119.43,5.7l0-.6c39.79-2.13,79.56-4.47,119.27-7.6s79.39-6.73,118.82-12.1c19.7-2.72,39.35-5.86,58.72-10.1a288.36,288.36,0,0,0,28.63-7.61,120.49,120.49,0,0,0,13.63-5.35,60.27,60.27,0,0,0,6.29-3.43,27.4,27.4,0,0,0,5.33-4.28,9.68,9.68,0,0,0,2.77-5.14,7.92,7.92,0,0,0-1.52-5.36,22.53,22.53,0,0,0-4.62-4.82,49.53,49.53,0,0,0-5.86-4,101.4,101.4,0,0,0-13.09-6.35c-1.16-.47-2.42-1-3.63-1.6a17.44,17.44,0,0,1-3.7-2.38,7.27,7.27,0,0,1-1.81-2.25,4.93,4.93,0,0,1-.3-3.91,6.51,6.51,0,0,1,1.8-2.65,12.52,12.52,0,0,1,1.94-1.45,35.73,35.73,0,0,1,7.48-3.21c2.46-.8,4.93-1.47,7.4-2.08,4.93-1.17,9.87-2.13,14.82-3q14.82-2.59,29.68-4.43c19.8-2.58,39.63-4.56,59.44-6.68l29.7-3.2q14.85-1.58,29.68-3.3c19.77-2.23,39.53-4.7,59.11-8.14,9.79-1.77,19.53-3.79,29.1-6.44,4.78-1.31,9.52-2.78,14.14-4.55a67.64,67.64,0,0,0,13.2-6.47,24.21,24.21,0,0,0,5.36-4.68,8.92,8.92,0,0,0,2.26-6.06,7.28,7.28,0,0,0-.24-1.6c-.16-.53-.31-1.1-.53-1.63a15.88,15.88,0,0,0-1.57-3.07,22.06,22.06,0,0,0-4.73-5.12,47.49,47.49,0,0,0-12.62-6.84,112,112,0,0,0-14-4.24c-4.78-1.15-9.63-2.06-14.5-2.9s-9.75-1.6-14.66-2.27c-9.81-1.42-19.68-2.56-29.56-3.79s-19.79-2.34-29.69-3.79c-4.94-.71-9.89-1.47-14.83-2.33s-9.85-1.89-14.75-3.07A115.82,115.82,0,0,1,810.8,2205a64.13,64.13,0,0,1-7-3.16,32.62,32.62,0,0,1-6.43-4.38,18.18,18.18,0,0,1-4.74-6.37,14.08,14.08,0,0,1-.84-7.86c.9-5.21,3.83-9.55,7-13.42Z" transform="translate(0 -2099.59)"/><path class="cls-1" d="M805.79,2248.5c52.71-10,161.71,34,161.71,34l-73,30Z" transform="translate(0 -2099.59)"/><polygon class="cls-6" points="245.5 212.91 281.5 69.91 144.5 36.91 98.5 179.91 245.5 212.91"/><polyline class="cls-7" points="98.5 179.91 47.5 136.91 61.5 44.91 144.5 36.91"/><path class="cls-1" d="M301,2313.88c-28-1.28-141.32-51.33-226.65-11.55s20,93.67,20,93.67Z" transform="translate(0 -2099.59)"/></svg>