<svg id="Layer_1" data-name="Layer 1" xmlns="http://www.w3.org/2000/svg" viewBox="0 0 1125 336.41"><defs><style>.cls-1{fill:#496fa5;}.cls-2{fill:#757574;}.cls-3{fill:#a0a0a0;}.cls-4{fill:#fff;}</style></defs><path class="cls-1" d="M0,2103c140,24,269,28,388,4,84-16.94,337.37-1.47,428,13,119,19,309,1,309,1v315H0Z" transform="translate(0 -2099.59)"/><path class="cls-2" d="M517.55,2349.94l-21.26-4.59s-12.07-82.75-4.6-109.18,23.91-45.42,72.86-50.29l7.67,155.67Z" transform="translate(0 -2099.59)"/><path class="cls-3" d="M509.51,2261.45c-12.07-99.4,132.15-99.4,143.07-14.36s10.92,80.44,10.92,80.44l-146,22.41Z" transform="translate(0 -2099.59)"/><path class="cls-4" d="M537.52,2263.86a20.32,20.32,0,0,1,2.73-5.69,14.7,14.7,0,0,1,4.55-4.4,9.84,9.84,0,0,1,1.46-.71,13.75,13.75,0,0,1,1.55-.45,14.89,14.89,0,0,1,1.63-.12,8.75,8.75,0,0,1,1.61.2,10.15,10.15,0,0,1,3,1.21l1.32.87,1.25.9a30.9,30.9,0,0,0,11.12,4.9,17.29,17.29,0,0,0,6,.21,10.94,10.94,0,0,0,5.45-2.42l1.17-1,.6-.51.68-.42a2.86,2.86,0,0,1,.72-.36c.26-.08.5-.19.76-.26l.81-.11a4.3,4.3,0,0,1,.8,0,10.74,10.74,0,0,1,3,.85c1,.39,1.9.81,2.87,1.13a12.93,12.93,0,0,0,6,.64c2-.29,4-1,6-1.36a118.65,118.65,0,0,1,12.31-1.3,37.59,37.59,0,0,0,12-2.67,37.85,37.85,0,0,1-12,2.8,117.23,117.23,0,0,0-12.27,1.41c-2,.38-4,1.11-6,1.43a13.2,13.2,0,0,1-6.17-.6c-2-.6-3.82-1.71-5.81-1.9a4.59,4.59,0,0,0-.74,0l-.73.11c-.24.06-.46.17-.69.25a2.07,2.07,0,0,0-.66.34l-.63.39-.57.5-1.17,1a11.44,11.44,0,0,1-5.68,2.6,17.74,17.74,0,0,1-6.25-.16,31.6,31.6,0,0,1-11.42-4.89l-1.28-.9-1.27-.82a9.49,9.49,0,0,0-2.74-1.08,7.09,7.09,0,0,0-1.45-.17,14.13,14.13,0,0,0-1.46.12c-.47.15-1,.23-1.4.42a9,9,0,0,0-1.32.66,14,14,0,0,0-4.23,4.17,19.35,19.35,0,0,0-2.54,5.45Z" transform="translate(0 -2099.59)"/></svg>