<?xml version="1.0" encoding="utf-8"?>
<!-- Generator: Adobe Illustrator 24.1.0, SVG Export Plug-In . SVG Version: 6.00 Build 0)  -->
<svg version="1.1" id="Layer_1" xmlns="http://www.w3.org/2000/svg" xmlns:xlink="http://www.w3.org/1999/xlink" x="0px" y="0px"
	 viewBox="0 0 32 32" style="enable-background:new 0 0 32 32;" xml:space="preserve">
<g id="Icon_ionic-ios-menu" transform="translate(-4.5 -10.125)">
	<path id="Path_1" d="M32.88,20.5H8.12C7.5,20.5,7,20,7,19.38l0,0c0-0.62,0.5-1.12,1.12-1.12h24.75c0.62,0,1.12,0.5,1.12,1.12l0,0
		C34,20,33.5,20.5,32.88,20.5z"/>
	<path id="Path_2" d="M32.88,27.25H8.12C7.5,27.25,7,26.75,7,26.12l0,0C7,25.5,7.5,25,8.12,25h24.75C33.5,25,34,25.5,34,26.12l0,0
		C34,26.75,33.5,27.25,32.88,27.25z"/>
	<path id="Path_3" d="M32.88,34H8.12C7.5,34,7,33.5,7,32.88l0,0c0-0.62,0.5-1.12,1.12-1.12h24.75c0.62,0,1.12,0.5,1.12,1.12l0,0
		C34,33.5,33.5,34,32.88,34z"/>
</g>
</svg>
