<svg id="Layer_1" data-name="Layer 1" xmlns="http://www.w3.org/2000/svg" viewBox="0 0 1125 552"><defs><style>.cls-1{fill:#77bc77;}.cls-2{fill:#5aad60;}.cls-3{fill:#424242;}.cls-4{fill:#262626;}.cls-5{fill:#fff;}.cls-6{fill:#4395ed;}.cls-7{fill:#ea4444;}</style></defs><path class="cls-1" d="M1,1884c192,63,844,173,1124,168v384H0Z" transform="translate(0 -1884)"/><path class="cls-2" d="M0,2436V2140c73,20,1125-64,1125-88v384Z" transform="translate(0 -1884)"/><rect class="cls-3" y="409" width="1125" height="143"/><circle class="cls-4" cx="319" cy="453" r="51"/><circle class="cls-4" cx="685" cy="453" r="51"/><path class="cls-5" d="M772,2182H689.24s-45.14-153.5-51.74-153.5h-.33l-.17-.5-.09.5H245.5a12,12,0,0,0-12,12v284a12,12,0,0,0,12,12H264c0-.17,0-.33,0-.5a55,55,0,0,1,110,0c0,.17,0,.33,0,.5H630c0-.17,0-.33,0-.5a55.08,55.08,0,0,1,.71-8.76c.06-.39.13-.78.2-1.17.1-.55.21-1.09.33-1.64.07-.37.15-.73.24-1.1.14-.62.3-1.23.47-1.84.08-.27.14-.55.22-.83.26-.88.53-1.75.83-2.61l.18-.48c.25-.72.52-1.42.8-2.12.1-.26.21-.51.32-.76.26-.62.53-1.23.81-1.84l.34-.72c.32-.65.65-1.3,1-1.94l.26-.5a54.65,54.65,0,0,1,3-4.84l.07-.11c.51-.73,1-1.45,1.58-2.16l.22-.29q.8-1,1.62-2c.06-.07.11-.14.17-.2a55.44,55.44,0,0,1,6.16-6.1,55,55,0,0,1,90.5,42h32a12,12,0,0,0,12-12V2194A12,12,0,0,0,772,2182Z" transform="translate(0 -1884)"/><polygon class="cls-6" points="680 298 640 168 571 168 571 298 680 298"/><path class="cls-7" d="M430.92,2111.6H406.4v-24.52a4.1,4.1,0,0,0-4.08-4.08H368.68a4.1,4.1,0,0,0-4.08,4.08v24.52H340.08a4.1,4.1,0,0,0-4.08,4.08v33.64a4.1,4.1,0,0,0,4.08,4.08H364.6v24.52a4.1,4.1,0,0,0,4.08,4.08h33.64a4.1,4.1,0,0,0,4.08-4.08V2153.4h24.52a4.1,4.1,0,0,0,4.08-4.08v-33.64A4.1,4.1,0,0,0,430.92,2111.6Z" transform="translate(0 -1884)"/><rect class="cls-6" x="514" y="168" width="49" height="130"/></svg>