<svg id="Layer_1" data-name="Layer 1" xmlns="http://www.w3.org/2000/svg" viewBox="0 0 1125 552.11"><defs><style>.cls-1{fill:#77bc77;}.cls-2{fill:#5aad60;}.cls-3{fill:#e8e37e;}.cls-4{fill:#e0b8b6;}.cls-5{fill:#eac1bb;}.cls-6{fill:#474035;}.cls-7{fill:#f7ef94;}</style></defs><path class="cls-1" d="M1,1884c192,63,844,173,1124,168v384H0Z" transform="translate(0 -1884)"/><path class="cls-2" d="M0,2436V2140c73,20,1125-64,1125-88v384Z" transform="translate(0 -1884)"/><path class="cls-3" d="M771,2436v-29.07c0-81.36-38.8-147.93-86.22-147.93H473.22C425.8,2259,325,2354,389,2436Z" transform="translate(0 -1884)"/><path class="cls-4" d="M649,2260.67c0,25.77-140.21,25.71-142,0C500,2160,649,2173,649,2260.67Z" transform="translate(0 -1884)"/><ellipse class="cls-5" cx="579.5" cy="264.5" rx="115.5" ry="110.5"/><path class="cls-6" d="M578.85,2030c81,1.94,112.15,58.21,116.23,90.18s-46.14-19.62-42.11,4.1c6.21,36.55-112.9-4.79-186.82,24.78C451.07,2155.11,458.87,2027.13,578.85,2030Z" transform="translate(0 -1884)"/><path class="cls-7" d="M615.77,2202.26,418,2436s124.77.26,125,0l113.92-186a12,12,0,0,0,1.25-16.92l-25.47-29.53A12,12,0,0,0,615.77,2202.26Z" transform="translate(0 -1884)"/><path class="cls-4" d="M620.71,2199.71C621,2188,635,2175,646,2178s32,18,31,34-16.25,26.13-16.25,26.13Z" transform="translate(0 -1884)"/><path class="cls-7" d="M683.75,2354a128,128,0,0,1,3.32,20.5c.67,6.83.92,13.67.93,20.5s-.27,13.67-1,20.5a127.89,127.89,0,0,1-3.3,20.5h-.5l-.12-10.25,0-10.25L683,2395l.08-20.5,0-10.25.12-10.25Z" transform="translate(0 -1884)"/></svg>