<svg id="Layer_1" data-name="Layer 1" xmlns="http://www.w3.org/2000/svg" viewBox="0 0 1125 552"><defs><style>.cls-1{fill:#77bc77;}.cls-2{fill:#5aad60;}.cls-3{fill:#e8e37e;}.cls-4{fill:#e0b8b6;}.cls-5{fill:#eac1bb;}.cls-6{fill:#474035;}.cls-7{fill:#f7ef94;}.cls-8{fill:#92c1f4;}.cls-9{fill:#fff;}</style></defs><path class="cls-1" d="M1,1884c192,63,844,173,1124,168v384H0Z" transform="translate(0 -1884)"/><path class="cls-2" d="M0,2436V2140c73,20,1125-64,1125-88v384Z" transform="translate(0 -1884)"/><path class="cls-3" d="M771,2436v-29.07c0-81.36-38.8-147.93-86.22-147.93H473.22c-47.42,0-92.22,95-84.22,177Z" transform="translate(0 -1884)"/><path class="cls-4" d="M649,2260.67c0,25.77-140.21,25.71-142,0C500,2160,649,2173,649,2260.67Z" transform="translate(0 -1884)"/><ellipse class="cls-5" cx="579.5" cy="264.5" rx="115.5" ry="110.5"/><path class="cls-6" d="M578.85,2030c81,1.94,112.15,58.21,116.23,90.18s-46.14-19.62-42.11,4.1c6.21,36.55-112.9-4.79-186.82,24.78C451.07,2155.11,458.87,2027.13,578.85,2030Z" transform="translate(0 -1884)"/><path class="cls-7" d="M683.75,2354a128,128,0,0,1,3.32,20.5c.67,6.83.92,13.67.93,20.5s-.27,13.67-1,20.5a127.89,127.89,0,0,1-3.3,20.5h-.5l-.12-10.25,0-10.25L683,2395l.08-20.5,0-10.25.12-10.25Z" transform="translate(0 -1884)"/><path class="cls-7" d="M479.75,2354l.12,10.25.05,10.25L480,2395l-.08,20.5-.05,10.25-.12,10.25h-.5a128,128,0,0,1-3.32-20.5c-.67-6.83-.92-13.67-.93-20.5s.27-13.67.95-20.5a127.89,127.89,0,0,1,3.3-20.5Z" transform="translate(0 -1884)"/><path class="cls-8" d="M466.82,2176c27.55-1.78,57-2.38,84.59-12.06,16-5.61,41.6-4.94,56.2.1,39.42,13.61,76.35,12.1,83.2,12,6.63-.13-12.24,87.16-113,82.5S455.22,2176.76,466.82,2176Z" transform="translate(0 -1884)"/><path class="cls-9" d="M689.8,2190.2c8.88-9.48.84-45.08,6-42.37S689.8,2190.2,689.8,2190.2Z" transform="translate(0 -1884)"/><path class="cls-9" d="M466,2190.45c-7.88-10.34,3.73-44.94-1.68-42.76S466,2190.45,466,2190.45Z" transform="translate(0 -1884)"/></svg>