<svg id="Layer_1" data-name="Layer 1" xmlns="http://www.w3.org/2000/svg" viewBox="0 0 3328 1259"><defs><style>.cls-1{fill:#f4f4c9;}.cls-2{fill:#80cde8;}.cls-3{fill:#ed7c9c;}.cls-4{fill:#e2cfa6;}.cls-5{fill:#77bc77;}.cls-6{fill:#5aad60;}.cls-7{fill:#725c29;}.cls-8{fill:#c6c2ba;}.cls-9{fill:#adaaa6;}.cls-10{fill:#7f6e4b;}.cls-11{fill:#397f39;}.cls-12{fill:#509650;}.cls-13{fill:#eaa326;}.cls-14{fill:#efb252;}.cls-15{fill:#ccc;}.cls-16{fill:#d6d6d6;}.cls-17{fill:#6d522c;}.cls-18{fill:#876d40;}.cls-19{fill:#ddd;}.cls-20{fill:#afafaf;}.cls-21{fill:#cecece;}.cls-22{fill:#848484;}.cls-23{fill:#756754;}.cls-24{fill:#dce7ef;}.cls-25{fill:#f7e5c1;}.cls-26{fill:#fff;}</style></defs><path class="cls-1" d="M1125,2436H0V2007s422.31,78,563,78,562-78,562-78Z" transform="translate(1294 -1177)"/><path class="cls-2" d="M764,2289c-8,0-46,12-50,17s-4.87,11.32,3,12C727.82,2318.94,764,2289,764,2289Z" transform="translate(1294 -1177)"/><path class="cls-3" d="M874.23,2426.3C874,2430,877,2436,877,2436h178l-32.82-74.31-155.35,51.79Z" transform="translate(1294 -1177)"/><path class="cls-4" d="M980,2154l-49.12,38.67L862.8,2254l-21.8-5,15-11s-35,2-49-26c-17.87-35.74-20-31-30-46-21.34-32-39-11-34-1,3.69,7.38,18.41,55.58,32,75,10.52,15,30,51,45,58,15.42,7.2,50,87,50,87s139.66-25.94,125-45c-30-39-29-60-15-158Z" transform="translate(1294 -1177)"/><path class="cls-5" d="M-1293.5,1806c70,77.94,150.92,92.36,239.89,94.92,104,3,196.83-63.23,375.84-16,180.16,47.55,423.5,24.15,508.77-67v618H-1294Z" transform="translate(1294 -1177)"/><path class="cls-2" d="M-548.73,1906.33C-575.94,1902.54-788,1937-775,1991s233,48,156,111-288,69-350,130-324.43,110-324.43,110v26.41S-1053,2355-951,2258c76.86-73.09,375-96,457-179,28.46-28.81-132-49-145-88-16.4-49.2,272.15-87.8,227.07-84.9S-510.46,1911.65-548.73,1906.33Z" transform="translate(1294 -1177)"/><path class="cls-6" d="M-1294,2436c58.92-59,382.66-52.43,495.56-136,118.89-88,272.6-88.38,335.7-93,62.22-4.56,293.74-124,293.74-148v377Z" transform="translate(1294 -1177)"/><path class="cls-7" d="M-1084.64,2380.64C-1060,2321-1061,2267-1063,2229s-11-21-42-66-49-43-54-71,13-14,13-14,3,9,11,21c6.66,10,26,22.64,30,34,6,17,48,64.07,47,34-1-31-12-53-19-66-6.38-11.85-9.72-34.53-16-45-6-10-20-24-20-29s17-2,14,2c0,0,23,31,27,42s16.84,57.45,25,69c12,17,8,28,14,24,6.3-4.2,35-26,43-29,8.63-3.24,37.07-14.82,41-21,7-11,16-15,21-7s2,8-9,20-76,34-81,54c-5.83,23.3-21.77,163.32-8.38,190.16S-1084.64,2380.64-1084.64,2380.64Z" transform="translate(1294 -1177)"/><path class="cls-8" d="M-1052.62,2387.09c17-6.51,21.8-28.48,42.53-23.47s46.53,25.26,31.33,28.05S-1068,2393-1052.62,2387.09Z" transform="translate(1294 -1177)"/><path class="cls-9" d="M-1018,2394c2,2.2-53.55,3.09-53-1,.6-4.47,15.85-8.47,17-10C-1051,2379-1031,2380-1018,2394Z" transform="translate(1294 -1177)"/><path class="cls-10" d="M-895.29,2262.87c-8.61-16.88-8.27-32.17-7.57-42.93s3.85-6,14.68-18.69,17.13-12.18,18.87-20.1-4.54-4-4.54-4a26.39,26.39,0,0,1-3.84,6c-2.33,2.83-9.09,6.41-10.49,9.63-2.1,4.81-16.76,18.14-16.42,9.62.35-8.78,4.19-15,6.64-18.69,2.23-3.35,3.39-9.77,5.59-12.74s7-6.79,7-8.21-5.94-.56-4.9.57c0,0-8,8.78-9.43,11.89s-5.89,16.27-8.74,19.54c-4.19,4.81-2.79,7.93-4.89,6.79s-12.23-7.36-15-8.21c-3-.91-13-4.19-14.33-5.94-2.44-3.12-5.59-4.25-7.34-2s-.69,2.27,3.15,5.67,26.56,9.62,28.31,15.29c2,6.59,7.6,46.24,2.93,53.84S-895.29,2262.87-895.29,2262.87Z" transform="translate(1294 -1177)"/><path class="cls-9" d="M-348,2436c-12.36-9.27-49-42.26-85.25-57.71C-512.7,2344.44-599.46,2406.65-594,2436Z" transform="translate(1294 -1177)"/><path class="cls-11" d="M-882.5,2123.26a35.13,35.13,0,0,0-5.75.48c-4.52-12.79-14.89-21.74-27-21.74-13.35,0-24.62,10.95-28.2,25.94-.39,0-.79,0-1.18,0-13.35,0-24.18,11.09-24.18,24.79a24.76,24.76,0,0,0,16.2,23.4c3.24,11,16.4,19.27,32.15,19.27,12.89,0,24-5.53,29.45-13.57a34.26,34.26,0,0,0,8.48,1.06c17.73,0,32.1-13.34,32.1-29.8S-864.77,2123.26-882.5,2123.26Z" transform="translate(1294 -1177)"/><path class="cls-12" d="M-994,2059a82.46,82.46,0,0,0-13.8,1.17c-10.84-30.7-35.73-52.17-64.7-52.17-32,0-59.09,26.26-67.66,62.22-.94,0-1.89-.07-2.84-.07-32,0-58,26.63-58,59.48,0,26,16.23,48,38.85,56.14,7.78,26.44,39.35,46.23,77.15,46.23,30.92,0,57.67-13.25,70.65-32.54A82.87,82.87,0,0,0-994,2202c42.53,0,77-32,77-71.5S-951.47,2059-994,2059Z" transform="translate(1294 -1177)"/><path class="cls-13" d="M-1150.49,2134.08c-20,6.43-33.19-1.93-37.1-20.63-5.22-25,13.59-34.45,7.59-45.45-3.38-6.19,25.89-10.49,41.3,27.62C-1132.29,2111.49-1134.31,2128.87-1150.49,2134.08Z" transform="translate(1294 -1177)"/><path class="cls-14" d="M-1178,2122c-4-15,9.86-28.12,9-36,5-2,17.13,11.18,25,23C-1127.69,2133.48-1171.11,2147.85-1178,2122Z" transform="translate(1294 -1177)"/><path class="cls-13" d="M-1017.52,2191.83c-20.75-3.22-28.79-16.61-23.9-35.08,6.53-24.64,27.61-24.69,27.18-37.21-.24-7.05,27.84,2.24,24.52,43.21C-991.11,2179.81-1000.72,2194.44-1017.52,2191.83Z" transform="translate(1294 -1177)"/><path class="cls-14" d="M-1036.68,2168.7c3.15-15.2,21.42-20.71,24.19-28.14,5.37.46,10.3,17.68,12,31.77C-996.87,2201.53-1042.12,2194.89-1036.68,2168.7Z" transform="translate(1294 -1177)"/><path class="cls-13" d="M-1076,2071.51c-15.12,4.87-25.1-1.46-28.06-15.6-4-18.88,10.28-26.06,5.74-34.38-2.55-4.69,19.59-7.94,31.24,20.89C-1062.18,2054.43-1063.72,2067.57-1076,2071.51Z" transform="translate(1294 -1177)"/><path class="cls-14" d="M-1096.76,2062.37c-3-11.34,7.45-21.26,6.8-27.23,3.79-1.51,13,8.46,18.91,17.4C-1058.71,2071.06-1091.55,2081.93-1096.76,2062.37Z" transform="translate(1294 -1177)"/><path class="cls-15" d="M-664,2213c-3,14-7,77-26,100s59,31,59,31Z" transform="translate(1294 -1177)"/><path class="cls-16" d="M-664,2213c16,0,131-1,160-18,0,0,13,80,37,101s-145,69-160,54S-664,2213-664,2213Z" transform="translate(1294 -1177)"/><path class="cls-17" d="M-992.87,2413.55c-6.62,1.07-8.46-12.23-6.23-13.32,2.49-1.21,39.84-10.9,42.33-10.9,6.71,0,7.47,9.69,6.23,10.9S-992.87,2413.55-992.87,2413.55Z" transform="translate(1294 -1177)"/><path class="cls-18" d="M-989,2402.13c4.77-1.38,39-12.55,45.35-13.12,4.47-.4,8.68,11.39,3.9,12.77s-41.22,13.19-45,14.28C-988.3,2417.09-996.14,2404.2-989,2402.13Z" transform="translate(1294 -1177)"/><path class="cls-13" d="M-987,2402c-4-13.51-8.37-15.84,3.17-43.38S-967.67,2322.1-972,2314s21.37,18.71,19.93,38.15,15.87,42.11,0,47S-987,2402-987,2402Z" transform="translate(1294 -1177)"/><path class="cls-14" d="M-981,2402c-1.35-1.48-6.89-12.59,6-31,14-20,6-38,7-39s23.94,60.93,17,67C-957,2404.26-978.4,2404.85-981,2402Z" transform="translate(1294 -1177)"/><path class="cls-13" d="M-1000,2401.74c-6.09-.64-13.38-5.23-13.39-11s-7.32-15-3.66-20.78-7.31,1.15-7.31,8.07-9.74,15-7.31,19.62-14.61,2.3-12.18-5.77-8.52-13.85-6.09-21.92-7.3-18.46-6.09-24.23-4.87,4.62-4.87,6.92-9.3,20.53-13.39,25.38c-4.88,5.77-20.71,13.85-20.71,17.31s53.59,16.15,74.29,11.54S-1000,2401.74-1000,2401.74Z" transform="translate(1294 -1177)"/><path class="cls-14" d="M-1028.21,2407.77a5.91,5.91,0,0,0,.91-1.16,6.21,6.21,0,0,0,.28-5.84,27.78,27.78,0,0,1,2.69-5,46,46,0,0,0,3.73-6.9c.13.32.25.63.37.94.86,2.19,1.84,4.66,1.84,5.93a14.35,14.35,0,0,0,4.24,9.51c-2.15.5-4.68,1.08-7.64,1.74A40.08,40.08,0,0,1-1028.21,2407.77Zm-15.59-.51a235.54,235.54,0,0,1-43-8.38c1.46-1.07,3.08-2.19,4.4-3.1,4.54-3.15,9.24-6.4,11.88-9.53s9.75-15.47,13-23.17c1.73,3.73,3.57,7.86,2.8,10.42-1.87,6.2,1.28,11.3,3.57,15,1.91,3.11,3.06,5.1,2.52,6.89a9.74,9.74,0,0,0,1.5,8.82A12.48,12.48,0,0,0-1043.8,2407.26Z" transform="translate(1294 -1177)"/><path class="cls-8" d="M-169,2369.09c-11.61-11.7-24.58-21.19-38-24.43-71-17.22-75.7-72.93-160.67-57.42s-87,139.45-99.36,148.76h298Z" transform="translate(1294 -1177)"/><polygon class="cls-19" points="2510 262 2510 527 3328 524 3328 262 2510 262"/><ellipse class="cls-20" cx="2919" cy="262" rx="399" ry="252"/><path class="cls-21" d="M1625,1701c-108.44,0-210.54-26.76-287.48-75.35-37.83-23.9-67.6-51.82-88.47-83-21.93-32.74-33-67.61-33-103.65s11.12-70.91,33-103.65c20.87-31.18,50.64-59.1,88.47-83,76.94-48.59,179-75.35,287.48-75.35s210.54,26.76,287.48,75.35c37.83,23.9,67.6,51.82,88.47,83,21.93,32.74,33,67.61,33,103.65s-11.12,70.91-33,103.65c-20.87,31.18-50.64,59.1-88.47,83C1835.54,1674.24,1733.44,1701,1625,1701Z" transform="translate(1294 -1177)"/><ellipse class="cls-22" cx="2919" cy="262" rx="399" ry="252"/><path class="cls-20" d="M1315.83,1598.31q1.62-1.39,3.25-2.76l.52-.44,2.84-2.34.61-.5c1-.81,2-1.61,3-2.41l.37-.3q3.54-2.79,7.2-5.52l0,0c1.15-.86,2.32-1.71,3.5-2.57l.58-.42c1-.73,2-1.47,3.08-2.19l.68-.48,3.25-2.25.44-.3q3.83-2.61,7.78-5.16l.1-.06c1.23-.8,2.47-1.58,3.71-2.36l.69-.43c1.08-.68,2.17-1.35,3.26-2l.78-.47c1.14-.69,2.28-1.38,3.44-2.06l.52-.31q4.1-2.43,8.3-4.77l.26-.15,3.82-2.1.82-.44c1.12-.61,2.25-1.21,3.39-1.81l.9-.48,3.58-1.86.64-.32q4.33-2.22,8.78-4.36l.4-.2,3.91-1.86,1-.45,3.48-1.6,1-.48,3.67-1.64.78-.35q4.56-2,9.2-3.93l.62-.25c1.3-.54,2.61-1.07,3.93-1.6l1.13-.45,3.53-1.4,1.22-.47,3.71-1.42,1-.36q4.74-1.79,9.58-3.48l.82-.29,3.93-1.36,1.32-.44,3.55-1.18,1.39-.46c1.24-.41,2.48-.81,3.73-1.2l1.14-.36q4.92-1.56,9.92-3l1-.29,3.93-1.13,1.48-.42,3.57-1,1.55-.42,3.76-1,1.29-.33q5.09-1.32,10.24-2.56l1.24-.29,3.89-.91,1.65-.37,3.59-.8,1.69-.37,3.76-.8,1.46-.3q5.23-1.08,10.53-2.07l1.42-.26,3.87-.7,1.8-.32,3.58-.61,1.85-.31c1.25-.21,2.51-.41,3.76-.6l1.61-.26q5.37-.82,10.79-1.57l1.59-.22,3.85-.5,1.92-.24,3.62-.44,2-.23,3.81-.42,1.7-.19c1.8-.18,3.6-.37,5.4-.54h.1c1.85-.18,3.69-.35,5.54-.51l1.71-.15,3.86-.31,2-.16,3.64-.26,2-.14,3.87-.24,1.77-.11,5.54-.29h.09c1.88-.09,3.76-.18,5.65-.25l1.77-.06c1.3,0,2.61-.1,3.92-.13l2.09-.06c1.23,0,2.46-.07,3.7-.09l2.1,0c1.3,0,2.61,0,3.92-.06l1.83,0,5.73,0c3.78,0,7.54,0,11.29.1l.91,0q5.25.11,10.45.28l1.1,0q5.25.19,10.46.48l.77,0q5.54.3,11,.7l.23,0q5.38.39,10.74.87l.93.09c3.38.31,6.76.65,10.11,1l1,.11q5.16.57,10.28,1.22l.53.07q5.37.69,10.68,1.46l.32,0c3.44.51,6.87,1,10.27,1.61l.84.13c3.3.55,6.57,1.13,9.83,1.73l.79.14q5.1.94,10.14,2l.2,0q5.19,1.07,10.31,2.21l.31.07q4.95,1.11,9.84,2.3l.68.17q4.8,1.17,9.54,2.42l.54.14q10,2.64,19.69,5.62l.24.07q4.73,1.46,9.39,3l.49.16q4.65,1.53,9.23,3.13l.24.08q9.46,3.32,18.61,7l.14.06q4.49,1.79,8.9,3.64l.28.12q13.49,5.68,26.17,12l0,0q4.21,2.1,8.33,4.28l.1,0a369.7,369.7,0,0,1,53.19,34C1995.48,1546,2024,1494.61,2024,1439c0-139.18-178.64-252-399-252s-399,112.82-399,252C1226,1499.43,1259.68,1554.89,1315.83,1598.31Z" transform="translate(1294 -1177)"/><ellipse class="cls-2" cx="2823" cy="433.5" rx="24" ry="12.5"/><path class="cls-2" d="M1796,1582c0-11.6-33.84-21-75.58-21s-75.58,9.4-75.58,21c0,6.8,11.63,12.84,29.65,16.67-20.42,2.69-34.49,8.32-34.49,14.83,0,9.11,27.53,16.5,61.5,16.5s61.5-7.39,61.5-16.5c0-4.55-6.86-8.66-17.94-11.65C1774.7,1599,1796,1591.2,1796,1582Z" transform="translate(1294 -1177)"/><ellipse class="cls-2" cx="2933.5" cy="485.5" rx="30.5" ry="8.5"/><path class="cls-23" d="M389,2210.43v-96.86h0V2102H379v7.43l-45.5,45.5-45.5-45.5V2102H278v11.56h0v96.86h0V2222h10v-7.43l45.5-45.5,45.5,45.5V2222h10v-11.56h0Zm-101-10v-76.86L326.43,2162ZM340.57,2162,379,2123.57v76.86Z" transform="translate(1294 -1177)"/><path class="cls-19" d="M245,2090.07V1899.93c0,14.92,176,14.92,176,0v190.14C417.93,2114.44,242.06,2113.72,245,2090.07Z" transform="translate(1294 -1177)"/><path class="cls-21" d="M333,1918c-23.65,0-45.9-1.36-62.66-3.84C245.22,1910.45,242,1903.71,242,1900s3.22-7.45,28.34-11.16c16.76-2.48,39-3.84,62.66-3.84s45.9,1.36,62.66,3.84c25.12,3.71,28.34,7.45,28.34,11.16s-3.22,10.45-28.34,14.16C378.9,1916.64,356.65,1918,333,1918Z" transform="translate(1294 -1177)"/><ellipse class="cls-20" cx="1627" cy="723" rx="88" ry="13"/><path class="cls-24" d="M890.83,1961.84,604.4,2097a15.65,15.65,0,0,0-4.57,1.71c-13,7.39-10.89,30.25-6.85,48.13,5.48,24.24,17.64,53.66,34.23,82.82s35.67,54.64,53.71,71.74c13.3,12.61,31.89,26.09,44.88,18.7l.21-.14.24.33,265.52-181.12h0l.42-.23c10.06-5.72,13.57-20,10.16-41.34-3.22-20.07-12.3-44-25.57-67.3S947.6,1987,932,1974c-16.58-13.83-30.66-18.11-40.72-12.39-.15.08-.29.17-.43.26ZM685.42,2297.53c-17.76-16.83-36.57-42-53-70.81S604,2168.87,598.64,2145c-5-22-3.68-37.56,3.41-41.88l.16.36,3.28-1.55c7.83-1.1,20.4,5.85,34.72,19.42,17.76,16.83,36.57,42,53,70.81s28.4,57.85,33.8,81.71c5,22.16,3.66,37.86-3.61,42S701.91,2313.16,685.42,2297.53ZM734,2309.1c3.25-10.34,1.4-24.88-1.36-37.1-5.48-24.24-17.63-53.65-34.23-82.81s-35.67-54.65-53.71-71.74c-8.76-8.31-19.82-17-30.05-19.83L883,1971c-3.41,7.48-4.08,18.27-1.89,32,3.21,20.07,12.29,44,25.57,67.3s29.18,43.35,44.79,56.37c10.69,8.9,20.33,13.84,28.53,14.71Zm237.53-275.78c28.74,50.51,32.63,93.21,18.23,101.41s-49.13-17-77.87-67.48-32.62-93.21-18.22-101.41S942.8,1982.81,971.54,2033.32Z" transform="translate(1294 -1177)"/><path class="cls-25" d="M914.22,2087.9c4.79,4,12.18.74,16.66-4.06-4.79-11.7-9-20.83-11.39-24.86-7.76-13.3-12-21.87-21.61-7.61C896.13,2065.3,902.46,2080.28,914.22,2087.9Z" transform="translate(1294 -1177)"/><path class="cls-4" d="M930.88,2083.84c-4.48,4.8-11.87,8.1-16.66,4.06-11.76-7.62-18.09-22.6-16.34-36.53-.84,1.25-1.73,2.66-2.66,4.27-11.61,20-4.83,23,25.78,135.36l-20,18c15.83,6.67,49.1,3.5,54.44-26C959.28,2161.75,943.27,2114.15,930.88,2083.84Z" transform="translate(1294 -1177)"/><path class="cls-25" d="M874.83,2086.59c5.52,4.65,14,.85,19.2-4.68-5.51-13.49-10.41-24-13.12-28.65-8.94-15.32-13.78-25.2-24.9-8.77C854,2060.54,861.29,2077.8,874.83,2086.59Z" transform="translate(1294 -1177)"/><path class="cls-4" d="M894,2081.91c-5.16,5.53-13.68,9.33-19.2,4.68-13.54-8.79-20.83-26.05-18.82-42.1-1,1.44-2,3.06-3.07,4.92-13.38,23.08-2.21,37.12,33.06,166.59l-20,14c37,10,60-1,56.33-33.82C919.56,2171.44,908.31,2116.83,894,2081.91Z" transform="translate(1294 -1177)"/><path class="cls-25" d="M955.17,2112.5c3.22,2.72,8.18.5,11.19-2.73a160.64,160.64,0,0,0-7.65-16.7c-5.21-8.94-8-14.7-14.52-5.12C943,2097.31,947.27,2107.38,955.17,2112.5Z" transform="translate(1294 -1177)"/><path class="cls-4" d="M966.36,2109.77c-3,3.23-8,5.45-11.19,2.73-7.9-5.12-12.15-15.19-11-24.55-.57.84-1.16,1.79-1.79,2.87-7.8,13.46-7,1.67,13.6,77.18l-12,8c10.64,4.49,29,7,35-11C983.59,2151.22,974.69,2130.14,966.36,2109.77Z" transform="translate(1294 -1177)"/><path class="cls-25" d="M850.83,2117.59c5.52,4.65,14,.85,19.2-4.68-5.51-13.49-10.41-24-13.12-28.65-8.94-15.32-13.78-25.2-24.9-8.77C830,2091.54,837.29,2108.8,850.83,2117.59Z" transform="translate(1294 -1177)"/><path class="cls-4" d="M870,2112.91c-5.16,5.53-13.68,9.33-19.2,4.68-13.54-8.79-20.83-26.05-18.82-42.1-1,1.44-2,3.06-3.07,4.92-13.38,23.08-8.21,28.12,27.06,157.59l-15,11c18.24,7.69,51.18,12.15,57.33-21.82C902.76,2202.68,884.31,2147.83,870,2112.91Z" transform="translate(1294 -1177)"/><path class="cls-26" d="M856.47,2372.05c-9.53,4.37-2.54,36.92,8.88,50.3C877,2436,1038,2385,1029.59,2364.65c-11.1-26.87-22.21-38.46-40-35.51C957.69,2334.47,888.73,2357.26,856.47,2372.05Z" transform="translate(1294 -1177)"/><path class="cls-2" d="M714.21,2335.24C711,2343,703.18,2362,714,2362,725,2362,714.21,2335.24,714.21,2335.24Z" transform="translate(1294 -1177)"/></svg>