<?xml version="1.0" encoding="utf-8"?>
<!-- Generator: Adobe Illustrator 24.1.2, SVG Export Plug-In . SVG Version: 6.00 Build 0)  -->
<svg version="1.1" id="Layer_1" xmlns="http://www.w3.org/2000/svg" xmlns:xlink="http://www.w3.org/1999/xlink" x="0px" y="0px"
	 viewBox="0 0 1125 1259" style="enable-background:new 0 0 1125 1259;" xml:space="preserve">
<style type="text/css">
	.st0{fill:#F4F4C9;}
	.st1{fill:#80CDE8;}
	.st2{fill:#ED7C9C;}
	.st3{fill:#E2CFA6;}
	.st4{fill:#756754;}
	.st5{fill:#DDDDDD;}
	.st6{fill:#CECECE;}
	.st7{fill:#AFAFAF;}
	.st8{fill:#DCE7EF;}
	.st9{fill:#F7E5C1;}
	.st10{fill:#FFFFFF;}
</style>
<path class="st0" d="M1125,1259H0V830c0,0,422.3,78,563,78s562-78,562-78V1259z"/>
<path class="st1" d="M764,1112c-8,0-46,12-50,17s-4.9,11.3,3,12C727.8,1141.9,764,1112,764,1112z"/>
<path class="st2" d="M874.2,1249.3c-0.2,3.7,2.8,9.7,2.8,9.7h178l-32.8-74.3l-155.4,51.8L874.2,1249.3z"/>
<path class="st3" d="M980,977l-49.1,38.7l-68.1,61.3l-21.8-5l15-11c0,0-35,2-49-26c-17.9-35.7-20-31-30-46c-21.3-32-39-11-34-1
	c3.7,7.4,18.4,55.6,32,75c10.5,15,30,51,45,58c15.4,7.2,50,87,50,87s139.7-25.9,125-45c-30-39-29-60-15-158V977z"/>
<path class="st4" d="M389,1033.4v-96.9l0,0V925h-10v7.4l-45.5,45.5L288,932.4V925h-10v11.6l0,0v96.9l0,0v11.6h10v-7.4l45.5-45.5
	l45.5,45.5v7.4h10V1033.4L389,1033.4L389,1033.4z M288,1023.4v-76.9l38.4,38.4L288,1023.4z M340.6,985l38.4-38.4v76.9L340.6,985z"/>
<path class="st5" d="M245,913.1V722.9c0,14.9,176,14.9,176,0v190.1C417.9,937.4,242.1,936.7,245,913.1z"/>
<path class="st6" d="M333,741c-23.6,0-45.9-1.4-62.7-3.8c-25.1-3.7-28.3-10.5-28.3-14.2s3.2-7.4,28.3-11.2c16.8-2.5,39-3.8,62.7-3.8
	s45.9,1.4,62.7,3.8c25.1,3.7,28.3,7.4,28.3,11.2s-3.2,10.4-28.3,14.2C378.9,739.6,356.6,741,333,741z"/>
<ellipse class="st7" cx="333" cy="723" rx="88" ry="13"/>
<path class="st8" d="M890.8,784.8L604.4,920c-1.6,0.3-3.1,0.9-4.6,1.7c-13,7.4-10.9,30.2-6.8,48.1c5.5,24.2,17.6,53.7,34.2,82.8
	s35.7,54.6,53.7,71.7c13.3,12.6,31.9,26.1,44.9,18.7l0.2-0.1l0.2,0.3l265.5-181.1l0,0l0.4-0.2c10.1-5.7,13.6-20,10.2-41.3
	c-3.2-20.1-12.3-44-25.6-67.3S947.6,810,932,797c-16.6-13.8-30.7-18.1-40.7-12.4C891.1,784.7,891,784.8,890.8,784.8L890.8,784.8z
	 M685.4,1120.5c-17.8-16.8-36.6-42-53-70.8S604,991.9,598.6,968c-5-22-3.7-37.6,3.4-41.9l0.2,0.4l3.3-1.6
	c7.8-1.1,20.4,5.9,34.7,19.4c17.8,16.8,36.6,42,53,70.8s28.4,57.9,33.8,81.7c5,22.2,3.7,37.9-3.6,42S701.9,1136.2,685.4,1120.5z
	 M734,1132.1c3.2-10.3,1.4-24.9-1.4-37.1c-5.5-24.2-17.6-53.6-34.2-82.8s-35.7-54.6-53.7-71.7c-8.8-8.3-19.8-17-30-19.8L883,794
	c-3.4,7.5-4.1,18.3-1.9,32c3.2,20.1,12.3,44,25.6,67.3s29.2,43.4,44.8,56.4c10.7,8.9,20.3,13.8,28.5,14.7L734,1132.1z M971.5,856.3
	c28.7,50.5,32.6,93.2,18.2,101.4s-49.1-17-77.9-67.5s-32.6-93.2-18.2-101.4S942.8,805.8,971.5,856.3L971.5,856.3z"/>
<path class="st9" d="M914.2,910.9c4.8,4,12.2,0.7,16.7-4.1c-4.8-11.7-9-20.8-11.4-24.9c-7.8-13.3-12-21.9-21.6-7.6
	C896.1,888.3,902.5,903.3,914.2,910.9z"/>
<path class="st3" d="M930.9,906.8c-4.5,4.8-11.9,8.1-16.7,4.1c-11.8-7.6-18.1-22.6-16.3-36.5c-0.8,1.2-1.7,2.7-2.7,4.3
	c-11.6,20-4.8,23,25.8,135.4l-20,18c15.8,6.7,49.1,3.5,54.4-26C959.3,984.8,943.3,937.1,930.9,906.8z"/>
<path class="st9" d="M874.8,909.6c5.5,4.6,14,0.9,19.2-4.7c-5.5-13.5-10.4-24-13.1-28.6c-8.9-15.3-13.8-25.2-24.9-8.8
	C854,883.5,861.3,900.8,874.8,909.6z"/>
<path class="st3" d="M894,904.9c-5.2,5.5-13.7,9.3-19.2,4.7c-13.5-8.8-20.8-26.1-18.8-42.1c-1,1.4-2,3.1-3.1,4.9
	c-13.4,23.1-2.2,37.1,33.1,166.6l-20,14c37,10,60-1,56.3-33.8C919.6,994.4,908.3,939.8,894,904.9z"/>
<path class="st9" d="M955.2,935.5c3.2,2.7,8.2,0.5,11.2-2.7c-2.2-5.7-4.8-11.3-7.7-16.7c-5.2-8.9-8-14.7-14.5-5.1
	C943,920.3,947.3,930.4,955.2,935.5z"/>
<path class="st3" d="M966.4,932.8c-3,3.2-8,5.4-11.2,2.7c-7.9-5.1-12.2-15.2-11-24.6c-0.6,0.8-1.2,1.8-1.8,2.9
	c-7.8,13.5-7,1.7,13.6,77.2l-12,8c10.6,4.5,29,7,35-11C983.6,974.2,974.7,953.1,966.4,932.8z"/>
<path class="st9" d="M850.8,940.6c5.5,4.6,14,0.9,19.2-4.7c-5.5-13.5-10.4-24-13.1-28.6c-8.9-15.3-13.8-25.2-24.9-8.8
	C830,914.5,837.3,931.8,850.8,940.6z"/>
<path class="st3" d="M870,935.9c-5.2,5.5-13.7,9.3-19.2,4.7c-13.5-8.8-20.8-26.1-18.8-42.1c-1,1.4-2,3.1-3.1,4.9
	c-13.4,23.1-8.2,28.1,27.1,157.6l-15,11c18.2,7.7,51.2,12.1,57.3-21.8C902.8,1025.7,884.3,970.8,870,935.9z"/>
<path class="st10" d="M856.5,1195.1c-9.5,4.4-2.5,36.9,8.9,50.3c11.7,13.6,172.7-37.4,164.2-57.7c-11.1-26.9-22.2-38.5-40-35.5
	C957.7,1157.5,888.7,1180.3,856.5,1195.1z"/>
<path class="st1" d="M714.2,1158.2c-3.2,7.8-11,26.8-0.2,26.8C725,1185,714.2,1158.2,714.2,1158.2z"/>
</svg>
