<svg id="Layer_1" data-name="Layer 1" xmlns="http://www.w3.org/2000/svg" viewBox="0 0 1125 527"><defs><style>.cls-1{fill:#f4f4c9;}.cls-2{fill:#ddd;}.cls-3{fill:#afafaf;}.cls-4{fill:#cecece;}.cls-5{fill:#848484;}.cls-6{fill:#80cde8;}</style></defs><path class="cls-1" d="M1125,2437H0V2008s422.31,78,563,78,562-78,562-78Z" transform="translate(0 -1910.12)"/><polygon class="cls-2" points="153.75 262 153.75 527 971.75 524 971.75 262 153.75 262"/><ellipse class="cls-3" cx="562.75" cy="262" rx="399" ry="252"/><path class="cls-4" d="M562.75,2434.12c-108.44,0-210.53-26.76-287.47-75.35-37.83-23.9-67.6-51.82-88.48-83-21.93-32.75-33.05-67.62-33.05-103.66s11.12-70.91,33.05-103.65c20.88-31.18,50.65-59.1,88.48-83,76.94-48.6,179-75.36,287.47-75.36s210.54,26.76,287.48,75.36c37.83,23.89,67.6,51.81,88.48,83,21.93,32.74,33,67.62,33,103.65s-11.11,70.91-33,103.66c-20.88,31.17-50.65,59.09-88.48,83C773.29,2407.36,671.2,2434.12,562.75,2434.12Z" transform="translate(0 -1910.12)"/><ellipse class="cls-5" cx="562.75" cy="262" rx="399" ry="252"/><path class="cls-3" d="M253.59,2331.43c1.07-.93,2.15-1.84,3.24-2.76l.52-.43c.94-.79,1.89-1.57,2.85-2.35l.61-.5,3-2.41.38-.3q3.54-2.79,7.2-5.51l0,0q1.74-1.29,3.5-2.56l.59-.43,3.08-2.19.67-.48,3.26-2.25.43-.3q3.84-2.61,7.78-5.16l.11-.06c1.23-.79,2.46-1.58,3.71-2.36l.69-.43c1.08-.67,2.16-1.35,3.26-2l.77-.47c1.14-.7,2.29-1.38,3.44-2.07l.53-.31q4.1-2.41,8.29-4.77l.26-.14c1.27-.71,2.54-1.41,3.82-2.1l.83-.45,3.38-1.81.91-.48,3.57-1.85.64-.33q4.34-2.22,8.78-4.36l.4-.19c1.3-.63,2.61-1.25,3.92-1.86l1-.46,3.47-1.6,1.05-.48,3.67-1.64.78-.34q4.56-2,9.2-3.93l.63-.26,3.92-1.6,1.14-.45,3.53-1.39,1.21-.48,3.72-1.42.95-.36c3.17-1.18,6.36-2.35,9.58-3.48l.82-.29,3.93-1.35,1.32-.45,3.55-1.18,1.39-.46,3.73-1.2,1.14-.36q4.92-1.56,9.93-3l1-.3,3.92-1.13,1.49-.42,3.57-1,1.55-.43,3.76-1,1.28-.34q5.1-1.32,10.25-2.55l1.24-.3,3.88-.9,1.65-.38,3.59-.8,1.69-.36,3.77-.8,1.46-.31q5.24-1.08,10.53-2.07l1.42-.26,3.86-.7,1.8-.32,3.59-.61,1.85-.31,3.76-.6,1.61-.26q5.37-.82,10.78-1.57l1.6-.21,3.85-.51,1.91-.24,3.63-.44,1.94-.22,3.81-.43,1.71-.18c1.79-.19,3.59-.38,5.39-.55H515q2.76-.27,5.54-.51l1.71-.14,3.85-.32,2-.15,3.64-.27,2-.14,3.87-.24,1.76-.1c1.85-.11,3.69-.21,5.54-.3H545l5.65-.25,1.78-.06,3.91-.13,2.1-.06,3.69-.09,2.1,0,3.93-.06,1.82,0q2.87,0,5.73,0,5.67,0,11.29.11H588c3.49.07,7,.16,10.44.29l1.11,0c3.5.13,7,.28,10.46.47l.76,0c3.7.2,7.37.44,11,.7l.22,0q5.4.39,10.75.88l.92.08q5.08.47,10.12,1l1,.1q5.16.57,10.28,1.22l.52.07q5.37.69,10.69,1.47l.31,0c3.45.51,6.87,1.05,10.28,1.61l.84.14q4.93.83,9.83,1.72l.79.14q5.1.95,10.14,2l.19,0q5.19,1.07,10.32,2.21l.31.07q5,1.11,9.83,2.3l.68.17c3.2.78,6.39,1.59,9.55,2.42l.53.14q10,2.66,19.7,5.62l.23.07q4.74,1.45,9.39,3l.49.16q4.65,1.53,9.23,3.13l.24.08q9.47,3.33,18.61,7l.14,0q4.5,1.78,8.9,3.64l.29.12q13.47,5.68,26.17,12l0,0q4.2,2.11,8.32,4.28l.1.06a367.44,367.44,0,0,1,53.19,34c48.31-41.68,76.83-93.09,76.83-148.7,0-139.17-178.63-252-399-252s-399,112.83-399,252C163.75,2232.55,197.44,2288,253.59,2331.43Z" transform="translate(0 -1910.12)"/><ellipse class="cls-6" cx="466.75" cy="433.5" rx="24" ry="12.5"/><path class="cls-6" d="M733.76,2315.12c0-11.6-33.84-21-75.59-21s-75.58,9.4-75.58,21c0,6.8,11.64,12.84,29.66,16.68-20.43,2.68-34.49,8.31-34.49,14.82,0,9.12,27.53,16.5,61.5,16.5s61.5-7.38,61.5-16.5c0-4.54-6.86-8.66-18-11.64C712.45,2332.14,733.76,2324.32,733.76,2315.12Z" transform="translate(0 -1910.12)"/><ellipse class="cls-6" cx="577.25" cy="485.5" rx="30.5" ry="8.5"/></svg>