<svg id="Layer_1" data-name="Layer 1" xmlns="http://www.w3.org/2000/svg" viewBox="0 0 1125 539"><defs><style>.cls-1{fill:#ddd;}.cls-2{fill:#afafaf;}.cls-3{fill:#848484;}.cls-4{fill:#595959;}.cls-5{fill:#ed7c9c;}.cls-6{fill:#e2cfa6;}.cls-7{fill:#fff;}.cls-8{fill:#7f2d52;}.cls-9{fill:#53eac6;}.cls-10{fill:#cecece;}</style></defs><rect class="cls-1" y="34" width="1125" height="505" rx="12"/><rect class="cls-2" x="71" y="74" width="983" height="314" rx="12"/><rect class="cls-3" x="71" y="187" width="983" height="200" rx="12"/><ellipse class="cls-2" cx="562" cy="318.5" rx="78" ry="27.5"/><ellipse class="cls-4" cx="562" cy="323.5" rx="73" ry="22.5"/><path class="cls-5" d="M874.23,2426.3C874,2430,877,2436,877,2436h178l-32.82-74.31-155.35,51.79Z" transform="translate(0 -1897)"/><path class="cls-6" d="M969,2142c-8-7.14-29.26-20.45-40-20-24.65,1-85,7.05-94,30-5.26,13.33,28,50,28,50l-2,10.29L843,2244s-36-19-45-29l-9-16c-14-26-21-19-28-11-5.43,6.21.41,32.58,14,52,10.52,15,30,51,45,58,15.42,7.2,50,87,50,87s139.66-25.94,125-45c-30-39-22.54-59.29-15-158C980.79,2171.66,980.32,2152.05,969,2142Z" transform="translate(0 -1897)"/><path class="cls-7" d="M856.47,2372.05c-9.53,4.37-2.54,36.92,8.88,50.3C877,2436,1038,2385,1029.59,2364.65c-11.1-26.87-22.21-38.46-40-35.51C957.69,2334.47,888.73,2357.26,856.47,2372.05Z" transform="translate(0 -1897)"/><path class="cls-6" d="M835,2152c-2,26-2,43,7,46s19-18,19-18Z" transform="translate(0 -1897)"/><rect class="cls-7" x="634.92" y="2187.89" width="43.87" height="14.76" rx="1.56" transform="translate(-64.55 -1876.64) rotate(-1.69)"/><path class="cls-8" d="M859,2197l-222.39,6.77c-4.25.13-7.61,3.18-7.61,6.9v1.21c0,3.9,3.68,7,8.12,6.91L861,2213C867,2199,859,2198,859,2197Z" transform="translate(0 -1897)"/><path class="cls-9" d="M643,2188c-6.82-.21-5-10-1-11s16.08,2.1,21-2c6-5,5-7,9,3,.88,2.19,1,5.57,0,7-2,3-9.58,2.72-9.58,2.72Z" transform="translate(0 -1897)"/><path class="cls-10" d="M654,2001H471c-6.6,0-11-3.88-9.82-8.49l23.48-91.26c.61-2.36,4.83-4.25,9.4-4.25H620.7c4.56,0,9,1.89,9.81,4.25L663,1992.51C664.62,1997.12,660.6,2001,654,2001Z" transform="translate(0 -1897)"/><path class="cls-1" d="M651,2030H473a12,12,0,0,1-12-12v-24c0-6.6,202-6.6,202,0v24A12,12,0,0,1,651,2030Z" transform="translate(0 -1897)"/><path class="cls-3" d="M473,2025a7,7,0,0,1-7-7v-20.65c9.58-1.69,43.94-3.3,96-3.3s86.42,1.61,96,3.3V2018a7,7,0,0,1-7,7Z" transform="translate(0 -1897)"/></svg>