<svg id="Layer_1" data-name="Layer 1" xmlns="http://www.w3.org/2000/svg" viewBox="0 0 1125 560.58"><defs><style>.cls-1{fill:#ddd;}.cls-2{fill:#afafaf;}.cls-3{fill:#848484;}.cls-4{fill:#595959;}.cls-5{fill:#ed7c9c;}.cls-6{fill:#e2cfa6;}.cls-7{fill:#fff;}.cls-8{fill:#7f2d52;}.cls-9{fill:#53eac6;}.cls-10{fill:#cecece;}.cls-11{fill:#3ca048;}.cls-12{fill:#477744;}.cls-13{fill:#e0e0e0;}.cls-14{fill:#d8d8d8;}.cls-15{fill:none;stroke:#fff;stroke-miterlimit:10;stroke-width:10px;}</style></defs><rect class="cls-1" x="316" y="194.86" width="809" height="363.15" rx="12"/><rect class="cls-2" x="367.06" y="223.63" width="706.89" height="225.8" rx="12"/><rect class="cls-3" x="367.06" y="304.89" width="706.89" height="143.82" rx="12"/><ellipse class="cls-2" cx="720.14" cy="399.45" rx="56.09" ry="19.78"/><ellipse class="cls-4" cx="720.14" cy="403.05" rx="52.5" ry="16.18"/><path class="cls-5" d="M944.67,2429c-.17,2.66,2,7,2,7h128l-23.6-53.43-111.71,37.24Z" transform="translate(0 -1878)"/><path class="cls-6" d="M1012.82,2224.6c-5.78-5.14-21-14.71-28.77-14.39-17.72.74-61.08,5.08-67.59,21.58-3.78,9.58,20.13,35.95,20.13,35.95l-1.44,7.4L922.21,2298s-25.89-13.67-32.36-20.86l-6.47-11.5c-10.07-18.7-15.1-13.67-20.14-7.91-3.9,4.46.3,23.42,10.07,37.39,7.57,10.81,21.57,36.67,32.36,41.71,11.09,5.17,36,62.56,36,62.56s100.43-18.66,89.89-32.36c-21.58-28.05-16.21-42.64-10.79-113.62C1021.3,2245.92,1021,2231.82,1012.82,2224.6Z" transform="translate(0 -1878)"/><path class="cls-7" d="M931.9,2390c-6.86,3.14-1.83,26.55,6.38,36.17,8.38,9.81,124.16-26.86,118.11-41.49-8-19.33-16-27.66-28.74-25.54C1004.68,2363,955.1,2379.39,931.9,2390Z" transform="translate(0 -1878)"/><path class="cls-6" d="M916.46,2231.79c-1.44,18.69-1.44,30.92,5,33.08s13.66-12.95,13.66-12.95Z" transform="translate(0 -1878)"/><rect class="cls-7" x="772.58" y="2257.6" width="31.55" height="10.62" rx="1.56" transform="translate(-66.49 -1853.73) rotate(-1.69)"/><path class="cls-8" d="M933.72,2264.15,773.79,2269c-3,.1-5.47,2.29-5.47,5v.87c0,2.8,2.64,5.05,5.84,5l161-4.16C939.47,2265.59,933.72,2264.87,933.72,2264.15Z" transform="translate(0 -1878)"/><path class="cls-9" d="M778.39,2257.68c-4.91-.16-3.6-7.2-.72-7.92s11.56,1.51,15.1-1.43c4.32-3.6,3.6-5,6.47,2.15.63,1.58.69,4,0,5-1.44,2.16-6.89,1.95-6.89,1.95Z" transform="translate(0 -1878)"/><path class="cls-10" d="M786.3,2123.2H654.7c-4.74,0-7.91-2.79-7.06-6.11l16.88-65.62c.44-1.7,3.48-3.06,6.76-3.06h91.07c3.28,0,6.46,1.36,7.06,3.06l23.35,65.62C793.94,2120.41,791,2123.2,786.3,2123.2Z" transform="translate(0 -1878)"/><path class="cls-1" d="M784.14,2144.06h-128a8.66,8.66,0,0,1-8.63-8.63v-17.26c0-4.75,145.26-4.75,145.26,0v17.26A8.66,8.66,0,0,1,784.14,2144.06Z" transform="translate(0 -1878)"/><path class="cls-3" d="M656.14,2140.46a5,5,0,0,1-5-5v-14.86c6.88-1.21,31.59-2.37,69-2.37s62.15,1.16,69,2.37v14.86a5,5,0,0,1-5,5Z" transform="translate(0 -1878)"/><path class="cls-11" d="M445,2437H0V2008s425.31,65,566,65Z" transform="translate(0 -1878)"/><path class="cls-12" d="M138,2295l74-417s-2,9,34,9l-79,414C157,2307,141,2302,138,2295Z" transform="translate(0 -1878)"/><path class="cls-13" d="M194,1979a12.16,12.16,0,0,0,3.65,2.24,35.22,35.22,0,0,0,4,1.36c2.69.78,5.46,1.36,8.25,1.91s5.6,1,8.43,1.46,5.66.87,8.69,1a20.77,20.77,0,0,1-8.84,2.11,37.66,37.66,0,0,1-9-.68,32,32,0,0,1-8.66-2.93,18.61,18.61,0,0,1-3.87-2.63A8.39,8.39,0,0,1,194,1979Z" transform="translate(0 -1878)"/><path class="cls-13" d="M170,2110a12.16,12.16,0,0,0,3.65,2.24,35.22,35.22,0,0,0,4,1.36c2.69.78,5.46,1.36,8.25,1.91s5.6,1,8.43,1.46,5.66.87,8.69,1a20.77,20.77,0,0,1-8.84,2.11,37.66,37.66,0,0,1-9-.68,32,32,0,0,1-8.66-2.93,18.61,18.61,0,0,1-3.87-2.63A8.39,8.39,0,0,1,170,2110Z" transform="translate(0 -1878)"/><path class="cls-13" d="M149,2226a12.16,12.16,0,0,0,3.65,2.24,35.22,35.22,0,0,0,4,1.36c2.69.78,5.46,1.36,8.25,1.91s5.6,1,8.43,1.46,5.66.87,8.69,1a20.77,20.77,0,0,1-8.84,2.11,37.66,37.66,0,0,1-9-.68,32,32,0,0,1-8.66-2.93,18.61,18.61,0,0,1-3.87-2.63A8.39,8.39,0,0,1,149,2226Z" transform="translate(0 -1878)"/><path class="cls-12" d="M108.9,2390.6c-.09-.6-77.23-416.42-77.23-416.42s1.29,9.13,35-3.52c0,0,71.4,414.53,71.49,415.36C139,2394,110,2398,108.9,2390.6Z" transform="translate(0 -1878)"/><path class="cls-13" d="M50.31,2075.07a12.31,12.31,0,0,0,4.2.81,36.76,36.76,0,0,0,4.2-.12c2.8-.22,5.6-.65,8.4-1.12s5.6-1,8.41-1.59,5.6-1.18,8.49-2.09a20.85,20.85,0,0,1-7.53,5.09,38.33,38.33,0,0,1-8.71,2.54,32.48,32.48,0,0,1-9.14.3,18.38,18.38,0,0,1-4.54-1.11A8.24,8.24,0,0,1,50.31,2075.07Z" transform="translate(0 -1878)"/><path class="cls-13" d="M73.86,2206.15a12.41,12.41,0,0,0,4.21.81,36.82,36.82,0,0,0,4.2-.12c2.8-.22,5.59-.65,8.39-1.12s5.61-1,8.41-1.59,5.61-1.18,8.5-2.09a20.89,20.89,0,0,1-7.54,5.09,38.25,38.25,0,0,1-8.7,2.54,32.55,32.55,0,0,1-9.15.3,18.6,18.6,0,0,1-4.54-1.11A8.35,8.35,0,0,1,73.86,2206.15Z" transform="translate(0 -1878)"/><path class="cls-13" d="M95,2322.13a12.08,12.08,0,0,0,4.2.81,36.76,36.76,0,0,0,4.2-.12c2.8-.22,5.6-.64,8.4-1.11s5.6-1,8.41-1.6,5.6-1.18,8.49-2.08a21,21,0,0,1-7.53,5.08,38.33,38.33,0,0,1-8.71,2.54,31.75,31.75,0,0,1-9.14.3,18.36,18.36,0,0,1-4.54-1.1A8.33,8.33,0,0,1,95,2322.13Z" transform="translate(0 -1878)"/><path class="cls-14" d="M354.54,2125.51c9.79-14.9,17.14-40.84,37-29.6s38.06,21.19,36.76,52.76c-1.81,44.15-39.35,33.72-39.35,33.72Z" transform="translate(0 -1878)"/><path d="M354,2125.5l2.36-5.56,2.19-5.34a110.76,110.76,0,0,1,4.92-10.68,37.34,37.34,0,0,1,7.49-10.09,19.41,19.41,0,0,1,6-3.75,17,17,0,0,1,7.43-1,21.9,21.9,0,0,1,6.84,1.81c.52.22,1,.46,1.52.71l1.4.73,2.55,1.37a68.17,68.17,0,0,1,9.9,6.37,69.16,69.16,0,0,1,15.89,18.09,59,59,0,0,1,5.22,10.75,67.73,67.73,0,0,1,3.21,11.62c.36,2,.65,4,.84,6a42.33,42.33,0,0,1,.19,6.07,48,48,0,0,1-1.84,12.33,36.27,36.27,0,0,1-5.78,11.84,29.91,29.91,0,0,1-10.63,8.72,33.85,33.85,0,0,1-13,3.24,40.57,40.57,0,0,1-6.53-.17c-1.08-.12-2.15-.25-3.23-.46l-1.61-.33-.82-.2-.94-.26-.09,0a4.87,4.87,0,0,1-2.93-2.26q-4.3-7.52-8.38-15.09t-7.93-15.07l-3.8-7.48-3.64-7.41C358.48,2135.09,356.14,2130.25,354,2125.5Zm1,0c3.65,4.74,7,9.37,10.42,13.94l5,6.81,4.82,6.75q4.74,6.72,9.28,13.37c3,4.45,6,8.88,8.83,13.36l-3-2.28,1,.18,1.22.17c.82.1,1.66.19,2.49.24a39.55,39.55,0,0,0,5,0,28.23,28.23,0,0,0,9.24-2.1,20,20,0,0,0,7.36-5.35,26.71,26.71,0,0,0,4.86-8.45,57.06,57.06,0,0,0,2.59-10.24c.49-3.59,1.13-7.27,1.29-11a38.09,38.09,0,0,0-.92-11,27.93,27.93,0,0,0-8.25-14.14,39.66,39.66,0,0,0-4.36-3.41c-1.54-1-3.13-2-4.75-2.86l-4.92-2.59c-3.31-1.7-6.6-3.49-9.88-5.45l-2.47-1.47-1.12-.66c-.35-.19-.71-.39-1.06-.56a14.88,14.88,0,0,0-4.18-1.39,9.18,9.18,0,0,0-3.94.2,11.89,11.89,0,0,0-3.9,1.95,35.67,35.67,0,0,0-7.17,7.56c-2.21,3-4.33,6.14-6.52,9.33q-1.61,2.4-3.35,4.76c-.58.79-1.17,1.57-1.79,2.33l-.93,1.13c-.15.17-.34.42-.45.52S355.21,2125.39,355,2125.51Z" transform="translate(0 -1878)"/><path class="cls-14" d="M351,2280.23s12.15,42.33,26.41,41.32c26.09-1.87,11.8-63.38-27.7-79.17-55.46-22.16-81.94,0-81.94,0-27.31,13.75-60.36,78-35.76,76.05,23-1.86,35.73-35.73,35.73-35.73S242.3,2323.1,246,2349.2c0,0-13.05-2.49-17.4-3.73s-4.66,22.68,14.6,19,106.56-2.29,118.37.93C388.94,2372.81,384,2348,384,2348l-24.23,3.11S369.68,2318.13,351,2280.23Z" transform="translate(0 -1878)"/><path d="M351.18,2280.6a.42.42,0,0,0,.26-.43l0,0,0,.11.07.22.16.44.31.88.65,1.74c.44,1.16.89,2.32,1.35,3.47.93,2.3,1.87,4.59,2.88,6.85a123.85,123.85,0,0,0,6.69,13.15,57,57,0,0,0,4.09,6,24.08,24.08,0,0,0,4.89,4.8,9.09,9.09,0,0,0,2.72,1.32,5.27,5.27,0,0,0,1.33.19c.22,0,.43,0,.65,0l.79-.11a10,10,0,0,0,5.42-2.56c2.94-2.73,4.17-7.3,4.36-11.84a46.27,46.27,0,0,0-1.75-13.89,73.25,73.25,0,0,0-12.6-25.46,61,61,0,0,0-21.34-18.11c-1-.51-2.1-1-3.17-1.42s-2.27-.86-3.39-1.29c-2.27-.89-4.58-1.65-6.87-2.46-4.62-1.49-9.3-2.8-14-3.82a100,100,0,0,0-28.66-2.4,70.48,70.48,0,0,0-14.08,2.45,53.82,53.82,0,0,0-6.69,2.41c-1.07.49-2.15,1-3.16,1.55-.52.28-1,.57-1.51.87s-1,.65-1.33.89l-.19.14a1.65,1.65,0,0,1-.25.15,55.81,55.81,0,0,0-14.48,10.74,110.19,110.19,0,0,0-12,14.08,125.54,125.54,0,0,0-9.81,15.78,84,84,0,0,0-6.88,17.14,28,28,0,0,0-.95,8.89,8.49,8.49,0,0,0,1.21,3.87,4.84,4.84,0,0,0,3,2.06,11.1,11.1,0,0,0,4.19,0,23.9,23.9,0,0,0,4.32-1.06,29.25,29.25,0,0,0,7.88-4.22,41.16,41.16,0,0,0,6.61-6.19,64.35,64.35,0,0,0,5.5-7.31,84.61,84.61,0,0,0,4.56-8,77.19,77.19,0,0,0,3.67-8.34l4,2c-2.91,5-5.61,10.26-8.09,15.54s-4.72,10.69-6.67,16.16a110,110,0,0,0-4.62,16.61,49.24,49.24,0,0,0-.72,16.48,3.54,3.54,0,0,1-3,4,3.63,3.63,0,0,1-1.14,0l-.09,0c-4.23-.75-8.41-1.57-12.65-2.45l-3.21-.71-1.66-.42-.21-.06a1.4,1.4,0,0,0,.35.08,2.53,2.53,0,0,0,1-.06,2.45,2.45,0,0,0,1.17-.65c.27-.32.13-.2.09,0a4.27,4.27,0,0,0-.17.89,10.94,10.94,0,0,0,0,2.36,13.13,13.13,0,0,0,1.4,4.68,8.5,8.5,0,0,0,2.9,3.22,8.65,8.65,0,0,0,4.17,1.24,13.07,13.07,0,0,0,2.48-.1c.43,0,.86-.12,1.3-.21l1.66-.29c4.53-.74,8.8-1,13.13-1.34s8.61-.48,12.9-.64c8.58-.25,17.14-.31,25.7-.31s17.11.2,25.66.49,17.11.64,25.7,1.3c2.15.17,4.3.36,6.47.59s4.32.47,6.62.88l.87.16.95.22c.7.16,1.09.28,1.58.41.95.25,1.9.48,2.84.65a23.33,23.33,0,0,0,5.5.45,10.88,10.88,0,0,0,4.61-1.13,7.29,7.29,0,0,0,3-3.06,13.21,13.21,0,0,0,1.4-4.86,19.62,19.62,0,0,0,.12-2.77c0-.47,0-.94-.07-1.4s-.09-1-.14-1.28l3.54,2.54-12.15,1.33-12.15,1.27H360a2.66,2.66,0,0,1-2.93-2.37,2.78,2.78,0,0,1,.1-1.08c.39-1.24.76-2.73,1.06-4.14s.57-2.88.81-4.34c.46-2.91.8-5.86,1-8.82a106.47,106.47,0,0,0-.25-17.85,107.63,107.63,0,0,0-3.14-17.67c-.79-2.9-1.65-5.79-2.67-8.62-.47-1.44-1-2.83-1.57-4.25a15.92,15.92,0,0,1-.66-1.88A15.7,15.7,0,0,0,351.18,2280.6Zm-.29-.75c.38.63.87,1.25,1.37,2a18.59,18.59,0,0,1,1.24,2.25c.65,1.38,1.35,2.74,1.94,4.15l.91,2.11.84,2.13c.58,1.42,1.05,2.88,1.57,4.32a109.22,109.22,0,0,1,4.45,17.88,106.44,106.44,0,0,1,1.32,18.47c0,3.1-.23,6.2-.58,9.3-.18,1.55-.39,3.1-.65,4.64s-.55,3-1,4.73l-2.91-3.45,12.08-1.83,12.08-1.77a3.13,3.13,0,0,1,3.53,2.47v.07c.15.74.22,1.26.29,1.88s.13,1.19.16,1.79a29.2,29.2,0,0,1,0,3.62,19.92,19.92,0,0,1-1.9,7.4,14.4,14.4,0,0,1-5.65,6.09,17.77,17.77,0,0,1-7.62,2.21,31.22,31.22,0,0,1-7.22-.39c-1.16-.18-2.29-.42-3.41-.68-.54-.13-1.18-.3-1.52-.35l-.61-.13-.71-.11c-1.91-.29-4-.47-6.07-.63s-4.18-.29-6.28-.4c-16.87-.92-33.9-1-50.87-1.14-8.49,0-17,0-25.44.24-4.23.08-8.46.19-12.66.4s-8.42.46-12.32,1l-1.49.23q-.92.17-1.86.27a22,22,0,0,1-3.9.07,16.58,16.58,0,0,1-7.89-2.59,16.25,16.25,0,0,1-5.48-6.23,20.55,20.55,0,0,1-2.12-7.53,18.23,18.23,0,0,1,.08-4,12.09,12.09,0,0,1,.5-2.23,7.33,7.33,0,0,1,1.57-2.79,5.16,5.16,0,0,1,2.5-1.5,5.09,5.09,0,0,1,1.77-.1,7.37,7.37,0,0,1,.75.16l.17.05c.45.13.94.26,1.43.38,1,.25,2,.49,3,.73,4.09.94,8.26,1.79,12.4,2.65l-4.19,4a55.92,55.92,0,0,1,1.22-18.83,114.87,114.87,0,0,1,5.51-17.41,180.12,180.12,0,0,1,7.61-16.36c2.8-5.32,5.75-10.48,9-15.58l.06-.09a2.22,2.22,0,0,1,3.91,2.06,85.23,85.23,0,0,1-4.26,8.68,90.32,90.32,0,0,1-5.13,8.13,57.13,57.13,0,0,1-13.42,13.81,32.07,32.07,0,0,1-8.74,4.41,26.41,26.41,0,0,1-4.82,1.06,14,14,0,0,1-5.14-.13,7.43,7.43,0,0,1-4.51-3.15,10.94,10.94,0,0,1-1.58-5,30.33,30.33,0,0,1,1.08-9.7,87,87,0,0,1,6.92-17.74,149,149,0,0,1,9.64-16.34,127.85,127.85,0,0,1,11.82-14.93c4.39-4.63,9.17-9,15.06-12.24l-.44.29c.64-.54,1.13-.89,1.7-1.29s1.1-.74,1.67-1.09c1.12-.71,2.27-1.32,3.43-1.93a59.69,59.69,0,0,1,7.2-3,72.31,72.31,0,0,1,7.48-2.12,76.77,76.77,0,0,1,7.65-1.28,98.75,98.75,0,0,1,30.7,1.56,151.82,151.82,0,0,1,14.79,3.94c2.41.84,4.84,1.59,7.19,2.55,1.2.48,2.35.89,3.58,1.41s2.43,1.08,3.61,1.67a67.21,67.21,0,0,1,23.56,20.44,79.72,79.72,0,0,1,13,28,52,52,0,0,1,1.36,15.69,28.67,28.67,0,0,1-1.73,8,17.12,17.12,0,0,1-4.85,7.13,14.87,14.87,0,0,1-8,3.36l-1.06.09a9.89,9.89,0,0,1-1.22,0,9.45,9.45,0,0,1-2.33-.47,13,13,0,0,1-3.87-2.11,26.47,26.47,0,0,1-5.43-5.91,58.66,58.66,0,0,1-3.93-6.61,109,109,0,0,1-5.88-13.92c-.83-2.36-1.62-4.74-2.32-7.14-.36-1.2-.7-2.4-1-3.6l-.49-1.81-.23-.91-.11-.46-.06-.22,0-.12v-.06C350.71,2280.56,350.5,2280.11,350.89,2279.85Z" transform="translate(0 -1878)"/><path class="cls-14" d="M309.2,2113.21a87.48,87.48,0,0,0-47.36,13.55h0c-3.24-11.18-11-43.17-32.64-31.07s-37.37,25.27-42.6,53c-4,21.45,22.31,41.1,37.19,34.16,7.08-3.3,14.71-17.3,18.6-25.08.05-.12-12.11,16.86-13,24.86-4.12,38.11,35.72,69.4,79.79,69.4s79.78-31.07,79.78-69.4S353.26,2113.21,309.2,2113.21Z" transform="translate(0 -1878)"/><path d="M309.2,2113.71a83.9,83.9,0,0,0-12.37.91,81.45,81.45,0,0,0-12.07,2.75,78.42,78.42,0,0,0-21.95,10.91,1.72,1.72,0,0,1-2.65-.84l-.06-.18a124.42,124.42,0,0,0-6.73-17,45.68,45.68,0,0,0-4.63-7.36,17.34,17.34,0,0,0-5.87-5,9.6,9.6,0,0,0-6.52-.66,16.2,16.2,0,0,0-3.45,1.26c-.57.29-1.13.6-1.72.95l-2,1.19a172.69,172.69,0,0,0-14.91,10.07,77,77,0,0,0-12.66,12.06,61.86,61.86,0,0,0-9.09,15,69.89,69.89,0,0,0-3,8.49,40.86,40.86,0,0,0-1,4.31,21.33,21.33,0,0,0-.24,4.23,27.48,27.48,0,0,0,6.47,15.93A34.39,34.39,0,0,0,209,2181.18a22.24,22.24,0,0,0,8.54,1.51,15.12,15.12,0,0,0,4.14-.73,11.57,11.57,0,0,0,3.6-1.95,33.81,33.81,0,0,0,6-6.54c1.79-2.45,3.42-5,5-7.68s3-5.37,4.38-8.12l.26-.52c1.21.72-2.6-1.77,2.72,1.57l0,.08-.17.23-.65.94-1.3,1.9c-.85,1.28-1.69,2.58-2.5,3.88-1.63,2.6-3.19,5.25-4.58,8a35,35,0,0,0-3.26,8.23,8.19,8.19,0,0,0-.14,1l-.1,1.13c-.07.75-.09,1.5-.11,2.25,0,1.51,0,3,.14,4.5a48,48,0,0,0,1.51,8.85,51.91,51.91,0,0,0,7.73,16.09,65.11,65.11,0,0,0,12.33,12.92,78.47,78.47,0,0,0,15.14,9.48,92.56,92.56,0,0,0,51.91,8.42,82.18,82.18,0,0,0,32.82-11.71,70.63,70.63,0,0,0,23.94-24.45,58.29,58.29,0,0,0,7.69-32.85,62.4,62.4,0,0,0-11.69-32.43A73.24,73.24,0,0,0,344.9,2122,80.82,80.82,0,0,0,309.2,2113.71Zm0-1a99.78,99.78,0,0,1,36.77,6.84,89.17,89.17,0,0,1,16.84,8.87,77.84,77.84,0,0,1,14.54,12.7,67.48,67.48,0,0,1,10.75,16.42,63.13,63.13,0,0,1,5.39,19.19,65.17,65.17,0,0,1-7.94,38.9,76.36,76.36,0,0,1-27.69,28.25,90.66,90.66,0,0,1-37.19,12.26,97,97,0,0,1-38.64-3.77,93,93,0,0,1-17.83-7.71,84.78,84.78,0,0,1-15.66-11.4,71,71,0,0,1-12.35-14.87,58.14,58.14,0,0,1-7.37-17.81,50.45,50.45,0,0,1-1.3-9.55c-.08-1.6-.05-3.21,0-4.81.06-.8.09-1.6.17-2.4l.11-1.2c0-.4.11-.88.19-1.29a37.57,37.57,0,0,1,3.55-9.07c1.45-2.82,3.05-5.53,4.71-8.19q1.26-2,2.56-4l1.32-1.95.68-1,.18-.25.11-.15c5.35,3.33,1.45,1,2.62,1.77l-.26.53c-1.41,2.79-2.89,5.56-4.48,8.28a89.94,89.94,0,0,1-5.15,8,36.72,36.72,0,0,1-6.59,7.16,15.85,15.85,0,0,1-2.16,1.43,14.23,14.23,0,0,1-2.4,1,18.08,18.08,0,0,1-5,.84A25.76,25.76,0,0,1,208,2184a36.52,36.52,0,0,1-8.55-4.6,40.24,40.24,0,0,1-7.16-6.52,32.67,32.67,0,0,1-8.1-17.74,25.26,25.26,0,0,1,0-5.07c.16-1.74.44-3.27.69-4.86a82.53,82.53,0,0,1,2.14-9.42,62.56,62.56,0,0,1,8.32-17.78,64.84,64.84,0,0,1,13.48-14.36,105.81,105.81,0,0,1,16.17-10.49l2.1-1.11c.77-.4,1.6-.8,2.43-1.16a24,24,0,0,1,5.4-1.6,17.81,17.81,0,0,1,6,0,16.42,16.42,0,0,1,5.57,2.09,24.16,24.16,0,0,1,7.62,7.65,46.73,46.73,0,0,1,4.43,8.9,129.14,129.14,0,0,1,5.12,18.28l-2.71-1a89.24,89.24,0,0,1,11.44-5.54,97.8,97.8,0,0,1,12-3.88,101.12,101.12,0,0,1,24.88-3.11Z" transform="translate(0 -1878)"/><path d="M306.92,2190.75c-11.49.31-17.77,20.57-10.87,25.17,3.2,2.13,19.26,1.86,23-.62C323.92,2212,318.42,2190.44,306.92,2190.75Z" transform="translate(0 -1878)"/><circle cx="270.57" cy="319.9" r="9.32"/><circle cx="346.38" cy="319.9" r="9.32"/><path class="cls-14" d="M289.21,2146.33c4.36-7.48-4.35-24.86,1.25-18s11.18,9.94,8.7,5.59.62-1.24,5.59,0a5.74,5.74,0,0,0,6.83-3.11" transform="translate(0 -1878)"/><path d="M289,2146.18a30.68,30.68,0,0,0-.83-6.33l-.6-3.07a16.87,16.87,0,0,1-.36-3.21c0-1.11.09-2.27.15-3.46.05-.59.06-1.18.09-1.81,0-.32,0-.63,0-1a2.18,2.18,0,0,1,.24-.86,1.22,1.22,0,0,1,.95-.63,1.2,1.2,0,0,1,.71.16,2.33,2.33,0,0,1,.53.4c.14.12.25.24.36.35l.61.68a13.46,13.46,0,0,0,1.17,1.21,15.77,15.77,0,0,0,2.7,2c1,.57,1.94,1.08,2.85,1.57l1.31.68a2.31,2.31,0,0,0,.9.33s0-.06-.32-.1a2.15,2.15,0,0,0-.74.06,2.56,2.56,0,0,0-1.31.83,2.6,2.6,0,0,0-.58,1.21,2.53,2.53,0,0,0,0,.55c0,.21,0,.25,0,.25a1.62,1.62,0,0,1-.21-.29,7.86,7.86,0,0,1-.44-.67,6.55,6.55,0,0,1-.53-.93c-.09-.18-.18-.39-.29-.67s-.1-.31-.16-.53a4,4,0,0,1-.11-1.06,3.51,3.51,0,0,1,.22-1.1,3.6,3.6,0,0,1,.39-.75,3,3,0,0,1,.66-.71,3.4,3.4,0,0,1,.74-.46,3.25,3.25,0,0,1,.64-.22,3.47,3.47,0,0,1,.87-.09,4.46,4.46,0,0,1,1.34.22,7.55,7.55,0,0,1,1.09.44c1.11.53,1.95,1,2.85,1.49.44.22.88.46,1.32.66s.73.36,1.09.5a4.31,4.31,0,0,0,2.29.25,6.75,6.75,0,0,0,2.75-1.33l0,0a.32.32,0,0,1,.44.06.33.33,0,0,1,.07.21,5.66,5.66,0,0,1-1.66,3.68,6.63,6.63,0,0,1-4.16,1.88,10.23,10.23,0,0,1-2.23,0,18.79,18.79,0,0,1-1.9-.35,26.82,26.82,0,0,1-3.4-1.08,5,5,0,0,0-.49-.17,1.5,1.5,0,0,0,.52.06,2.74,2.74,0,0,0,.66-.07,3.26,3.26,0,0,0,1.2-.59,3,3,0,0,0,.92-1.29,2.74,2.74,0,0,0,.18-.9,2,2,0,0,0-.06-.63.63.63,0,0,0,0-.13s0,0,0,.11l.24.57.38.81a9.31,9.31,0,0,1,.47,1.25,5,5,0,0,1,.19,1.07,3.73,3.73,0,0,1,0,1,3.37,3.37,0,0,1-.74,1.6,3.24,3.24,0,0,1-1.67,1,3.41,3.41,0,0,1-1.16.1,4.25,4.25,0,0,1-1.14-.28,8.19,8.19,0,0,1-2.06-1.28,11.83,11.83,0,0,1-1.39-1.34,20.43,20.43,0,0,1-2.15-3c-.64-1-1.23-2-1.89-3-.32-.47-.67-1-1-1.37a5.93,5.93,0,0,0-.52-.58c-.15-.16-.41-.35-.41-.31s0,.06.3.06a.73.73,0,0,0,.41-.16.76.76,0,0,0,.22-.23c.1-.2.07-.11.1,0a4.74,4.74,0,0,0,.21.65,14.67,14.67,0,0,0,.72,1.51,29.7,29.7,0,0,1,1.55,3.15,12.54,12.54,0,0,1,.78,3.45,18.66,18.66,0,0,1,0,3.66,12.93,12.93,0,0,1-.94,3.69,6.89,6.89,0,0,1-2.41,3.08.34.34,0,0,1-.46-.1.33.33,0,0,1-.06-.19Z" transform="translate(0 -1878)"/><path class="cls-7" d="M337.06,2289.24c-13.69-13.38-56.54-13.67-60.89,5.59s-16.78,56.54-5.6,57.16,78.43,4.49,75.81-9.94C342.65,2321.55,349,2300.86,337.06,2289.24Z" transform="translate(0 -1878)"/><line class="cls-15" x1="582.5" y1="147.5" x2="445" y2="559"/></svg>