<svg id="Layer_1" data-name="Layer 1" xmlns="http://www.w3.org/2000/svg" viewBox="0 0 1125 559"><defs><style>.cls-1{fill:#f4f4c9;}.cls-2{fill:#e2e1ba;}.cls-3{fill:#d8d8d8;}.cls-4{fill:#fff;}.cls-5{fill:#477744;}.cls-6{fill:#e0e0e0;}</style></defs><path class="cls-1" d="M1125,2437H0V2008s422.31,78,563,78,562-78,562-78Z" transform="translate(0 -1878)"/><path class="cls-2" d="M123,2283c9,18,31,30,63,24" transform="translate(0 -1878)"/><path class="cls-2" d="M61.47,2386.64c36.65,30.43,109.07,2.49,122.53-22.64" transform="translate(0 -1878)"/><path class="cls-3" d="M643.14,1987.49c15.75-24,27.59-65.73,59.6-47.63s61.24,34.1,59.15,84.9c-2.92,71.07-63.33,54.29-63.33,54.29Z" transform="translate(0 -1878)"/><path d="M642.64,1987.48c.17-.4.37-.83.59-1.25l.55-1.07,1-2.07,2-4.17,3.89-8.41c2.57-5.64,5.26-11.26,8.4-16.77s6.79-10.93,11.95-15.48a29,29,0,0,1,9.08-5.48,24.76,24.76,0,0,1,10.88-1.35,33,33,0,0,1,10.2,2.79c.79.34,1.56.72,2.32,1.09s1.52.79,2.17,1.15l4.07,2.24a145.34,145.34,0,0,1,15.93,10,102.61,102.61,0,0,1,26.13,27.56,82.93,82.93,0,0,1,8.22,17.08,99.08,99.08,0,0,1,4.45,18.51c.44,3.16.76,6.33.93,9.51a78.51,78.51,0,0,1,0,9.58,80.21,80.21,0,0,1-3.19,19.2,55.66,55.66,0,0,1-9,18,45.13,45.13,0,0,1-16.11,13,52.48,52.48,0,0,1-19.83,4.87,64.62,64.62,0,0,1-10-.23c-1.66-.16-3.31-.37-5-.66-.83-.15-1.65-.31-2.48-.49l-1.25-.29c-.45-.11-.81-.2-1.37-.36l-.08,0a5,5,0,0,1-2.93-2.26c-4.64-7.88-9.11-15.85-13.63-23.75-2.26-3.95-4.43-7.94-6.64-11.89s-4.42-7.9-6.54-11.85L661,2022.4l-6.26-11.74C650.58,2002.86,646.49,1995.12,642.64,1987.48Zm1,0c5.39,7.62,10.54,15.14,15.67,22.6l7.59,11.15,7.44,11.08c2.49,3.68,4.88,7.37,7.31,11s4.86,7.32,7.21,11c4.72,7.36,9.49,14.65,14.09,22l-3-2.28.88.19,1,.19c.68.12,1.38.23,2.08.32,1.41.19,2.82.36,4.24.46a63.33,63.33,0,0,0,8.49,0,46.81,46.81,0,0,0,16-3.73,35.14,35.14,0,0,0,12.84-9.64,46.33,46.33,0,0,0,8.11-14.64,74.11,74.11,0,0,0,2.4-8.38c.62-2.86,1.12-5.78,1.54-8.73a153.56,153.56,0,0,0,1.36-18,65.92,65.92,0,0,0-2.19-17.9c-.35-1.47-.86-2.89-1.32-4.32l-.83-2.11-.42-1.05-.49-1-1-2-1.1-2c-.74-1.32-1.56-2.59-2.42-3.82a53.37,53.37,0,0,0-5.81-6.92,71,71,0,0,0-6.84-5.89,140.43,140.43,0,0,0-15.28-9.65c-5.28-3-10.59-5.94-15.91-9l-4-2.34c-.7-.41-1.29-.75-1.9-1.08s-1.22-.66-1.84-1a26,26,0,0,0-7.54-2.37,17.17,17.17,0,0,0-7.41.56,21.6,21.6,0,0,0-6.92,3.68c-4.4,3.35-8.16,8-11.65,12.94s-6.68,10.2-10,15.43q-2.45,4-5.05,7.84c-.87,1.3-1.74,2.59-2.67,3.85l-1.39,1.88c-.22.29-.49.66-.69.89S643.89,1987.25,643.64,1987.5Z" transform="translate(0 -1878)"/><path class="cls-3" d="M637.5,2236.5s19.56,68.14,42.5,66.5c42-3,19-102-44.57-127.4-89.27-35.68-131.87,0-131.87,0C459.61,2197.73,406.4,2301.19,446,2298c37-3,57.5-57.5,57.5-57.5s-41,65-35,107c0,0-21-4-28-6S433,2378,464,2372s171.5-3.68,190.5,1.5c44,12,36-28,36-28l-39,5S667.5,2297.5,637.5,2236.5Z" transform="translate(0 -1878)"/><path d="M637.64,2236.87c.41-.21.22-.61.27-.39l0,.09.06.17.12.36.23.71.48,1.42,1,2.83c.67,1.88,1.36,3.76,2.07,5.62,1.43,3.74,2.9,7.45,4.46,11.12a197.32,197.32,0,0,0,10.53,21.39,91.25,91.25,0,0,0,6.54,9.8,39.83,39.83,0,0,0,8,8.06,16,16,0,0,0,4.73,2.36,9.87,9.87,0,0,0,2.44.4c.41,0,.81,0,1.22,0s.91-.09,1.36-.17a17.67,17.67,0,0,0,9.52-4.36,21.79,21.79,0,0,0,5.68-9,40.14,40.14,0,0,0,2-11,76.93,76.93,0,0,0-2.7-22.9,119.69,119.69,0,0,0-20.42-41.77c-9.36-12.41-21.2-23.06-35-29.86q-2.58-1.27-5.25-2.37c-1.77-.73-3.68-1.4-5.51-2.1-3.68-1.45-7.43-2.68-11.15-4a234.94,234.94,0,0,0-22.81-6.18,173.05,173.05,0,0,0-23.28-3.52,142.47,142.47,0,0,0-23.46-.09,114,114,0,0,0-23,4.22,91.31,91.31,0,0,0-10.93,4.08c-1.75.82-3.5,1.66-5.17,2.62q-1.26.7-2.46,1.47c-.79.5-1.64,1.08-2.26,1.56l-.12.08a1.85,1.85,0,0,1-.33.21,71.64,71.64,0,0,0-12.34,7.86,120.62,120.62,0,0,0-11.12,9.88,180,180,0,0,0-19.28,22.9,206.91,206.91,0,0,0-15.74,25.57A135.71,135.71,0,0,0,435,2271.64a45.27,45.27,0,0,0-1.58,14.56,14.36,14.36,0,0,0,2.06,6.57,8.6,8.6,0,0,0,5.33,3.65,18.67,18.67,0,0,0,7,.08,40.33,40.33,0,0,0,7.1-1.7,48.32,48.32,0,0,0,12.94-6.86,68.59,68.59,0,0,0,10.86-10,104.75,104.75,0,0,0,9-11.81,137.65,137.65,0,0,0,7.52-12.87,130.12,130.12,0,0,0,6.08-13.53l4,2c-4.8,8.07-9.22,16.51-13.31,25s-7.79,17.23-11,26.07a178.52,178.52,0,0,0-7.7,27c-1.78,9.1-2.62,18.41-1.32,27.25a3.56,3.56,0,0,1-3,4,4,4,0,0,1-1.15,0h-.05c-6.78-1.25-13.51-2.57-20.29-4-1.69-.37-3.39-.74-5.1-1.15-.86-.21-1.72-.42-2.61-.66l-.33-.09a.73.73,0,0,0,.24,0,2,2,0,0,0,.73,0,1.72,1.72,0,0,0,.77-.4,4.83,4.83,0,0,0-.37.87,10.66,10.66,0,0,0-.37,1.84,19.9,19.9,0,0,0,0,4.3c.58,5.9,3.37,11.65,7.93,14.51a16.34,16.34,0,0,0,7.84,2.4,24.5,24.5,0,0,0,4.43-.15c.75-.09,1.5-.2,2.26-.35s1.77-.34,2.63-.47c7.08-1.11,14-1.6,20.88-2.06s13.79-.72,20.68-1c13.77-.39,27.52-.5,41.28-.47s27.5.29,41.25.71,27.49,1,41.26,2q5.18.38,10.35.88c3.47.35,6.92.73,10.49,1.34.89.16,1.8.33,2.75.55l2.55.67c1.59.41,3.17.78,4.75,1.05a40.66,40.66,0,0,0,9.38.72,19.54,19.54,0,0,0,8.34-2.16,13.92,13.92,0,0,0,5.68-5.84,23.6,23.6,0,0,0,2.41-8.61,36.75,36.75,0,0,0,.17-4.71c0-.79-.07-1.58-.14-2.37s-.17-1.62-.28-2.24l3.54,2.54-39.07,4.5h0a2.69,2.69,0,0,1-3-2.37,2.78,2.78,0,0,1,.1-1.08c.64-2.13,1.2-4.52,1.68-6.84s.89-4.7,1.25-7.07c.7-4.75,1.21-9.54,1.5-14.35a172.41,172.41,0,0,0-.73-28.91c-.22-2.41-.59-4.8-.9-7.2s-.74-4.79-1.23-7.16c-.88-4.76-2-9.47-3.32-14.15-.69-2.33-1.32-4.67-2.12-7l-1.14-3.46-1.24-3.42c-.79-2.31-1.75-4.54-2.64-6.81-.45-1.19-.9-2.08-1.24-3.14S638.11,2238,637.64,2236.87Zm-.28-.74c.57,1,1.26,2.08,2,3.26a38.07,38.07,0,0,1,1.81,3.51c1,2.23,2.09,4.43,3,6.71l1.41,3.4,1.3,3.44c.9,2.28,1.64,4.63,2.44,7,1.49,4.68,2.88,9.4,4,14.2.6,2.39,1,4.81,1.57,7.22s.89,4.85,1.22,7.29a170.51,170.51,0,0,1,1.79,29.54c-.13,4.95-.47,9.9-1.06,14.82-.31,2.47-.66,4.93-1.1,7.38s-.92,4.86-1.61,7.43l-2.91-3.45,38.93-5.5a3.15,3.15,0,0,1,3.53,2.51v0c.21,1.06.32,1.91.43,2.85s.17,1.84.22,2.76a43.19,43.19,0,0,1-.07,5.57,30.11,30.11,0,0,1-2.92,11.14,20.88,20.88,0,0,1-8.28,8.87,26.45,26.45,0,0,1-11.35,3.23,48,48,0,0,1-11.1-.64c-1.8-.29-3.57-.67-5.32-1.09l-2.43-.59c-.72-.16-1.5-.3-2.29-.42-3.21-.49-6.59-.82-9.95-1.1s-6.77-.5-10.17-.7c-27.23-1.56-54.66-1.88-82-2-13.68,0-27.37.06-41,.41-6.83.15-13.65.36-20.44.72s-13.6.79-20.09,1.74c-.84.12-1.53.26-2.44.41s-1.88.3-2.83.41a32.41,32.41,0,0,1-5.84.12,24.08,24.08,0,0,1-11.56-3.76,23.81,23.81,0,0,1-8-9.11,30.64,30.64,0,0,1-3.19-11.25,26.59,26.59,0,0,1,.1-6,17.12,17.12,0,0,1,.71-3.18,9.72,9.72,0,0,1,2-3.65,5.93,5.93,0,0,1,2.91-1.75,5.71,5.71,0,0,1,2-.12l.87.18.29.08c.76.22,1.56.43,2.37.63,1.62.41,3.27.79,4.92,1.17,6.63,1.49,13.35,2.85,20,4.2l-4.2,4c-1.3-10.09-.18-20,1.83-29.58a182.81,182.81,0,0,1,8.59-27.78,288,288,0,0,1,12-26.27c4.4-8.55,9.07-16.89,14.26-25.06l0-.06a2.22,2.22,0,0,1,3.94,2,138.53,138.53,0,0,1-6.69,13.87,140.39,140.39,0,0,1-8.07,13c-5.87,8.36-12.78,16.15-21.21,22.14a50.82,50.82,0,0,1-13.8,7,41.15,41.15,0,0,1-7.6,1.7,21.34,21.34,0,0,1-8-.17,11.72,11.72,0,0,1-3.85-1.7,10.84,10.84,0,0,1-3-3,16.79,16.79,0,0,1-2.42-7.71,47.55,47.55,0,0,1,1.7-15.37,138.53,138.53,0,0,1,11.11-28.36,231.69,231.69,0,0,1,15.57-26.13,203,203,0,0,1,19.06-23.8,126.84,126.84,0,0,1,11.2-10.52,75.81,75.81,0,0,1,12.88-8.71l-.44.29a31.39,31.39,0,0,1,2.62-1.94c.87-.6,1.75-1.16,2.64-1.69,1.77-1.09,3.61-2,5.45-3a96.85,96.85,0,0,1,11.42-4.7,116.74,116.74,0,0,1,11.89-3.25c2-.41,4-.82,6.06-1.11s4.06-.58,6.1-.83c16.32-1.81,32.82-.43,48.78,2.77a243.5,243.5,0,0,1,23.57,6.31c3.84,1.34,7.71,2.56,11.48,4.08,1.9.74,3.76,1.42,5.69,2.23s3.82,1.67,5.68,2.61c14.93,7.51,27.48,19,37.24,32.19a128.7,128.7,0,0,1,12.59,21.15,119.92,119.92,0,0,1,8.25,23.2,81.73,81.73,0,0,1,2.31,24.7,45.19,45.19,0,0,1-2.6,12.45,26.3,26.3,0,0,1-7.31,10.89,22.37,22.37,0,0,1-12.15,5.17c-.54.07-1.08.1-1.62.14a15.25,15.25,0,0,1-1.79,0,14.75,14.75,0,0,1-3.45-.68,20.12,20.12,0,0,1-5.88-3.15,41.75,41.75,0,0,1-8.57-9.18,92.76,92.76,0,0,1-6.37-10.44,179.81,179.81,0,0,1-9.72-22.16c-1.39-3.77-2.7-7.57-3.9-11.4-.61-1.92-1.19-3.84-1.76-5.77l-.83-2.89-.4-1.45-.19-.73-.1-.36-.05-.19,0-.09A.49.49,0,0,1,637.36,2236.13Z" transform="translate(0 -1878)"/><path class="cls-3" d="M570.16,1967.7c-28.54,0-54.9,8.1-76.22,21.81h0c-5.21-18-17.73-69.49-52.53-50s-60.15,40.66-68.55,85.25c-6.51,34.53,35.9,66.15,59.85,55,11.39-5.3,23.66-27.83,29.93-40.36.09-.18-19.49,27.14-20.88,40-6.63,61.33,57.49,111.7,128.4,111.7s128.4-50,128.4-111.7S641.08,1967.7,570.16,1967.7Z" transform="translate(0 -1878)"/><path d="M570.16,1968.2a140.17,140.17,0,0,0-19.95,1.43,135,135,0,0,0-19.51,4.3,129.17,129.17,0,0,0-18.59,7.19,127.46,127.46,0,0,0-17.2,9.91,1.77,1.77,0,0,1-2.45-.45,1.8,1.8,0,0,1-.23-.46l0-.11c-3-9.56-6.07-19-10.34-27.79a73.55,73.55,0,0,0-7.4-12.32,30.27,30.27,0,0,0-10-8.84,17.64,17.64,0,0,0-12-1.53,27.68,27.68,0,0,0-6.14,2.14c-1,.49-2,1-3,1.61l-3.18,1.89a251.28,251.28,0,0,0-24.39,16.31c-1.92,1.48-3.77,3-5.6,4.61s-3.62,3.19-5.36,4.85a113.31,113.31,0,0,0-9.65,10.67,99.39,99.39,0,0,0-14.39,25,113.63,113.63,0,0,0-4.55,13.95,71.81,71.81,0,0,0-1.53,7.1,35.5,35.5,0,0,0-.29,7.07c.5,9.51,4.79,18.68,10.91,26.19a57.66,57.66,0,0,0,23.35,17,36.86,36.86,0,0,0,14.09,2.5,21.63,21.63,0,0,0,13-4.5,55.42,55.42,0,0,0,9.81-10.7,144.55,144.55,0,0,0,8.05-12.45c2.5-4.29,4.84-8.68,7.09-13.12l.42-.83c1.21.69-2.58-1.85,2.75,1.5l-.11.15-.27.37-1.06,1.53-2.1,3.08q-2.07,3.09-4,6.26c-2.64,4.21-5.16,8.49-7.42,12.88-1.12,2.2-2.19,4.42-3.12,6.67a37.67,37.67,0,0,0-2.2,6.83,13.7,13.7,0,0,0-.25,1.72l-.16,1.83c-.11,1.22-.15,2.45-.2,3.67,0,2.45,0,4.9.17,7.34a78.49,78.49,0,0,0,2.38,14.46,85.48,85.48,0,0,0,12.33,26.41,107,107,0,0,0,19.85,21.4,120.1,120.1,0,0,0,11.82,8.61,129.28,129.28,0,0,0,12.7,7.22,146.48,146.48,0,0,0,27.25,10.37,148.11,148.11,0,0,0,57.69,4.12,135,135,0,0,0,54.15-19,133.37,133.37,0,0,0,11.76-8.25,118.21,118.21,0,0,0,10.69-9.56A111.34,111.34,0,0,0,681,2125.77a96.06,96.06,0,0,0,10.33-26.42,96.74,96.74,0,0,0-4.11-56.18,109.33,109.33,0,0,0-6.07-13.1,105.73,105.73,0,0,0-7.86-12.22,121.25,121.25,0,0,0-45.33-36.78,132.75,132.75,0,0,0-28.13-9.63A138.61,138.61,0,0,0,570.16,1968.2Zm0-1A153.37,153.37,0,0,1,629,1978.65a138.93,138.93,0,0,1,26.61,14.6,121.91,121.91,0,0,1,22.64,20.62A107.44,107.44,0,0,1,694.83,2040a99.64,99.64,0,0,1,8.07,30.17c2.32,20.88-2.49,42.43-12.69,60.76a113.17,113.17,0,0,1-18.88,25,127.94,127.94,0,0,1-24.53,19.3,143.5,143.5,0,0,1-58.52,19.57,154.22,154.22,0,0,1-61.14-5.62,149.3,149.3,0,0,1-28.35-11.93,136.24,136.24,0,0,1-13-8.17,125.84,125.84,0,0,1-12-9.59,112.57,112.57,0,0,1-19.87-23.34,91.88,91.88,0,0,1-12-28.13,82.65,82.65,0,0,1-2.15-15.16c-.14-2.55-.11-5.11,0-7.65.09-1.28.13-2.55.26-3.82l.17-1.9a20.14,20.14,0,0,1,.3-2,40.8,40.8,0,0,1,2.38-7.43c1-2.36,2.08-4.66,3.24-6.91,2.32-4.5,4.87-8.85,7.54-13.11q2-3.21,4.1-6.34l2.12-3.12,1.09-1.56.28-.39.16-.22c5.36,3.32,1.43,1,2.6,1.84l-.43.84c-2.26,4.48-4.63,8.92-7.17,13.28a146.93,146.93,0,0,1-8.24,12.73,58.68,58.68,0,0,1-10.42,11.33,24.15,24.15,0,0,1-3.34,2.21,22.18,22.18,0,0,1-3.71,1.57,28.21,28.21,0,0,1-7.81,1.31,40.47,40.47,0,0,1-15.25-2.77,61.18,61.18,0,0,1-24.83-17.7,56.26,56.26,0,0,1-8.41-12.95,46.62,46.62,0,0,1-4.12-15.05,39.35,39.35,0,0,1,0-7.9c.28-2.68.77-5.13,1.21-7.64a126.37,126.37,0,0,1,3.71-14.88,99.66,99.66,0,0,1,13.62-27.78,98.64,98.64,0,0,1,10-12c1.81-1.85,3.66-3.67,5.58-5.41s3.91-3.39,5.94-5a178.94,178.94,0,0,1,25.61-16.77c1.11-.61,2.22-1.21,3.34-1.8L441,1935l1.87-.87a35.79,35.79,0,0,1,8.11-2.45,26.07,26.07,0,0,1,8.77-.05,24.16,24.16,0,0,1,8.25,3,37.09,37.09,0,0,1,11.73,11.51,75,75,0,0,1,7.19,13.84c3.87,9.51,6.34,19.38,8.73,29l-2.71-1a140.5,140.5,0,0,1,18.13-9.14,150,150,0,0,1,19.17-6.47,155.49,155.49,0,0,1,19.79-3.88A159.13,159.13,0,0,1,570.16,1967.2Z" transform="translate(0 -1878)"/><path d="M566.5,2092.5c-18.5.5-28.6,33.1-17.5,40.5,5.16,3.44,31,3,37-1C593.85,2126.77,585,2092,566.5,2092.5Z" transform="translate(0 -1878)"/><circle cx="508" cy="226" r="15"/><circle cx="630" cy="226" r="15"/><path class="cls-3" d="M538,2021c7-12-7-40,2-29s18,16,14,9,1-2,9,0a9.25,9.25,0,0,0,11-5" transform="translate(0 -1878)"/><path d="M537.74,2020.85a31.6,31.6,0,0,0,0-10.32c-.22-1.7-.51-3.4-.79-5.12s-.56-3.45-.71-5.24-.19-3.61-.27-5.47c0-.93-.1-1.85-.11-2.82,0-.49,0-1,0-1.54a2.72,2.72,0,0,1,.28-1.11,1.27,1.27,0,0,1,.38-.45,1.23,1.23,0,0,1,.68-.26,1.55,1.55,0,0,1,.83.19,6.15,6.15,0,0,1,1.28,1.08l1,1.06c.62.71,1.19,1.36,1.83,2a36.52,36.52,0,0,0,4.1,3.47c1.45,1,2.93,2,4.37,3,.73.45,1.44.9,2.14,1.29a7.38,7.38,0,0,0,1.8.81c.07,0,.13,0-.06,0a1.37,1.37,0,0,0-.61,0,2.39,2.39,0,0,0-1.74,1.86,1.58,1.58,0,0,0,0,.42c0,.13,0,.08,0,0s-.25-.46-.43-.75l-.69-1.12c-.25-.43-.51-.87-.76-1.39-.12-.27-.25-.55-.38-.91a5.09,5.09,0,0,1-.33-1.84,3.89,3.89,0,0,1,.23-1.16,3.85,3.85,0,0,1,.4-.78,3.39,3.39,0,0,1,.68-.73,3,3,0,0,1,.77-.48,3.14,3.14,0,0,1,.67-.23,3.67,3.67,0,0,1,.93-.11,4.81,4.81,0,0,1,1,.12,6.19,6.19,0,0,1,.6.16,11.67,11.67,0,0,1,1.57.62c1.74.8,3.21,1.57,4.75,2.27.77.34,1.53.68,2.31,1a12.69,12.69,0,0,0,2.1.67,7.47,7.47,0,0,0,4.25-.25,10.72,10.72,0,0,0,4.09-2.85l0,0a.3.3,0,0,1,.43,0,.33.33,0,0,1,.1.28,9.24,9.24,0,0,1-3,5.2,10,10,0,0,1-6.12,2.38,14.24,14.24,0,0,1-3.24-.22c-1-.18-1.95-.39-2.89-.66a48.82,48.82,0,0,1-5.3-1.86c-.38-.14-.76-.3-1-.36a2,2,0,1,1,.28,0,2.31,2.31,0,0,0,.59-.07,3.26,3.26,0,0,0,.52-.18,2.6,2.6,0,0,0,.62-.39,3,3,0,0,0,.56-.61,3.14,3.14,0,0,0,.33-.62,2.4,2.4,0,0,0,.16-.84,1.55,1.55,0,0,0,0-.5c0-.05,0,0,0,0s.07.2.13.35.3.67.48,1L557,2000a11.79,11.79,0,0,1,.68,1.73,5.74,5.74,0,0,1,.25,1.32,4.27,4.27,0,0,1,0,1.1,3.62,3.62,0,0,1-.8,1.71,3.47,3.47,0,0,1-1.77,1.11,3.89,3.89,0,0,1-1.29.1,5,5,0,0,1-1.39-.34,12.36,12.36,0,0,1-3-1.76,21.13,21.13,0,0,1-2.22-2,38.69,38.69,0,0,1-3.67-4.36l-3.28-4.5c-.55-.73-1.11-1.49-1.66-2.16a11.57,11.57,0,0,0-.87-1,2.91,2.91,0,0,0-.82-.64s0,0,.18,0a.75.75,0,0,0,.54-.32c.07-.13,0,.06.06.21a7.6,7.6,0,0,0,.26,1.17c.27.82.56,1.67.91,2.51.67,1.69,1.42,3.4,2,5.17a27.35,27.35,0,0,1,1.13,5.48,33.88,33.88,0,0,1,.17,5.71,22.05,22.05,0,0,1-1,5.75,11.89,11.89,0,0,1-3.06,5,.32.32,0,0,1-.45,0,.34.34,0,0,1-.07-.27Z" transform="translate(0 -1878)"/><path class="cls-4" d="M615,2251c-22-21.53-91-22-98,9s-27,91-9,92,126.22,7.22,122-16C624,2303,634.16,2269.71,615,2251Z" transform="translate(0 -1878)"/><path class="cls-5" d="M138,2295l74-417s-2,9,34,9l-79,414C157,2307,141,2302,138,2295Z" transform="translate(0 -1878)"/><path class="cls-6" d="M194,1979a12.16,12.16,0,0,0,3.65,2.24,35.22,35.22,0,0,0,4,1.36c2.69.78,5.46,1.36,8.25,1.91s5.6,1,8.43,1.46,5.66.87,8.69,1a20.77,20.77,0,0,1-8.84,2.11,37.66,37.66,0,0,1-9-.68,32,32,0,0,1-8.66-2.93,18.61,18.61,0,0,1-3.87-2.63A8.39,8.39,0,0,1,194,1979Z" transform="translate(0 -1878)"/><path class="cls-6" d="M170,2110a12.16,12.16,0,0,0,3.65,2.24,35.22,35.22,0,0,0,4,1.36c2.69.78,5.46,1.36,8.25,1.91s5.6,1,8.43,1.46,5.66.87,8.69,1a20.77,20.77,0,0,1-8.84,2.11,37.66,37.66,0,0,1-9-.68,32,32,0,0,1-8.66-2.93,18.61,18.61,0,0,1-3.87-2.63A8.39,8.39,0,0,1,170,2110Z" transform="translate(0 -1878)"/><path class="cls-6" d="M149,2226a12.16,12.16,0,0,0,3.65,2.24,35.22,35.22,0,0,0,4,1.36c2.69.78,5.46,1.36,8.25,1.91s5.6,1,8.43,1.46,5.66.87,8.69,1a20.77,20.77,0,0,1-8.84,2.11,37.66,37.66,0,0,1-9-.68,32,32,0,0,1-8.66-2.93,18.61,18.61,0,0,1-3.87-2.63A8.39,8.39,0,0,1,149,2226Z" transform="translate(0 -1878)"/><path class="cls-5" d="M108.9,2390.6c-.09-.6-77.23-416.42-77.23-416.42s1.29,9.13,35-3.52c0,0,71.4,414.53,71.49,415.36C139,2394,110,2398,108.9,2390.6Z" transform="translate(0 -1878)"/><path class="cls-6" d="M50.31,2075.07a12.31,12.31,0,0,0,4.2.81,36.76,36.76,0,0,0,4.2-.12c2.8-.22,5.6-.65,8.4-1.12s5.6-1,8.41-1.59,5.6-1.18,8.49-2.09a20.85,20.85,0,0,1-7.53,5.09,38.33,38.33,0,0,1-8.71,2.54,32.48,32.48,0,0,1-9.14.3,18.38,18.38,0,0,1-4.54-1.11A8.24,8.24,0,0,1,50.31,2075.07Z" transform="translate(0 -1878)"/><path class="cls-6" d="M73.86,2206.15a12.41,12.41,0,0,0,4.21.81,36.82,36.82,0,0,0,4.2-.12c2.8-.22,5.59-.65,8.39-1.12s5.61-1,8.41-1.59,5.61-1.18,8.5-2.09a20.89,20.89,0,0,1-7.54,5.09,38.25,38.25,0,0,1-8.7,2.54,32.55,32.55,0,0,1-9.15.3,18.6,18.6,0,0,1-4.54-1.11A8.35,8.35,0,0,1,73.86,2206.15Z" transform="translate(0 -1878)"/><path class="cls-6" d="M95,2322.13a12.08,12.08,0,0,0,4.2.81,36.76,36.76,0,0,0,4.2-.12c2.8-.22,5.6-.64,8.4-1.11s5.6-1,8.41-1.6,5.6-1.18,8.49-2.08a21,21,0,0,1-7.53,5.08,38.33,38.33,0,0,1-8.71,2.54,31.75,31.75,0,0,1-9.14.3,18.36,18.36,0,0,1-4.54-1.1A8.33,8.33,0,0,1,95,2322.13Z" transform="translate(0 -1878)"/></svg>