<svg id="Layer_1" data-name="Layer 1" xmlns="http://www.w3.org/2000/svg" viewBox="0 0 1125 505.74"><defs><style>.cls-1{fill:#f4f4c9;}.cls-2{fill:#e2e1ba;}.cls-3{fill:#d8d8d8;}.cls-4{fill:#686d55;}.cls-5{fill:#e0e0e0;}.cls-6{fill:#fff;}.cls-7{fill:#56a7d8;}</style></defs><path class="cls-1" d="M1125,2437H0V2008s422.31,78,563,78,562-78,562-78Z" transform="translate(0 -1931.26)"/><path class="cls-2" d="M873,2398c9,18,31,30,63,24" transform="translate(0 -1931.26)"/><path class="cls-2" d="M61.47,2386.64c36.65,30.43,109.07,2.49,122.53-22.64" transform="translate(0 -1931.26)"/><path class="cls-3" d="M643.14,1987.49c15.75-24,27.59-65.73,59.6-47.63s61.24,34.1,59.15,84.9c-2.92,71.07-63.33,54.29-63.33,54.29Z" transform="translate(0 -1931.26)"/><path d="M642.64,1987.48c.17-.4.37-.83.59-1.25l.55-1.07,1-2.07,2-4.17,3.89-8.41c2.57-5.64,5.26-11.26,8.4-16.77s6.79-10.93,11.95-15.48a29,29,0,0,1,9.08-5.48,24.76,24.76,0,0,1,10.88-1.35,33,33,0,0,1,10.2,2.79c.79.34,1.56.72,2.32,1.09s1.52.79,2.17,1.15l4.07,2.24a145.34,145.34,0,0,1,15.93,10,102.61,102.61,0,0,1,26.13,27.56,82.93,82.93,0,0,1,8.22,17.08,99.08,99.08,0,0,1,4.45,18.51c.44,3.16.76,6.33.93,9.51a78.51,78.51,0,0,1,0,9.58,80.21,80.21,0,0,1-3.19,19.2,55.66,55.66,0,0,1-9,18,45.13,45.13,0,0,1-16.11,13,52.48,52.48,0,0,1-19.83,4.87,64.62,64.62,0,0,1-10-.23c-1.66-.16-3.31-.37-5-.66-.83-.15-1.65-.31-2.48-.49l-1.25-.29c-.45-.11-.81-.2-1.37-.36l-.08,0a5,5,0,0,1-2.93-2.26c-4.64-7.88-9.11-15.85-13.63-23.75-2.26-3.95-4.43-7.94-6.64-11.89s-4.42-7.9-6.54-11.85L661,2022.4l-6.26-11.74C650.58,2002.86,646.49,1995.12,642.64,1987.48Zm1,0c5.39,7.62,10.54,15.14,15.67,22.6l7.59,11.15,7.44,11.08c2.49,3.68,4.88,7.37,7.31,11s4.86,7.32,7.21,11c4.72,7.36,9.49,14.65,14.09,22l-3-2.28.88.19,1,.19c.68.12,1.38.23,2.08.32,1.41.19,2.82.36,4.24.46a63.33,63.33,0,0,0,8.49,0,46.81,46.81,0,0,0,16-3.73,35.14,35.14,0,0,0,12.84-9.64,46.33,46.33,0,0,0,8.11-14.64,74.11,74.11,0,0,0,2.4-8.38c.62-2.86,1.12-5.78,1.54-8.73a153.56,153.56,0,0,0,1.36-18,65.92,65.92,0,0,0-2.19-17.9c-.35-1.47-.86-2.89-1.32-4.32l-.83-2.11-.42-1.05-.49-1-1-2-1.1-2c-.74-1.32-1.56-2.59-2.42-3.82a53.37,53.37,0,0,0-5.81-6.92,71,71,0,0,0-6.84-5.89,140.43,140.43,0,0,0-15.28-9.65c-5.28-3-10.59-5.94-15.91-9l-4-2.34c-.7-.41-1.29-.75-1.9-1.08s-1.22-.66-1.84-1a26,26,0,0,0-7.54-2.37,17.17,17.17,0,0,0-7.41.56,21.6,21.6,0,0,0-6.92,3.68c-4.4,3.35-8.16,8-11.65,12.94s-6.68,10.2-10,15.43q-2.45,4-5.05,7.84c-.87,1.3-1.74,2.59-2.67,3.85l-1.39,1.88c-.22.29-.49.66-.69.89S643.89,1987.25,643.64,1987.5Z" transform="translate(0 -1931.26)"/><path class="cls-4" d="M386.45,2202.85l-88.95-82.53s6,6.25,24.75-22.06l84,84.91C405.76,2194.15,393.51,2204.13,386.45,2202.85Z" transform="translate(0 -1931.26)"/><path class="cls-5" d="M337.91,2158.33a11.51,11.51,0,0,0,3.64-1.76,32.9,32.9,0,0,0,3.1-2.44c2-1.72,3.89-3.6,5.76-5.5s3.72-3.86,5.54-5.84,3.66-4,5.4-6.25a19.34,19.34,0,0,1-2.86,8.11,34.75,34.75,0,0,1-5.23,6.78,29.74,29.74,0,0,1-6.83,5.29,17.94,17.94,0,0,1-4.11,1.65A7.78,7.78,0,0,1,337.91,2158.33Z" transform="translate(0 -1931.26)"/><path class="cls-3" d="M637.5,2236.5s19.56,68.14,42.5,66.5c42-3,19-102-44.57-127.4-89.27-35.68-131.87,0-131.87,0-34.61,19.13-75.57-5.1-97.56.4-12,3-11.92,18.29-15,22-1.67,2-17.51-9.64-19-7-17,30,131.5,49.5,131.5,49.5s-41,65-35,107c0,0-21-4-28-6S433,2378,464,2372s171.5-3.68,190.5,1.5c44,12,36-28,36-28l-39,5S667.5,2297.5,637.5,2236.5Z" transform="translate(0 -1931.26)"/><path d="M637.64,2236.87c.41-.21.22-.61.27-.39l0,.09.06.17.12.36.23.71.48,1.42,1,2.83q1,2.82,2.07,5.63c1.42,3.73,2.89,7.45,4.45,11.12a195.58,195.58,0,0,0,10.52,21.4,89.71,89.71,0,0,0,6.53,9.8,39.73,39.73,0,0,0,8,8.08,16.08,16.08,0,0,0,4.74,2.37,10,10,0,0,0,2.46.4c.41,0,.81,0,1.22,0s.92-.09,1.36-.17a17.67,17.67,0,0,0,9.55-4.37,21.89,21.89,0,0,0,5.68-9,40.28,40.28,0,0,0,2-11.06,76.71,76.71,0,0,0-2.7-22.91,120,120,0,0,0-20.43-41.77c-9.38-12.4-21.21-23.05-35-29.86q-2.58-1.27-5.25-2.37c-1.77-.72-3.67-1.4-5.5-2.1-3.69-1.44-7.44-2.66-11.17-4a235.52,235.52,0,0,0-22.8-6.18,160.22,160.22,0,0,0-46.73-3.52c-3.89.33-7.76.83-11.6,1.53a113,113,0,0,0-11.35,2.74,89.19,89.19,0,0,0-10.9,4.08c-1.74.82-3.49,1.66-5.15,2.62-.84.46-1.67,1-2.46,1.46s-1.63,1.07-2.24,1.55l-.13.1a1.91,1.91,0,0,1-.27.16,60.44,60.44,0,0,1-18.24,6.22,80.12,80.12,0,0,1-19,.89,148.45,148.45,0,0,1-18.66-2.54c-6.14-1.15-12.2-2.51-18.26-3.71s-12.15-2.29-18.17-2.14a31.33,31.33,0,0,0-4.45.42,15.32,15.32,0,0,0-4.11,1.23,13.83,13.83,0,0,0-6,5.89,40.44,40.44,0,0,0-3.28,8.39A41.49,41.49,0,0,1,393,2197a9.51,9.51,0,0,1-.61,1.18,5.59,5.59,0,0,1-.43.6,2.06,2.06,0,0,1-.3.3,2.24,2.24,0,0,1-.36.21,2.35,2.35,0,0,1-.64.17,4.51,4.51,0,0,1-1.6-.19,11.59,11.59,0,0,1-1.22-.42c-3-1.26-5.68-2.83-8.43-4.24-1.36-.72-2.73-1.42-4.09-2a10.43,10.43,0,0,0-2-.67,1.86,1.86,0,0,0-.52,0,.55.55,0,0,0,.13-.08.46.46,0,0,0,.13-.14l-.24.46a8.15,8.15,0,0,0-.92,3.88,8.33,8.33,0,0,0,1.14,3.85,20.85,20.85,0,0,0,6.07,6.21,79,79,0,0,0,16.23,8.35c5.71,2.27,11.57,4.19,17.5,5.91s11.92,3.26,17.93,4.68a712.71,712.71,0,0,0,73.08,12.79,2.74,2.74,0,0,1,2,4.12l-.05.08c-4.79,8-9.21,16.47-13.33,25s-7.83,17.18-11.11,26a177.74,177.74,0,0,0-7.8,26.9c-1.79,9.07-2.65,18.35-1.39,27.16a3.72,3.72,0,0,1-3.16,4.23,3.76,3.76,0,0,1-1.21,0h0c-6.78-1.27-13.52-2.58-20.29-4-1.7-.37-3.39-.74-5.11-1.15-.86-.21-1.72-.42-2.61-.67l-.33-.09a.75.75,0,0,0,.26.06,2,2,0,0,0,.79-.05,1.75,1.75,0,0,0,.84-.44,7.41,7.41,0,0,0-.32.81,9.42,9.42,0,0,0-.38,1.81,20.2,20.2,0,0,0,0,4.26c.57,5.87,3.35,11.58,7.85,14.4a16.17,16.17,0,0,0,7.77,2.39,24.17,24.17,0,0,0,4.4-.15c.75-.09,1.5-.2,2.25-.35s1.78-.34,2.64-.47c3.55-.57,7-.94,10.5-1.26s6.93-.58,10.39-.78c6.91-.4,13.8-.65,20.69-.85q20.65-.55,41.28-.44t41.24.77c13.75.42,27.5,1,41.27,2,3.44.25,6.89.53,10.35.87s6.91.73,10.47,1.33c.9.16,1.8.33,2.75.56l2.55.67c1.59.4,3.17.77,4.76,1a40.77,40.77,0,0,0,9.4.71,19.65,19.65,0,0,0,8.38-2.15,14,14,0,0,0,5.71-5.88,23.49,23.49,0,0,0,2.42-8.65,37,37,0,0,0,.17-4.72c0-.79-.07-1.59-.14-2.38s-.18-1.62-.29-2.25l3.44,2.47-39.06,4.5h0a2.63,2.63,0,0,1-2.9-2.3,2.57,2.57,0,0,1,.1-1c.63-2.14,1.2-4.54,1.68-6.85s.88-4.71,1.25-7.08c.71-4.75,1.21-9.55,1.49-14.36a174.69,174.69,0,0,0-.74-28.92c-.23-2.41-.59-4.8-.91-7.2s-.74-4.79-1.24-7.16c-.88-4.76-2.06-9.47-3.33-14.15-.7-2.32-1.33-4.67-2.13-7l-1.14-3.46-1.25-3.42c-.79-2.3-1.75-4.54-2.64-6.8-.45-1.2-.9-2.09-1.25-3.15S638.11,2238,637.64,2236.87Zm-.28-.74c.57,1,1.26,2.08,1.95,3.26a36.9,36.9,0,0,1,1.81,3.51c1,2.24,2.09,4.44,3,6.72l1.41,3.39,1.3,3.45c.9,2.28,1.63,4.63,2.43,6.95,1.48,4.68,2.87,9.4,4,14.2.6,2.39,1,4.81,1.55,7.22s.89,4.85,1.22,7.29c.74,4.87,1.26,9.78,1.53,14.71s.38,9.88.25,14.82-.48,9.89-1.06,14.81c-.31,2.47-.67,4.93-1.1,7.38s-.93,4.85-1.62,7.41l-2.82-3.33,38.93-5.5a3.06,3.06,0,0,1,3.44,2.44v0c.2,1.05.31,1.9.42,2.84s.18,1.84.22,2.76a42.88,42.88,0,0,1-.07,5.55,30,30,0,0,1-2.91,11.1A20.77,20.77,0,0,1,683,2376a26.5,26.5,0,0,1-11.3,3.24,47.91,47.91,0,0,1-11.09-.64c-1.8-.29-3.56-.67-5.3-1.09l-2.44-.6c-.72-.16-1.5-.29-2.3-.42-3.21-.49-6.59-.82-9.95-1.1s-6.77-.51-10.17-.71c-27.24-1.45-54.67-2-82-1.94-13.68,0-27.37.07-41,.44-6.83.18-13.65.43-20.44.81s-13.59.81-20.07,1.77c-.84.12-1.52.26-2.43.41s-1.89.3-2.84.41a32.75,32.75,0,0,1-5.87.12,24.35,24.35,0,0,1-11.63-3.77,24.05,24.05,0,0,1-8.1-9.17,31,31,0,0,1-3.21-11.31,28.1,28.1,0,0,1,.1-6,18.26,18.26,0,0,1,.71-3.21,9.94,9.94,0,0,1,2.06-3.71,6.11,6.11,0,0,1,3-1.8,5.83,5.83,0,0,1,2.07-.12c.29.05.68.13.89.19l.29.08c.76.21,1.56.42,2.37.62,1.61.41,3.26.79,4.92,1.17,6.62,1.48,13.34,2.86,20,4.18l-4.4,4.21c-1.34-10.12-.24-20.1,1.75-29.66a183.84,183.84,0,0,1,8.5-27.86,286.11,286.11,0,0,1,11.88-26.35c4.38-8.59,9-16.93,14.24-25.13l2,4.2c-12.36-1.86-24.59-4-36.8-6.47s-24.38-5.11-36.43-8.26A288.77,288.77,0,0,1,394.27,2217a80.67,80.67,0,0,1-16.69-8.88,24,24,0,0,1-6.74-7.09,10.75,10.75,0,0,1-1.44-5,10.49,10.49,0,0,1,1.2-5.08l.3-.57a2,2,0,0,1,.5-.59,2.4,2.4,0,0,1,.65-.34,3.78,3.78,0,0,1,1.78,0,13.06,13.06,0,0,1,2.43.83c1.5.64,2.89,1.36,4.27,2.09,2.76,1.45,5.47,3,8.18,4.18.33.13.67.25,1,.34a2.59,2.59,0,0,0,.69.12l-.08,0-.12.07s-.12.12-.09.09.16-.21.24-.35a6.71,6.71,0,0,0,.45-.89,41.08,41.08,0,0,0,1.42-4.27,42.49,42.49,0,0,1,3.46-8.92,16.27,16.27,0,0,1,7.06-6.94,18.33,18.33,0,0,1,4.77-1.46,32.68,32.68,0,0,1,4.81-.49c6.41-.16,12.64.84,18.77,1.91s12.21,2.35,18.3,3.35a143.48,143.48,0,0,0,18.28,1.92,75.91,75.91,0,0,0,18-1.39,56.13,56.13,0,0,0,16.67-6.26l-.39.27c.95-.78,1.75-1.35,2.64-1.95s1.75-1.16,2.64-1.7c1.78-1.09,3.62-2.05,5.47-3a95.54,95.54,0,0,1,11.45-4.69,115.63,115.63,0,0,1,24.08-5.15,138.78,138.78,0,0,1,24.54-.44,171.59,171.59,0,0,1,24.25,3.31,240.65,240.65,0,0,1,23.57,6.31c3.84,1.33,7.71,2.56,11.47,4.09,1.91.74,3.77,1.42,5.7,2.22s3.82,1.68,5.68,2.62c14.92,7.51,27.48,19,37.23,32.19a128.7,128.7,0,0,1,12.59,21.15,119.34,119.34,0,0,1,8.23,23.19,82.37,82.37,0,0,1,2.31,24.69,45.48,45.48,0,0,1-2.6,12.45,26.22,26.22,0,0,1-7.32,10.87,22.28,22.28,0,0,1-12.11,5.14c-.55.07-1.09.11-1.63.15a17.62,17.62,0,0,1-1.78,0,15.1,15.1,0,0,1-3.43-.67,20.07,20.07,0,0,1-5.87-3.15,41.84,41.84,0,0,1-8.56-9.16,92.84,92.84,0,0,1-6.38-10.44,179.67,179.67,0,0,1-9.72-22.15q-2.1-5.66-3.92-11.4-.9-2.86-1.76-5.76l-.83-2.89-.4-1.45-.2-.73-.1-.36-.05-.19,0-.09A.49.49,0,0,1,637.36,2236.13Z" transform="translate(0 -1931.26)"/><path class="cls-3" d="M570.16,1967.7c-28.54,0-54.9,8.1-76.22,21.81h0c-5.21-18-17.73-69.49-52.53-50s-60.15,40.66-68.55,85.25c-6.51,34.53,35.9,66.15,59.85,55,11.39-5.3,23.66-27.83,29.93-40.36.09-.18-19.49,27.14-20.88,40-6.63,61.33,57.49,111.7,128.4,111.7s128.4-50,128.4-111.7S641.08,1967.7,570.16,1967.7Z" transform="translate(0 -1931.26)"/><path d="M570.16,1968.2a140.17,140.17,0,0,0-19.95,1.43,135,135,0,0,0-19.51,4.3,129.17,129.17,0,0,0-18.59,7.19,127.46,127.46,0,0,0-17.2,9.91,1.77,1.77,0,0,1-2.45-.45,1.8,1.8,0,0,1-.23-.46l0-.11c-3-9.56-6.07-19-10.34-27.79a73.55,73.55,0,0,0-7.4-12.32,30.27,30.27,0,0,0-10-8.84,17.64,17.64,0,0,0-12-1.53,27.68,27.68,0,0,0-6.14,2.14c-1,.49-2,1-3,1.61l-3.18,1.89a251.28,251.28,0,0,0-24.39,16.31c-1.92,1.48-3.77,3-5.6,4.61s-3.62,3.19-5.36,4.85a113.31,113.31,0,0,0-9.65,10.67,99.39,99.39,0,0,0-14.39,25,113.63,113.63,0,0,0-4.55,13.95,71.81,71.81,0,0,0-1.53,7.1,35.5,35.5,0,0,0-.29,7.07c.5,9.51,4.79,18.68,10.91,26.19a57.66,57.66,0,0,0,23.35,17,36.86,36.86,0,0,0,14.09,2.5,21.63,21.63,0,0,0,13-4.5,55.42,55.42,0,0,0,9.81-10.7,144.55,144.55,0,0,0,8.05-12.45c2.5-4.29,4.84-8.68,7.09-13.12l.42-.83c1.21.69-2.58-1.85,2.75,1.5l-.11.15-.27.37-1.06,1.53-2.1,3.08q-2.07,3.09-4,6.26c-2.64,4.21-5.16,8.49-7.42,12.88-1.12,2.2-2.19,4.42-3.12,6.67a37.67,37.67,0,0,0-2.2,6.83,13.7,13.7,0,0,0-.25,1.72l-.16,1.83c-.11,1.22-.15,2.45-.2,3.67,0,2.45,0,4.9.17,7.34a78.49,78.49,0,0,0,2.38,14.46,85.48,85.48,0,0,0,12.33,26.41,107,107,0,0,0,19.85,21.4,120.1,120.1,0,0,0,11.82,8.61,129.28,129.28,0,0,0,12.7,7.22,146.48,146.48,0,0,0,27.25,10.37,148.11,148.11,0,0,0,57.69,4.12,135,135,0,0,0,54.15-19,133.37,133.37,0,0,0,11.76-8.25,118.21,118.21,0,0,0,10.69-9.56A111.34,111.34,0,0,0,681,2125.77a96.06,96.06,0,0,0,10.33-26.42,96.74,96.74,0,0,0-4.11-56.18,109.33,109.33,0,0,0-6.07-13.1,105.73,105.73,0,0,0-7.86-12.22,121.25,121.25,0,0,0-45.33-36.78,132.75,132.75,0,0,0-28.13-9.63A138.61,138.61,0,0,0,570.16,1968.2Zm0-1A153.37,153.37,0,0,1,629,1978.65a138.93,138.93,0,0,1,26.61,14.6,121.91,121.91,0,0,1,22.64,20.62A107.44,107.44,0,0,1,694.83,2040a99.64,99.64,0,0,1,8.07,30.17c2.32,20.88-2.49,42.43-12.69,60.76a113.17,113.17,0,0,1-18.88,25,127.94,127.94,0,0,1-24.53,19.3,143.5,143.5,0,0,1-58.52,19.57,154.22,154.22,0,0,1-61.14-5.62,149.3,149.3,0,0,1-28.35-11.93,136.24,136.24,0,0,1-13-8.17,125.84,125.84,0,0,1-12-9.59,112.57,112.57,0,0,1-19.87-23.34,91.88,91.88,0,0,1-12-28.13,82.65,82.65,0,0,1-2.15-15.16c-.14-2.55-.11-5.11,0-7.65.09-1.28.13-2.55.26-3.82l.17-1.9a20.14,20.14,0,0,1,.3-2,40.8,40.8,0,0,1,2.38-7.43c1-2.36,2.08-4.66,3.24-6.91,2.32-4.5,4.87-8.85,7.54-13.11q2-3.21,4.1-6.34l2.12-3.12,1.09-1.56.28-.39.16-.22c5.36,3.32,1.43,1,2.6,1.84l-.43.84c-2.26,4.48-4.63,8.92-7.17,13.28a146.93,146.93,0,0,1-8.24,12.73,58.68,58.68,0,0,1-10.42,11.33,24.15,24.15,0,0,1-3.34,2.21,22.18,22.18,0,0,1-3.71,1.57,28.21,28.21,0,0,1-7.81,1.31,40.47,40.47,0,0,1-15.25-2.77,61.18,61.18,0,0,1-24.83-17.7,56.26,56.26,0,0,1-8.41-12.95,46.62,46.62,0,0,1-4.12-15.05,39.35,39.35,0,0,1,0-7.9c.28-2.68.77-5.13,1.21-7.64a126.37,126.37,0,0,1,3.71-14.88,99.66,99.66,0,0,1,13.62-27.78,98.64,98.64,0,0,1,10-12c1.81-1.85,3.66-3.67,5.58-5.41s3.91-3.39,5.94-5a178.94,178.94,0,0,1,25.61-16.77c1.11-.61,2.22-1.21,3.34-1.8L441,1935l1.87-.87a35.79,35.79,0,0,1,8.11-2.45,26.07,26.07,0,0,1,8.77-.05,24.16,24.16,0,0,1,8.25,3,37.09,37.09,0,0,1,11.73,11.51,75,75,0,0,1,7.19,13.84c3.87,9.51,6.34,19.38,8.73,29l-2.71-1a140.5,140.5,0,0,1,18.13-9.14,150,150,0,0,1,19.17-6.47,155.49,155.49,0,0,1,19.79-3.88A159.13,159.13,0,0,1,570.16,1967.2Z" transform="translate(0 -1931.26)"/><path d="M566.5,2092.5c-18.5.5-28.6,33.1-17.5,40.5,5.16,3.44,31,3,37-1C593.85,2126.77,585,2092,566.5,2092.5Z" transform="translate(0 -1931.26)"/><circle cx="508" cy="172.74" r="15"/><circle cx="630" cy="172.74" r="15"/><path class="cls-3" d="M538,2021c7-12-7-40,2-29s18,16,14,9,1-2,9,0a9.25,9.25,0,0,0,11-5" transform="translate(0 -1931.26)"/><path d="M537.74,2020.85a31.6,31.6,0,0,0,0-10.32c-.22-1.7-.51-3.4-.79-5.12s-.56-3.45-.71-5.24-.19-3.61-.27-5.47c0-.93-.1-1.85-.11-2.82,0-.49,0-1,0-1.54a2.72,2.72,0,0,1,.28-1.11,1.27,1.27,0,0,1,.38-.45,1.23,1.23,0,0,1,.68-.26,1.55,1.55,0,0,1,.83.19,6.15,6.15,0,0,1,1.28,1.08l1,1.06c.62.71,1.19,1.36,1.83,2a36.52,36.52,0,0,0,4.1,3.47c1.45,1,2.93,2,4.37,3,.73.45,1.44.9,2.14,1.29a7.38,7.38,0,0,0,1.8.81c.07,0,.13,0-.06,0a1.37,1.37,0,0,0-.61,0,2.39,2.39,0,0,0-1.74,1.86,1.58,1.58,0,0,0,0,.42c0,.13,0,.08,0,0s-.25-.46-.43-.75l-.69-1.12c-.25-.43-.51-.87-.76-1.39-.12-.27-.25-.55-.38-.91a5.09,5.09,0,0,1-.33-1.84,3.89,3.89,0,0,1,.23-1.16,3.85,3.85,0,0,1,.4-.78,3.39,3.39,0,0,1,.68-.73,3,3,0,0,1,.77-.48,3.14,3.14,0,0,1,.67-.23,3.67,3.67,0,0,1,.93-.11,4.81,4.81,0,0,1,1,.12,6.19,6.19,0,0,1,.6.16,11.67,11.67,0,0,1,1.57.62c1.74.8,3.21,1.57,4.75,2.27.77.34,1.53.68,2.31,1a12.69,12.69,0,0,0,2.1.67,7.47,7.47,0,0,0,4.25-.25,10.72,10.72,0,0,0,4.09-2.85l0,0a.3.3,0,0,1,.43,0,.33.33,0,0,1,.1.28,9.24,9.24,0,0,1-3,5.2,10,10,0,0,1-6.12,2.38,14.24,14.24,0,0,1-3.24-.22c-1-.18-1.95-.39-2.89-.66a48.82,48.82,0,0,1-5.3-1.86c-.38-.14-.76-.3-1-.36a2,2,0,1,1,.28,0,2.31,2.31,0,0,0,.59-.07,3.26,3.26,0,0,0,.52-.18,2.6,2.6,0,0,0,.62-.39,3,3,0,0,0,.56-.61,3.14,3.14,0,0,0,.33-.62,2.4,2.4,0,0,0,.16-.84,1.55,1.55,0,0,0,0-.5c0-.05,0,0,0,0s.07.2.13.35.3.67.48,1L557,2000a11.79,11.79,0,0,1,.68,1.73,5.74,5.74,0,0,1,.25,1.32,4.27,4.27,0,0,1,0,1.1,3.62,3.62,0,0,1-.8,1.71,3.47,3.47,0,0,1-1.77,1.11,3.89,3.89,0,0,1-1.29.1,5,5,0,0,1-1.39-.34,12.36,12.36,0,0,1-3-1.76,21.13,21.13,0,0,1-2.22-2,38.69,38.69,0,0,1-3.67-4.36l-3.28-4.5c-.55-.73-1.11-1.49-1.66-2.16a11.57,11.57,0,0,0-.87-1,2.91,2.91,0,0,0-.82-.64s0,0,.18,0a.75.75,0,0,0,.54-.32c.07-.13,0,.06.06.21a7.6,7.6,0,0,0,.26,1.17c.27.82.56,1.67.91,2.51.67,1.69,1.42,3.4,2,5.17a27.35,27.35,0,0,1,1.13,5.48,33.88,33.88,0,0,1,.17,5.71,22.05,22.05,0,0,1-1,5.75,11.89,11.89,0,0,1-3.06,5,.32.32,0,0,1-.45,0,.34.34,0,0,1-.07-.27Z" transform="translate(0 -1931.26)"/><path class="cls-6" d="M615,2251c-22-21.53-91-22-98,9s-27,91-9,92,126.22,7.22,122-16C624,2303,634.16,2269.71,615,2251Z" transform="translate(0 -1931.26)"/><path class="cls-4" d="M888,2410l21-127s-2,9,34,9l-26,124C907,2422,891,2417,888,2410Z" transform="translate(0 -1931.26)"/><path class="cls-5" d="M899,2341a12.08,12.08,0,0,0,3.66,2.24,34.4,34.4,0,0,0,4,1.36c2.69.78,5.46,1.36,8.25,1.91s5.6,1,8.43,1.46,5.66.86,8.69,1a20.77,20.77,0,0,1-8.84,2.11,37.66,37.66,0,0,1-9-.68,32,32,0,0,1-8.66-2.93,18.61,18.61,0,0,1-3.87-2.63A8.39,8.39,0,0,1,899,2341Z" transform="translate(0 -1931.26)"/><path class="cls-4" d="M108.9,2383.6c-.09-.6-21.23-104.42-21.23-104.42s1.29,9.13,35-3.52c0,0,15.4,102.53,15.49,103.36C139,2387,110,2391,108.9,2383.6Z" transform="translate(0 -1931.26)"/><path class="cls-5" d="M95,2322.13a12.08,12.08,0,0,0,4.2.81,36.76,36.76,0,0,0,4.2-.12c2.8-.22,5.6-.64,8.4-1.11s5.6-1,8.41-1.6,5.6-1.18,8.49-2.08a21,21,0,0,1-7.53,5.08,38.33,38.33,0,0,1-8.71,2.54,31.75,31.75,0,0,1-9.14.3,18.36,18.36,0,0,1-4.54-1.1A8.33,8.33,0,0,1,95,2322.13Z" transform="translate(0 -1931.26)"/><path class="cls-2" d="M1061.35,2103.48c-4.5,9-15.5,15-31.49,12" transform="translate(0 -1931.26)"/><path class="cls-2" d="M1092.11,2155.29c-18.32,15.21-54.52,1.24-61.25-11.32" transform="translate(0 -1931.26)"/><path class="cls-4" d="M1053.85,2109.48l-10.5-63.48s1,4.5-17,4.5l13,62C1044.35,2115.48,1052.35,2113,1053.85,2109.48Z" transform="translate(0 -1931.26)"/><path class="cls-5" d="M1048.35,2075a3,3,0,0,1-.32,1.24c-.09.2-.2.39-.31.59s-.26.33-.39.5a8,8,0,0,1-1.91,1.64,13.06,13.06,0,0,1-4.43,1.73,14.35,14.35,0,0,1-4.67.14,8.44,8.44,0,0,1-4.46-1.84c1.59-.5,2.92-.94,4.3-1.3s2.72-.66,4.06-.93,2.68-.48,4-.7c.67-.11,1.34-.22,2-.37A7.35,7.35,0,0,0,1048.35,2075Z" transform="translate(0 -1931.26)"/><path class="cls-4" d="M1068.4,2153.77c0-.3,10.61-52.2,10.61-52.2s-.65,4.57-17.49-1.75c0,0-7.7,51.24-7.75,51.66C1053.35,2155.47,1067.85,2157.47,1068.4,2153.77Z" transform="translate(0 -1931.26)"/><path class="cls-5" d="M1075.37,2123a3,3,0,0,1-.74,1.05,5.41,5.41,0,0,1-.5.44c-.17.12-.36.22-.54.34a8.51,8.51,0,0,1-2.36.86,13.15,13.15,0,0,1-4.76.06,14,14,0,0,1-4.42-1.51,8.46,8.46,0,0,1-3.53-3.29c1.67.09,3.06.14,4.49.29s2.77.34,4.12.56,2.68.5,4,.76c.66.13,1.33.27,2,.36A7.63,7.63,0,0,0,1075.37,2123Z" transform="translate(0 -1931.26)"/><path class="cls-7" d="M639,2013c2,0,15.55,14.45,13,17C647,2035,639,2013,639,2013Z" transform="translate(0 -1931.26)"/><path class="cls-7" d="M655,2047c17,14,27,39,20,39-3.58,0-4-15-7-22C665.16,2057.37,655,2047,655,2047Z" transform="translate(0 -1931.26)"/></svg>